<?xml version="1.0" encoding="UTF-8" standalone="no"?><svg xmlns="http://www.w3.org/2000/svg" xmlns:xlink="http://www.w3.org/1999/xlink" contentScriptType="application/ecmascript" contentStyleType="text/css" height="626px" preserveAspectRatio="none" style="width:2146px;height:626px;" version="1.1" viewBox="0 0 2146 626" width="2146px" zoomAndPan="magnify"><defs/><g><!--class BusinessNetworkMetadata--><rect fill="#F8FAFA" height="178.375" rx="1" ry="1" style="stroke: #E3ECEC; stroke-width: 1.5;" width="266" x="111" y="8"/><ellipse cx="138.15" cy="24" fill="#FFFFFF" rx="11" ry="11" style="stroke: #E3ECEC; stroke-width: 1.0;"/><path d="M140.6031,29.6563 Q140.0563,29.9375 139.4547,30.0859 Q138.8531,30.2344 138.1813,30.2344 Q135.8219,30.2344 134.5797,28.6719 Q133.3375,27.1094 133.3375,24.1719 Q133.3375,21.2344 134.5797,19.6797 Q135.8219,18.125 138.1813,18.125 Q138.8531,18.125 139.4625,18.2656 Q140.0719,18.4063 140.6031,18.6875 L140.6031,21.25 Q140.0094,20.7031 139.4469,20.4453 Q138.8844,20.1875 138.2906,20.1875 Q137.025,20.1875 136.3844,21.1953 Q135.7438,22.2031 135.7438,24.1719 Q135.7438,26.1406 136.3844,27.1484 Q137.025,28.1563 138.2906,28.1563 Q138.8844,28.1563 139.4469,27.8984 Q140.0094,27.6406 140.6031,27.0938 L140.6031,29.6563 Z "/><text fill="#19273C" font-family="sans-serif" font-size="16" lengthAdjust="spacingAndGlyphs" textLength="207" x="154.85" y="29.5391">BusinessNetworkMetadata</text><line style="stroke: #E3ECEC; stroke-width: 1.5;" x1="112" x2="376" y1="40" y2="40"/><line style="stroke: #E3ECEC; stroke-width: 1.5;" x1="112" x2="376" y1="48" y2="48"/><ellipse cx="122" cy="62.3125" fill="#84BE84" rx="3" ry="3" style="stroke: #038048; stroke-width: 1.0;"/><text fill="#19273C" font-family="sans-serif" font-size="16" lengthAdjust="spacingAndGlyphs" textLength="240" x="131" y="66.8516">void constructor(object,String)</text><ellipse cx="122" cy="80.9375" fill="#84BE84" rx="3" ry="3" style="stroke: #038048; stroke-width: 1.0;"/><text fill="#19273C" font-family="sans-serif" font-size="16" lengthAdjust="spacingAndGlyphs" textLength="155" x="131" y="85.4766">String getREADME()</text><ellipse cx="122" cy="99.5625" fill="#84BE84" rx="3" ry="3" style="stroke: #038048; stroke-width: 1.0;"/><text fill="#19273C" font-family="sans-serif" font-size="16" lengthAdjust="spacingAndGlyphs" textLength="188" x="131" y="104.1016">object getPackageJson()</text><ellipse cx="122" cy="118.1875" fill="#84BE84" rx="3" ry="3" style="stroke: #038048; stroke-width: 1.0;"/><text fill="#19273C" font-family="sans-serif" font-size="16" lengthAdjust="spacingAndGlyphs" textLength="132" x="131" y="122.7266">string getName()</text><ellipse cx="122" cy="136.8125" fill="#84BE84" rx="3" ry="3" style="stroke: #038048; stroke-width: 1.0;"/><text fill="#19273C" font-family="sans-serif" font-size="16" lengthAdjust="spacingAndGlyphs" textLength="175" x="131" y="141.3516">string getDescription()</text><ellipse cx="122" cy="155.4375" fill="#84BE84" rx="3" ry="3" style="stroke: #038048; stroke-width: 1.0;"/><text fill="#19273C" font-family="sans-serif" font-size="16" lengthAdjust="spacingAndGlyphs" textLength="146" x="131" y="159.9766">string getVersion()</text><ellipse cx="122" cy="174.0625" fill="#84BE84" rx="3" ry="3" style="stroke: #038048; stroke-width: 1.0;"/><text fill="#19273C" font-family="sans-serif" font-size="16" lengthAdjust="spacingAndGlyphs" textLength="155" x="131" y="178.6016">string getIdentifier()</text><!--class Relationship--><rect fill="#F8FAFA" height="103.875" rx="1" ry="1" style="stroke: #E3ECEC; stroke-width: 1.5;" width="467" x="1056.5" y="329.5"/><ellipse cx="1239.25" cy="345.5" fill="#FFFFFF" rx="11" ry="11" style="stroke: #E3ECEC; stroke-width: 1.0;"/><path d="M1241.7031,351.1563 Q1241.1563,351.4375 1240.5547,351.5859 Q1239.9531,351.7344 1239.2813,351.7344 Q1236.9219,351.7344 1235.6797,350.1719 Q1234.4375,348.6094 1234.4375,345.6719 Q1234.4375,342.7344 1235.6797,341.1797 Q1236.9219,339.625 1239.2813,339.625 Q1239.9531,339.625 1240.5625,339.7656 Q1241.1719,339.9063 1241.7031,340.1875 L1241.7031,342.75 Q1241.1094,342.2031 1240.5469,341.9453 Q1239.9844,341.6875 1239.3906,341.6875 Q1238.125,341.6875 1237.4844,342.6953 Q1236.8438,343.7031 1236.8438,345.6719 Q1236.8438,347.6406 1237.4844,348.6484 Q1238.125,349.6563 1239.3906,349.6563 Q1239.9844,349.6563 1240.5469,349.3984 Q1241.1094,349.1406 1241.7031,348.5938 L1241.7031,351.1563 Z "/><text fill="#19273C" font-family="sans-serif" font-size="16" lengthAdjust="spacingAndGlyphs" textLength="93" x="1259.75" y="351.0391">Relationship</text><line style="stroke: #E3ECEC; stroke-width: 1.5;" x1="1057.5" x2="1522.5" y1="361.5" y2="361.5"/><line style="stroke: #E3ECEC; stroke-width: 1.5;" x1="1057.5" x2="1522.5" y1="369.5" y2="369.5"/><ellipse cx="1067.5" cy="383.8125" fill="#84BE84" rx="3" ry="3" style="stroke: #038048; stroke-width: 1.0;"/><text fill="#19273C" font-family="sans-serif" font-size="16" lengthAdjust="spacingAndGlyphs" textLength="125" x="1076.5" y="388.3516">String toString()</text><ellipse cx="1067.5" cy="402.4375" fill="#84BE84" rx="3" ry="3" style="stroke: #038048; stroke-width: 1.0;"/><text fill="#19273C" font-family="sans-serif" font-size="16" lengthAdjust="spacingAndGlyphs" textLength="183" x="1076.5" y="406.9766">boolean isRelationship()</text><ellipse cx="1067.5" cy="421.0625" fill="#84BE84" rx="3" ry="3" style="stroke: #038048; stroke-width: 1.0;"/><text fill="#19273C" font-family="sans-serif" font-size="16" lengthAdjust="spacingAndGlyphs" textLength="441" x="1076.5" y="425.6016">Relationship fromURI(ModelManager,String,String,String)</text><!--class Identifiable--><rect fill="#F8FAFA" height="48" rx="1" ry="1" style="stroke: #E3ECEC; stroke-width: 1.5;" width="115" x="1414.5" y="577"/><ellipse cx="1429.5" cy="593" fill="#FFFFFF" rx="11" ry="11" style="stroke: #E3ECEC; stroke-width: 1.0;"/><path d="M1431.9531,598.6563 Q1431.4063,598.9375 1430.8047,599.0859 Q1430.2031,599.2344 1429.5313,599.2344 Q1427.1719,599.2344 1425.9297,597.6719 Q1424.6875,596.1094 1424.6875,593.1719 Q1424.6875,590.2344 1425.9297,588.6797 Q1427.1719,587.125 1429.5313,587.125 Q1430.2031,587.125 1430.8125,587.2656 Q1431.4219,587.4063 1431.9531,587.6875 L1431.9531,590.25 Q1431.3594,589.7031 1430.7969,589.4453 Q1430.2344,589.1875 1429.6406,589.1875 Q1428.375,589.1875 1427.7344,590.1953 Q1427.0938,591.2031 1427.0938,593.1719 Q1427.0938,595.1406 1427.7344,596.1484 Q1428.375,597.1563 1429.6406,597.1563 Q1430.2344,597.1563 1430.7969,596.8984 Q1431.3594,596.6406 1431.9531,596.0938 L1431.9531,598.6563 Z "/><text fill="#19273C" font-family="sans-serif" font-size="16" lengthAdjust="spacingAndGlyphs" textLength="83" x="1443.5" y="598.5391">Identifiable</text><line style="stroke: #E3ECEC; stroke-width: 1.5;" x1="1415.5" x2="1528.5" y1="609" y2="609"/><line style="stroke: #E3ECEC; stroke-width: 1.5;" x1="1415.5" x2="1528.5" y1="617" y2="617"/><!--class Resource--><rect fill="#F8FAFA" height="85.25" rx="1" ry="1" style="stroke: #E3ECEC; stroke-width: 1.5;" width="190" x="1559" y="339"/><ellipse cx="1612.75" cy="355" fill="#FFFFFF" rx="11" ry="11" style="stroke: #E3ECEC; stroke-width: 1.0;"/><path d="M1615.2031,360.6563 Q1614.6563,360.9375 1614.0547,361.0859 Q1613.4531,361.2344 1612.7813,361.2344 Q1610.4219,361.2344 1609.1797,359.6719 Q1607.9375,358.1094 1607.9375,355.1719 Q1607.9375,352.2344 1609.1797,350.6797 Q1610.4219,349.125 1612.7813,349.125 Q1613.4531,349.125 1614.0625,349.2656 Q1614.6719,349.4063 1615.2031,349.6875 L1615.2031,352.25 Q1614.6094,351.7031 1614.0469,351.4453 Q1613.4844,351.1875 1612.8906,351.1875 Q1611.625,351.1875 1610.9844,352.1953 Q1610.3438,353.2031 1610.3438,355.1719 Q1610.3438,357.1406 1610.9844,358.1484 Q1611.625,359.1563 1612.8906,359.1563 Q1613.4844,359.1563 1614.0469,358.8984 Q1614.6094,358.6406 1615.2031,358.0938 L1615.2031,360.6563 Z "/><text fill="#19273C" font-family="sans-serif" font-size="16" lengthAdjust="spacingAndGlyphs" textLength="74" x="1633.25" y="360.5391">Resource</text><line style="stroke: #E3ECEC; stroke-width: 1.5;" x1="1560" x2="1748" y1="371" y2="371"/><line style="stroke: #E3ECEC; stroke-width: 1.5;" x1="1560" x2="1748" y1="379" y2="379"/><ellipse cx="1570" cy="393.3125" fill="#84BE84" rx="3" ry="3" style="stroke: #038048; stroke-width: 1.0;"/><text fill="#19273C" font-family="sans-serif" font-size="16" lengthAdjust="spacingAndGlyphs" textLength="125" x="1579" y="397.8516">String toString()</text><ellipse cx="1570" cy="411.9375" fill="#84BE84" rx="3" ry="3" style="stroke: #038048; stroke-width: 1.0;"/><text fill="#19273C" font-family="sans-serif" font-size="16" lengthAdjust="spacingAndGlyphs" textLength="164" x="1579" y="416.4766">boolean isResource()</text><!--class ValidatedResource--><rect fill="#F8FAFA" height="103.875" rx="1" ry="1" style="stroke: #E3ECEC; stroke-width: 1.5;" width="304" x="1502" y="45"/><ellipse cx="1577.75" cy="61" fill="#FFFFFF" rx="11" ry="11" style="stroke: #E3ECEC; stroke-width: 1.0;"/><path d="M1580.2031,66.6563 Q1579.6563,66.9375 1579.0547,67.0859 Q1578.4531,67.2344 1577.7813,67.2344 Q1575.4219,67.2344 1574.1797,65.6719 Q1572.9375,64.1094 1572.9375,61.1719 Q1572.9375,58.2344 1574.1797,56.6797 Q1575.4219,55.125 1577.7813,55.125 Q1578.4531,55.125 1579.0625,55.2656 Q1579.6719,55.4063 1580.2031,55.6875 L1580.2031,58.25 Q1579.6094,57.7031 1579.0469,57.4453 Q1578.4844,57.1875 1577.8906,57.1875 Q1576.625,57.1875 1575.9844,58.1953 Q1575.3438,59.2031 1575.3438,61.1719 Q1575.3438,63.1406 1575.9844,64.1484 Q1576.625,65.1563 1577.8906,65.1563 Q1578.4844,65.1563 1579.0469,64.8984 Q1579.6094,64.6406 1580.2031,64.0938 L1580.2031,66.6563 Z "/><text fill="#19273C" font-family="sans-serif" font-size="16" lengthAdjust="spacingAndGlyphs" textLength="144" x="1598.25" y="66.5391">ValidatedResource</text><line style="stroke: #E3ECEC; stroke-width: 1.5;" x1="1503" x2="1805" y1="77" y2="77"/><line style="stroke: #E3ECEC; stroke-width: 1.5;" x1="1503" x2="1805" y1="85" y2="85"/><ellipse cx="1513" cy="99.3125" fill="#84BE84" rx="3" ry="3" style="stroke: #038048; stroke-width: 1.0;"/><text fill="#19273C" font-family="sans-serif" font-size="16" lengthAdjust="spacingAndGlyphs" textLength="278" x="1522" y="103.8516">void setPropertyValue(string,string)</text><ellipse cx="1513" cy="117.9375" fill="#84BE84" rx="3" ry="3" style="stroke: #038048; stroke-width: 1.0;"/><text fill="#19273C" font-family="sans-serif" font-size="16" lengthAdjust="spacingAndGlyphs" textLength="258" x="1522" y="122.4766">void addArrayValue(string,string)</text><ellipse cx="1513" cy="136.5625" fill="#84BE84" rx="3" ry="3" style="stroke: #038048; stroke-width: 1.0;"/><text fill="#19273C" font-family="sans-serif" font-size="16" lengthAdjust="spacingAndGlyphs" textLength="107" x="1522" y="141.1016">void validate()</text><!--class Concept--><rect fill="#F8FAFA" height="66.625" rx="1" ry="1" style="stroke: #E3ECEC; stroke-width: 1.5;" width="181" x="1902.5" y="348"/><ellipse cx="1956.25" cy="364" fill="#FFFFFF" rx="11" ry="11" style="stroke: #E3ECEC; stroke-width: 1.0;"/><path d="M1958.7031,369.6563 Q1958.1563,369.9375 1957.5547,370.0859 Q1956.9531,370.2344 1956.2813,370.2344 Q1953.9219,370.2344 1952.6797,368.6719 Q1951.4375,367.1094 1951.4375,364.1719 Q1951.4375,361.2344 1952.6797,359.6797 Q1953.9219,358.125 1956.2813,358.125 Q1956.9531,358.125 1957.5625,358.2656 Q1958.1719,358.4063 1958.7031,358.6875 L1958.7031,361.25 Q1958.1094,360.7031 1957.5469,360.4453 Q1956.9844,360.1875 1956.3906,360.1875 Q1955.125,360.1875 1954.4844,361.1953 Q1953.8438,362.2031 1953.8438,364.1719 Q1953.8438,366.1406 1954.4844,367.1484 Q1955.125,368.1563 1956.3906,368.1563 Q1956.9844,368.1563 1957.5469,367.8984 Q1958.1094,367.6406 1958.7031,367.0938 L1958.7031,369.6563 Z "/><text fill="#19273C" font-family="sans-serif" font-size="16" lengthAdjust="spacingAndGlyphs" textLength="65" x="1976.75" y="369.5391">Concept</text><line style="stroke: #E3ECEC; stroke-width: 1.5;" x1="1903.5" x2="2082.5" y1="380" y2="380"/><line style="stroke: #E3ECEC; stroke-width: 1.5;" x1="1903.5" x2="2082.5" y1="388" y2="388"/><ellipse cx="1913.5" cy="402.3125" fill="#84BE84" rx="3" ry="3" style="stroke: #038048; stroke-width: 1.0;"/><text fill="#19273C" font-family="sans-serif" font-size="16" lengthAdjust="spacingAndGlyphs" textLength="155" x="1922.5" y="406.8516">boolean isConcept()</text><!--class Typed--><rect fill="#F8FAFA" height="48" rx="1" ry="1" style="stroke: #E3ECEC; stroke-width: 1.5;" width="79" x="1953.5" y="577"/><ellipse cx="1968.5" cy="593" fill="#FFFFFF" rx="11" ry="11" style="stroke: #E3ECEC; stroke-width: 1.0;"/><path d="M1970.9531,598.6563 Q1970.4063,598.9375 1969.8047,599.0859 Q1969.2031,599.2344 1968.5313,599.2344 Q1966.1719,599.2344 1964.9297,597.6719 Q1963.6875,596.1094 1963.6875,593.1719 Q1963.6875,590.2344 1964.9297,588.6797 Q1966.1719,587.125 1968.5313,587.125 Q1969.2031,587.125 1969.8125,587.2656 Q1970.4219,587.4063 1970.9531,587.6875 L1970.9531,590.25 Q1970.3594,589.7031 1969.7969,589.4453 Q1969.2344,589.1875 1968.6406,589.1875 Q1967.375,589.1875 1966.7344,590.1953 Q1966.0938,591.2031 1966.0938,593.1719 Q1966.0938,595.1406 1966.7344,596.1484 Q1967.375,597.1563 1968.6406,597.1563 Q1969.2344,597.1563 1969.7969,596.8984 Q1970.3594,596.6406 1970.9531,596.0938 L1970.9531,598.6563 Z "/><text fill="#19273C" font-family="sans-serif" font-size="16" lengthAdjust="spacingAndGlyphs" textLength="47" x="1982.5" y="598.5391">Typed</text><line style="stroke: #E3ECEC; stroke-width: 1.5;" x1="1954.5" x2="2031.5" y1="609" y2="609"/><line style="stroke: #E3ECEC; stroke-width: 1.5;" x1="1954.5" x2="2031.5" y1="617" y2="617"/><!--class ValidatedConcept--><rect fill="#F8FAFA" height="103.875" rx="1" ry="1" style="stroke: #E3ECEC; stroke-width: 1.5;" width="304" x="1841" y="45"/><ellipse cx="1921.25" cy="61" fill="#FFFFFF" rx="11" ry="11" style="stroke: #E3ECEC; stroke-width: 1.0;"/><path d="M1923.7031,66.6563 Q1923.1563,66.9375 1922.5547,67.0859 Q1921.9531,67.2344 1921.2813,67.2344 Q1918.9219,67.2344 1917.6797,65.6719 Q1916.4375,64.1094 1916.4375,61.1719 Q1916.4375,58.2344 1917.6797,56.6797 Q1918.9219,55.125 1921.2813,55.125 Q1921.9531,55.125 1922.5625,55.2656 Q1923.1719,55.4063 1923.7031,55.6875 L1923.7031,58.25 Q1923.1094,57.7031 1922.5469,57.4453 Q1921.9844,57.1875 1921.3906,57.1875 Q1920.125,57.1875 1919.4844,58.1953 Q1918.8438,59.2031 1918.8438,61.1719 Q1918.8438,63.1406 1919.4844,64.1484 Q1920.125,65.1563 1921.3906,65.1563 Q1921.9844,65.1563 1922.5469,64.8984 Q1923.1094,64.6406 1923.7031,64.0938 L1923.7031,66.6563 Z "/><text fill="#19273C" font-family="sans-serif" font-size="16" lengthAdjust="spacingAndGlyphs" textLength="135" x="1941.75" y="66.5391">ValidatedConcept</text><line style="stroke: #E3ECEC; stroke-width: 1.5;" x1="1842" x2="2144" y1="77" y2="77"/><line style="stroke: #E3ECEC; stroke-width: 1.5;" x1="1842" x2="2144" y1="85" y2="85"/><ellipse cx="1852" cy="99.3125" fill="#84BE84" rx="3" ry="3" style="stroke: #038048; stroke-width: 1.0;"/><text fill="#19273C" font-family="sans-serif" font-size="16" lengthAdjust="spacingAndGlyphs" textLength="278" x="1861" y="103.8516">void setPropertyValue(string,string)</text><ellipse cx="1852" cy="117.9375" fill="#84BE84" rx="3" ry="3" style="stroke: #038048; stroke-width: 1.0;"/><text fill="#19273C" font-family="sans-serif" font-size="16" lengthAdjust="spacingAndGlyphs" textLength="258" x="1861" y="122.4766">void addArrayValue(string,string)</text><ellipse cx="1852" cy="136.5625" fill="#84BE84" rx="3" ry="3" style="stroke: #038048; stroke-width: 1.0;"/><text fill="#19273C" font-family="sans-serif" font-size="16" lengthAdjust="spacingAndGlyphs" textLength="107" x="1861" y="141.1016">void validate()</text><!--class Factory--><rect fill="#F8FAFA" height="159.75" rx="1" ry="1" style="stroke: #E3ECEC; stroke-width: 1.5;" width="605" x="411.5" y="17"/><ellipse cx="680.25" cy="33" fill="#FFFFFF" rx="11" ry="11" style="stroke: #E3ECEC; stroke-width: 1.0;"/><path d="M682.7031,38.6563 Q682.1563,38.9375 681.5547,39.0859 Q680.9531,39.2344 680.2813,39.2344 Q677.9219,39.2344 676.6797,37.6719 Q675.4375,36.1094 675.4375,33.1719 Q675.4375,30.2344 676.6797,28.6797 Q677.9219,27.125 680.2813,27.125 Q680.9531,27.125 681.5625,27.2656 Q682.1719,27.4063 682.7031,27.6875 L682.7031,30.25 Q682.1094,29.7031 681.5469,29.4453 Q680.9844,29.1875 680.3906,29.1875 Q679.125,29.1875 678.4844,30.1953 Q677.8438,31.2031 677.8438,33.1719 Q677.8438,35.1406 678.4844,36.1484 Q679.125,37.1563 680.3906,37.1563 Q680.9844,37.1563 681.5469,36.8984 Q682.1094,36.6406 682.7031,36.0938 L682.7031,38.6563 Z "/><text fill="#19273C" font-family="sans-serif" font-size="16" lengthAdjust="spacingAndGlyphs" textLength="59" x="700.75" y="38.5391">Factory</text><line style="stroke: #E3ECEC; stroke-width: 1.5;" x1="412.5" x2="1015.5" y1="49" y2="49"/><line style="stroke: #E3ECEC; stroke-width: 1.5;" x1="412.5" x2="1015.5" y1="57" y2="57"/><ellipse cx="422.5" cy="71.3125" fill="#84BE84" rx="3" ry="3" style="stroke: #038048; stroke-width: 1.0;"/><text fill="#19273C" font-family="sans-serif" font-size="16" lengthAdjust="spacingAndGlyphs" textLength="254" x="431.5" y="75.8516">void constructor(ModelManager)</text><ellipse cx="422.5" cy="89.9375" fill="#84BE84" rx="3" ry="3" style="stroke: #038048; stroke-width: 1.0;"/><text fill="#19273C" font-family="sans-serif" font-size="16" lengthAdjust="spacingAndGlyphs" textLength="579" x="431.5" y="94.4766">Resource newResource(string,string,string,Object,boolean,string,boolean)</text><ellipse cx="422.5" cy="108.5625" fill="#84BE84" rx="3" ry="3" style="stroke: #038048; stroke-width: 1.0;"/><text fill="#19273C" font-family="sans-serif" font-size="16" lengthAdjust="spacingAndGlyphs" textLength="520" x="431.5" y="113.1016">Resource newConcept(string,string,Object,boolean,string,boolean)</text><ellipse cx="422.5" cy="127.1875" fill="#84BE84" rx="3" ry="3" style="stroke: #038048; stroke-width: 1.0;"/><text fill="#19273C" font-family="sans-serif" font-size="16" lengthAdjust="spacingAndGlyphs" textLength="380" x="431.5" y="131.7266">Relationship newRelationship(string,string,string)</text><ellipse cx="422.5" cy="145.8125" fill="#84BE84" rx="3" ry="3" style="stroke: #038048; stroke-width: 1.0;"/><text fill="#19273C" font-family="sans-serif" font-size="16" lengthAdjust="spacingAndGlyphs" textLength="530" x="431.5" y="150.3516">Resource newTransaction(string,string,string,Object,string,boolean)</text><ellipse cx="422.5" cy="164.4375" fill="#84BE84" rx="3" ry="3" style="stroke: #038048; stroke-width: 1.0;"/><text fill="#19273C" font-family="sans-serif" font-size="16" lengthAdjust="spacingAndGlyphs" textLength="483" x="431.5" y="168.9766">Resource newEvent(string,string,string,Object,string,boolean)</text><!--class Introspector--><rect fill="#F8FAFA" height="103.875" rx="1" ry="1" style="stroke: #E3ECEC; stroke-width: 1.5;" width="370" x="1051" y="45"/><ellipse cx="1182.75" cy="61" fill="#FFFFFF" rx="11" ry="11" style="stroke: #E3ECEC; stroke-width: 1.0;"/><path d="M1185.2031,66.6563 Q1184.6563,66.9375 1184.0547,67.0859 Q1183.4531,67.2344 1182.7813,67.2344 Q1180.4219,67.2344 1179.1797,65.6719 Q1177.9375,64.1094 1177.9375,61.1719 Q1177.9375,58.2344 1179.1797,56.6797 Q1180.4219,55.125 1182.7813,55.125 Q1183.4531,55.125 1184.0625,55.2656 Q1184.6719,55.4063 1185.2031,55.6875 L1185.2031,58.25 Q1184.6094,57.7031 1184.0469,57.4453 Q1183.4844,57.1875 1182.8906,57.1875 Q1181.625,57.1875 1180.9844,58.1953 Q1180.3438,59.2031 1180.3438,61.1719 Q1180.3438,63.1406 1180.9844,64.1484 Q1181.625,65.1563 1182.8906,65.1563 Q1183.4844,65.1563 1184.0469,64.8984 Q1184.6094,64.6406 1185.2031,64.0938 L1185.2031,66.6563 Z "/><text fill="#19273C" font-family="sans-serif" font-size="16" lengthAdjust="spacingAndGlyphs" textLength="98" x="1203.25" y="66.5391">Introspector</text><line style="stroke: #E3ECEC; stroke-width: 1.5;" x1="1052" x2="1420" y1="77" y2="77"/><line style="stroke: #E3ECEC; stroke-width: 1.5;" x1="1052" x2="1420" y1="85" y2="85"/><ellipse cx="1062" cy="99.3125" fill="#84BE84" rx="3" ry="3" style="stroke: #038048; stroke-width: 1.0;"/><text fill="#19273C" font-family="sans-serif" font-size="16" lengthAdjust="spacingAndGlyphs" textLength="254" x="1071" y="103.8516">void constructor(ModelManager)</text><ellipse cx="1062" cy="117.9375" fill="#84BE84" rx="3" ry="3" style="stroke: #038048; stroke-width: 1.0;"/><text fill="#19273C" font-family="sans-serif" font-size="16" lengthAdjust="spacingAndGlyphs" textLength="319" x="1071" y="122.4766">ClassDeclaration[] getClassDeclarations()</text><ellipse cx="1062" cy="136.5625" fill="#84BE84" rx="3" ry="3" style="stroke: #038048; stroke-width: 1.0;"/><text fill="#19273C" font-family="sans-serif" font-size="16" lengthAdjust="spacingAndGlyphs" textLength="344" x="1071" y="141.1016">ClassDeclaration getClassDeclaration(String)</text><!--class Serializer--><rect fill="#F8FAFA" height="103.875" rx="1" ry="1" style="stroke: #E3ECEC; stroke-width: 1.5;" width="476" x="6" y="329.5"/><ellipse cx="205.25" cy="345.5" fill="#FFFFFF" rx="11" ry="11" style="stroke: #E3ECEC; stroke-width: 1.0;"/><path d="M207.7031,351.1563 Q207.1563,351.4375 206.5547,351.5859 Q205.9531,351.7344 205.2813,351.7344 Q202.9219,351.7344 201.6797,350.1719 Q200.4375,348.6094 200.4375,345.6719 Q200.4375,342.7344 201.6797,341.1797 Q202.9219,339.625 205.2813,339.625 Q205.9531,339.625 206.5625,339.7656 Q207.1719,339.9063 207.7031,340.1875 L207.7031,342.75 Q207.1094,342.2031 206.5469,341.9453 Q205.9844,341.6875 205.3906,341.6875 Q204.125,341.6875 203.4844,342.6953 Q202.8438,343.7031 202.8438,345.6719 Q202.8438,347.6406 203.4844,348.6484 Q204.125,349.6563 205.3906,349.6563 Q205.9844,349.6563 206.5469,349.3984 Q207.1094,349.1406 207.7031,348.5938 L207.7031,351.1563 Z "/><text fill="#19273C" font-family="sans-serif" font-size="16" lengthAdjust="spacingAndGlyphs" textLength="69" x="225.75" y="351.0391">Serializer</text><line style="stroke: #E3ECEC; stroke-width: 1.5;" x1="7" x2="481" y1="361.5" y2="361.5"/><line style="stroke: #E3ECEC; stroke-width: 1.5;" x1="7" x2="481" y1="369.5" y2="369.5"/><ellipse cx="17" cy="383.8125" fill="#84BE84" rx="3" ry="3" style="stroke: #038048; stroke-width: 1.0;"/><text fill="#19273C" font-family="sans-serif" font-size="16" lengthAdjust="spacingAndGlyphs" textLength="318" x="26" y="388.3516">void constructor(Factory,ModelManager)</text><ellipse cx="17" cy="402.4375" fill="#84BE84" rx="3" ry="3" style="stroke: #038048; stroke-width: 1.0;"/><text fill="#19273C" font-family="sans-serif" font-size="16" lengthAdjust="spacingAndGlyphs" textLength="450" x="26" y="406.9766">Object toJSON(Resource,Object,boolean,boolean,boolean)</text><ellipse cx="17" cy="421.0625" fill="#84BE84" rx="3" ry="3" style="stroke: #038048; stroke-width: 1.0;"/><text fill="#19273C" font-family="sans-serif" font-size="16" lengthAdjust="spacingAndGlyphs" textLength="340" x="26" y="425.6016">Resource fromJSON(Object,Object,boolean)</text><!--class BusinessNetworkDefinition--><rect fill="#F8FAFA" height="271.5" rx="1" ry="1" style="stroke: #E3ECEC; stroke-width: 1.5;" width="504" x="517" y="246"/><ellipse cx="660.75" cy="262" fill="#FFFFFF" rx="11" ry="11" style="stroke: #E3ECEC; stroke-width: 1.0;"/><path d="M663.2031,267.6563 Q662.6563,267.9375 662.0547,268.0859 Q661.4531,268.2344 660.7813,268.2344 Q658.4219,268.2344 657.1797,266.6719 Q655.9375,265.1094 655.9375,262.1719 Q655.9375,259.2344 657.1797,257.6797 Q658.4219,256.125 660.7813,256.125 Q661.4531,256.125 662.0625,256.2656 Q662.6719,256.4063 663.2031,256.6875 L663.2031,259.25 Q662.6094,258.7031 662.0469,258.4453 Q661.4844,258.1875 660.8906,258.1875 Q659.625,258.1875 658.9844,259.1953 Q658.3438,260.2031 658.3438,262.1719 Q658.3438,264.1406 658.9844,265.1484 Q659.625,266.1563 660.8906,266.1563 Q661.4844,266.1563 662.0469,265.8984 Q662.6094,265.6406 663.2031,265.0938 L663.2031,267.6563 Z "/><text fill="#19273C" font-family="sans-serif" font-size="16" lengthAdjust="spacingAndGlyphs" textLength="208" x="681.25" y="267.5391">BusinessNetworkDefinition</text><line style="stroke: #E3ECEC; stroke-width: 1.5;" x1="518" x2="1020" y1="278" y2="278"/><line style="stroke: #E3ECEC; stroke-width: 1.5;" x1="518" x2="1020" y1="286" y2="286"/><ellipse cx="528" cy="300.3125" fill="#84BE84" rx="3" ry="3" style="stroke: #038048; stroke-width: 1.0;"/><text fill="#19273C" font-family="sans-serif" font-size="16" lengthAdjust="spacingAndGlyphs" textLength="342" x="537" y="304.8516">void constructor(String,String,object,String)</text><ellipse cx="528" cy="318.9375" fill="#84BE84" rx="3" ry="3" style="stroke: #038048; stroke-width: 1.0;"/><text fill="#19273C" font-family="sans-serif" font-size="16" lengthAdjust="spacingAndGlyphs" textLength="156" x="537" y="323.4766">String getIdentifier()</text><ellipse cx="528" cy="337.5625" fill="#84BE84" rx="3" ry="3" style="stroke: #038048; stroke-width: 1.0;"/><text fill="#19273C" font-family="sans-serif" font-size="16" lengthAdjust="spacingAndGlyphs" textLength="320" x="537" y="342.1016">BusinessNetworkMetadata getMetadata()</text><ellipse cx="528" cy="356.1875" fill="#84BE84" rx="3" ry="3" style="stroke: #038048; stroke-width: 1.0;"/><text fill="#19273C" font-family="sans-serif" font-size="16" lengthAdjust="spacingAndGlyphs" textLength="133" x="537" y="360.7266">String getName()</text><ellipse cx="528" cy="374.8125" fill="#84BE84" rx="3" ry="3" style="stroke: #038048; stroke-width: 1.0;"/><text fill="#19273C" font-family="sans-serif" font-size="16" lengthAdjust="spacingAndGlyphs" textLength="147" x="537" y="379.3516">String getVersion()</text><ellipse cx="528" cy="393.4375" fill="#84BE84" rx="3" ry="3" style="stroke: #038048; stroke-width: 1.0;"/><text fill="#19273C" font-family="sans-serif" font-size="16" lengthAdjust="spacingAndGlyphs" textLength="176" x="537" y="397.9766">String getDescription()</text><ellipse cx="528" cy="412.0625" fill="#84BE84" rx="3" ry="3" style="stroke: #038048; stroke-width: 1.0;"/><text fill="#19273C" font-family="sans-serif" font-size="16" lengthAdjust="spacingAndGlyphs" textLength="225" x="537" y="416.6016">Promise fromArchive(Buffer)</text><ellipse cx="528" cy="430.6875" fill="#84BE84" rx="3" ry="3" style="stroke: #038048; stroke-width: 1.0;"/><text fill="#19273C" font-family="sans-serif" font-size="16" lengthAdjust="spacingAndGlyphs" textLength="190" x="537" y="435.2266">Buffer toArchive(Object)</text><ellipse cx="528" cy="449.3125" fill="#84BE84" rx="3" ry="3" style="stroke: #038048; stroke-width: 1.0;"/><text fill="#19273C" font-family="sans-serif" font-size="16" lengthAdjust="spacingAndGlyphs" textLength="478" x="537" y="453.8516">Promise fromDirectory(String,Object,Object,boolean,boolean)</text><ellipse cx="528" cy="467.9375" fill="#84BE84" rx="3" ry="3" style="stroke: #038048; stroke-width: 1.0;"/><text fill="#19273C" font-family="sans-serif" font-size="16" lengthAdjust="spacingAndGlyphs" textLength="238" x="537" y="472.4766">Introspector getIntrospector()</text><ellipse cx="528" cy="486.5625" fill="#84BE84" rx="3" ry="3" style="stroke: #038048; stroke-width: 1.0;"/><text fill="#19273C" font-family="sans-serif" font-size="16" lengthAdjust="spacingAndGlyphs" textLength="160" x="537" y="491.1016">Factory getFactory()</text><ellipse cx="528" cy="505.1875" fill="#84BE84" rx="3" ry="3" style="stroke: #038048; stroke-width: 1.0;"/><text fill="#19273C" font-family="sans-serif" font-size="16" lengthAdjust="spacingAndGlyphs" textLength="180" x="537" y="509.7266">Serializer getSerializer()</text><path d="M1332.9,433.769 C1365.65,472.909 1410.07,525.9886 1439.82,561.5374 " fill="none" style="stroke: #3C6DF0; stroke-width: 1.0;"/><polygon fill="none" points="1445.27,557.1523,1452.74,576.983,1434.54,566.1368,1445.27,557.1523" style="stroke: #3C6DF0; stroke-width: 1.0;"/><path d="M1619.12,424.179 C1585.96,463.809 1536.49,522.934 1504.23,561.4834 " fill="none" style="stroke: #3C6DF0; stroke-width: 1.0;"/><polygon fill="none" points="1509.56,566.0256,1491.35,576.8718,1498.82,557.0411,1509.56,566.0256" style="stroke: #3C6DF0; stroke-width: 1.0;"/><path d="M1654,149.159 C1654,196.846 1654,268.046 1654,318.85 " fill="none" style="stroke: #3C6DF0; stroke-width: 1.0;"/><polygon fill="none" points="1661,318.909,1654,338.909,1647,318.909,1661,318.909" style="stroke: #3C6DF0; stroke-width: 1.0;"/><path d="M1993,415.062 C1993,452.732 1993,514.911 1993,556.647 " fill="none" style="stroke: #3C6DF0; stroke-width: 1.0;"/><polygon fill="none" points="2000,556.908,1993,576.9079,1986,556.9079,2000,556.908" style="stroke: #3C6DF0; stroke-width: 1.0;"/><path d="M1993,149.159 C1993,199.661 1993,276.536 1993,327.626 " fill="none" style="stroke: #3C6DF0; stroke-width: 1.0;"/><polygon fill="none" points="2000,327.791,1993,347.791,1986,327.791,2000,327.791" style="stroke: #3C6DF0; stroke-width: 1.0;"/></g></svg>