<?xml version="1.0" encoding="UTF-8" standalone="no"?><svg xmlns="http://www.w3.org/2000/svg" xmlns:xlink="http://www.w3.org/1999/xlink" contentScriptType="application/ecmascript" contentStyleType="text/css" height="463px" preserveAspectRatio="none" style="width:330px;height:463px;" version="1.1" viewBox="0 0 330 463" width="330px" zoomAndPan="magnify"><defs/><g><!--class Wallet--><rect fill="#F8FAFA" height="197" rx="1" ry="1" style="stroke: #E3ECEC; stroke-width: 1.5;" width="255" x="40" y="265"/><ellipse cx="139.75" cy="281" fill="#FFFFFF" rx="11" ry="11" style="stroke: #E3ECEC; stroke-width: 1.0;"/><path d="M142.2031,286.6563 Q141.6563,286.9375 141.0547,287.0859 Q140.4531,287.2344 139.7813,287.2344 Q137.4219,287.2344 136.1797,285.6719 Q134.9375,284.1094 134.9375,281.1719 Q134.9375,278.2344 136.1797,276.6797 Q137.4219,275.125 139.7813,275.125 Q140.4531,275.125 141.0625,275.2656 Q141.6719,275.4063 142.2031,275.6875 L142.2031,278.25 Q141.6094,277.7031 141.0469,277.4453 Q140.4844,277.1875 139.8906,277.1875 Q138.625,277.1875 137.9844,278.1953 Q137.3438,279.2031 137.3438,281.1719 Q137.3438,283.1406 137.9844,284.1484 Q138.625,285.1563 139.8906,285.1563 Q140.4844,285.1563 141.0469,284.8984 Q141.6094,284.6406 142.2031,284.0938 L142.2031,286.6563 Z "/><text fill="#19273C" font-family="sans-serif" font-size="16" lengthAdjust="spacingAndGlyphs" textLength="47" x="160.25" y="286.5391">Wallet</text><line style="stroke: #E3ECEC; stroke-width: 1.5;" x1="41" x2="294" y1="297" y2="297"/><line style="stroke: #E3ECEC; stroke-width: 1.5;" x1="41" x2="294" y1="305" y2="305"/><ellipse cx="51" cy="319.3125" fill="#84BE84" rx="3" ry="3" style="stroke: #038048; stroke-width: 1.0;"/><text fill="#19273C" font-family="sans-serif" font-size="16" lengthAdjust="spacingAndGlyphs" textLength="136" x="60" y="323.8516">Wallet getWallet()</text><ellipse cx="51" cy="337.9375" fill="#84BE84" rx="3" ry="3" style="stroke: #038048; stroke-width: 1.0;"/><text fill="#19273C" font-family="sans-serif" font-size="16" lengthAdjust="spacingAndGlyphs" textLength="167" x="60" y="342.4766">void setWallet(Wallet)</text><ellipse cx="51" cy="356.5625" fill="#84BE84" rx="3" ry="3" style="stroke: #038048; stroke-width: 1.0;"/><text fill="#19273C" font-family="sans-serif" font-size="16" lengthAdjust="spacingAndGlyphs" textLength="101" x="60" y="361.1016">Promise list()</text><ellipse cx="51" cy="375.1875" fill="#84BE84" rx="3" ry="3" style="stroke: #038048; stroke-width: 1.0;"/><text fill="#19273C" font-family="sans-serif" font-size="16" lengthAdjust="spacingAndGlyphs" textLength="191" x="60" y="379.7266">Promise contains(string)</text><ellipse cx="51" cy="393.8125" fill="#84BE84" rx="3" ry="3" style="stroke: #038048; stroke-width: 1.0;"/><text fill="#19273C" font-family="sans-serif" font-size="16" lengthAdjust="spacingAndGlyphs" textLength="150" x="60" y="398.3516">Promise get(string)</text><ellipse cx="51" cy="412.4375" fill="#84BE84" rx="3" ry="3" style="stroke: #038048; stroke-width: 1.0;"/><text fill="#19273C" font-family="sans-serif" font-size="16" lengthAdjust="spacingAndGlyphs" textLength="204" x="60" y="416.9766">Promise add(string,string)</text><ellipse cx="51" cy="431.0625" fill="#84BE84" rx="3" ry="3" style="stroke: #038048; stroke-width: 1.0;"/><text fill="#19273C" font-family="sans-serif" font-size="16" lengthAdjust="spacingAndGlyphs" textLength="229" x="60" y="435.6016">Promise update(string,string)</text><ellipse cx="51" cy="449.6875" fill="#84BE84" rx="3" ry="3" style="stroke: #038048; stroke-width: 1.0;"/><text fill="#19273C" font-family="sans-serif" font-size="16" lengthAdjust="spacingAndGlyphs" textLength="184" x="60" y="454.2266">Promise remove(string)</text><!--class FileWallet--><rect fill="#F8FAFA" height="197" rx="1" ry="1" style="stroke: #E3ECEC; stroke-width: 1.5;" width="323" x="6" y="8"/><ellipse cx="127.75" cy="24" fill="#FFFFFF" rx="11" ry="11" style="stroke: #E3ECEC; stroke-width: 1.0;"/><path d="M130.2031,29.6563 Q129.6563,29.9375 129.0547,30.0859 Q128.4531,30.2344 127.7813,30.2344 Q125.4219,30.2344 124.1797,28.6719 Q122.9375,27.1094 122.9375,24.1719 Q122.9375,21.2344 124.1797,19.6797 Q125.4219,18.125 127.7813,18.125 Q128.4531,18.125 129.0625,18.2656 Q129.6719,18.4063 130.2031,18.6875 L130.2031,21.25 Q129.6094,20.7031 129.0469,20.4453 Q128.4844,20.1875 127.8906,20.1875 Q126.625,20.1875 125.9844,21.1953 Q125.3438,22.2031 125.3438,24.1719 Q125.3438,26.1406 125.9844,27.1484 Q126.625,28.1563 127.8906,28.1563 Q128.4844,28.1563 129.0469,27.8984 Q129.6094,27.6406 130.2031,27.0938 L130.2031,29.6563 Z "/><text fill="#19273C" font-family="sans-serif" font-size="16" lengthAdjust="spacingAndGlyphs" textLength="71" x="148.25" y="29.5391">FileWallet</text><line style="stroke: #E3ECEC; stroke-width: 1.5;" x1="7" x2="328" y1="40" y2="40"/><line style="stroke: #E3ECEC; stroke-width: 1.5;" x1="7" x2="328" y1="48" y2="48"/><ellipse cx="17" cy="62.3125" fill="#84BE84" rx="3" ry="3" style="stroke: #038048; stroke-width: 1.0;"/><text fill="#19273C" font-family="sans-serif" font-size="16" lengthAdjust="spacingAndGlyphs" textLength="205" x="26" y="66.8516">string getHomeDirectory()</text><ellipse cx="17" cy="80.9375" fill="#84BE84" rx="3" ry="3" style="stroke: #038048; stroke-width: 1.0;"/><text fill="#19273C" font-family="sans-serif" font-size="16" lengthAdjust="spacingAndGlyphs" textLength="297" x="26" y="85.4766">void constructor(Object,string,Object)</text><ellipse cx="17" cy="99.5625" fill="#84BE84" rx="3" ry="3" style="stroke: #038048; stroke-width: 1.0;"/><text fill="#19273C" font-family="sans-serif" font-size="16" lengthAdjust="spacingAndGlyphs" textLength="101" x="26" y="104.1016">Promise list()</text><ellipse cx="17" cy="118.1875" fill="#84BE84" rx="3" ry="3" style="stroke: #038048; stroke-width: 1.0;"/><text fill="#19273C" font-family="sans-serif" font-size="16" lengthAdjust="spacingAndGlyphs" textLength="191" x="26" y="122.7266">Promise contains(string)</text><ellipse cx="17" cy="136.8125" fill="#84BE84" rx="3" ry="3" style="stroke: #038048; stroke-width: 1.0;"/><text fill="#19273C" font-family="sans-serif" font-size="16" lengthAdjust="spacingAndGlyphs" textLength="150" x="26" y="141.3516">Promise get(string)</text><ellipse cx="17" cy="155.4375" fill="#84BE84" rx="3" ry="3" style="stroke: #038048; stroke-width: 1.0;"/><text fill="#19273C" font-family="sans-serif" font-size="16" lengthAdjust="spacingAndGlyphs" textLength="204" x="26" y="159.9766">Promise add(string,string)</text><ellipse cx="17" cy="174.0625" fill="#84BE84" rx="3" ry="3" style="stroke: #038048; stroke-width: 1.0;"/><text fill="#19273C" font-family="sans-serif" font-size="16" lengthAdjust="spacingAndGlyphs" textLength="229" x="26" y="178.6016">Promise update(string,string)</text><ellipse cx="17" cy="192.6875" fill="#84BE84" rx="3" ry="3" style="stroke: #038048; stroke-width: 1.0;"/><text fill="#19273C" font-family="sans-serif" font-size="16" lengthAdjust="spacingAndGlyphs" textLength="184" x="26" y="197.2266">Promise remove(string)</text><path d="M167.5,205.36 C167.5,218.172 167.5,231.407 167.5,244.507 " fill="none" style="stroke: #3C6DF0; stroke-width: 1.0;"/><polygon fill="none" points="174.5,244.902,167.5,264.901,160.5,244.901,174.5,244.902" style="stroke: #3C6DF0; stroke-width: 1.0;"/></g></svg>