<?xml version="1.0" encoding="UTF-8" standalone="no"?><svg xmlns="http://www.w3.org/2000/svg" xmlns:xlink="http://www.w3.org/1999/xlink" contentScriptType="application/ecmascript" contentStyleType="text/css" height="184px" preserveAspectRatio="none" style="width:587px;height:184px;" version="1.1" viewBox="0 0 587 184" width="587px" zoomAndPan="magnify"><defs/><g><!--class Historian--><rect fill="#F8FAFA" height="66.625" rx="1" ry="1" style="stroke: #E3ECEC; stroke-width: 1.5;" width="580" x="6" y="8"/><ellipse cx="257.25" cy="24" fill="#FFFFFF" rx="11" ry="11" style="stroke: #E3ECEC; stroke-width: 1.0;"/><path d="M259.7031,29.6563 Q259.1563,29.9375 258.5547,30.0859 Q257.9531,30.2344 257.2813,30.2344 Q254.9219,30.2344 253.6797,28.6719 Q252.4375,27.1094 252.4375,24.1719 Q252.4375,21.2344 253.6797,19.6797 Q254.9219,18.125 257.2813,18.125 Q257.9531,18.125 258.5625,18.2656 Q259.1719,18.4063 259.7031,18.6875 L259.7031,21.25 Q259.1094,20.7031 258.5469,20.4453 Q257.9844,20.1875 257.3906,20.1875 Q256.125,20.1875 255.4844,21.1953 Q254.8438,22.2031 254.8438,24.1719 Q254.8438,26.1406 255.4844,27.1484 Q256.125,28.1563 257.3906,28.1563 Q257.9844,28.1563 258.5469,27.8984 Q259.1094,27.6406 259.7031,27.0938 L259.7031,29.6563 Z "/><text fill="#19273C" font-family="sans-serif" font-size="16" lengthAdjust="spacingAndGlyphs" textLength="69" x="277.75" y="29.5391">Historian</text><line style="stroke: #E3ECEC; stroke-width: 1.5;" x1="7" x2="585" y1="40" y2="40"/><line style="stroke: #E3ECEC; stroke-width: 1.5;" x1="7" x2="585" y1="48" y2="48"/><ellipse cx="17" cy="62.3125" fill="#84BE84" rx="3" ry="3" style="stroke: #038048; stroke-width: 1.0;"/><text fill="#19273C" font-family="sans-serif" font-size="16" lengthAdjust="spacingAndGlyphs" textLength="554" x="26" y="66.8516">Promise getHistorian(SecurityContext,ModelManager,Factory,Serializer)</text><!--class Registry--><rect fill="#F8FAFA" height="48" rx="1" ry="1" style="stroke: #E3ECEC; stroke-width: 1.5;" width="96" x="248" y="135"/><ellipse cx="263" cy="151" fill="#FFFFFF" rx="11" ry="11" style="stroke: #E3ECEC; stroke-width: 1.0;"/><path d="M265.4531,156.6563 Q264.9063,156.9375 264.3047,157.0859 Q263.7031,157.2344 263.0313,157.2344 Q260.6719,157.2344 259.4297,155.6719 Q258.1875,154.1094 258.1875,151.1719 Q258.1875,148.2344 259.4297,146.6797 Q260.6719,145.125 263.0313,145.125 Q263.7031,145.125 264.3125,145.2656 Q264.9219,145.4063 265.4531,145.6875 L265.4531,148.25 Q264.8594,147.7031 264.2969,147.4453 Q263.7344,147.1875 263.1406,147.1875 Q261.875,147.1875 261.2344,148.1953 Q260.5938,149.2031 260.5938,151.1719 Q260.5938,153.1406 261.2344,154.1484 Q261.875,155.1563 263.1406,155.1563 Q263.7344,155.1563 264.2969,154.8984 Q264.8594,154.6406 265.4531,154.0938 L265.4531,156.6563 Z "/><text fill="#19273C" font-family="sans-serif" font-size="16" lengthAdjust="spacingAndGlyphs" textLength="64" x="277" y="156.5391">Registry</text><line style="stroke: #E3ECEC; stroke-width: 1.5;" x1="249" x2="343" y1="167" y2="167"/><line style="stroke: #E3ECEC; stroke-width: 1.5;" x1="249" x2="343" y1="175" y2="175"/><path d="M296,75.289 C296,87.4227 296,101.3772 296,114.3262 " fill="none" style="stroke: #3C6DF0; stroke-width: 1.0;"/><polygon fill="none" points="303,114.6703,296,134.6703,289,114.6703,303,114.6703" style="stroke: #3C6DF0; stroke-width: 1.0;"/></g></svg>