<?xml version="1.0" encoding="UTF-8" standalone="no"?><svg xmlns="http://www.w3.org/2000/svg" xmlns:xlink="http://www.w3.org/1999/xlink" contentScriptType="application/ecmascript" contentStyleType="text/css" height="184px" preserveAspectRatio="none" style="width:220px;height:184px;" version="1.1" viewBox="0 0 220 184" width="220px" zoomAndPan="magnify"><defs/><g><!--class SecurityException--><rect fill="#F8FAFA" height="66.625" rx="1" ry="1" style="stroke: #E3ECEC; stroke-width: 1.5;" width="213" x="6" y="8"/><ellipse cx="39.45" cy="24" fill="#FFFFFF" rx="11" ry="11" style="stroke: #E3ECEC; stroke-width: 1.0;"/><path d="M41.9031,29.6563 Q41.3563,29.9375 40.7547,30.0859 Q40.1531,30.2344 39.4813,30.2344 Q37.1219,30.2344 35.8797,28.6719 Q34.6375,27.1094 34.6375,24.1719 Q34.6375,21.2344 35.8797,19.6797 Q37.1219,18.125 39.4813,18.125 Q40.1531,18.125 40.7625,18.2656 Q41.3719,18.4063 41.9031,18.6875 L41.9031,21.25 Q41.3094,20.7031 40.7469,20.4453 Q40.1844,20.1875 39.5906,20.1875 Q38.325,20.1875 37.6844,21.1953 Q37.0438,22.2031 37.0438,24.1719 Q37.0438,26.1406 37.6844,27.1484 Q38.325,28.1563 39.5906,28.1563 Q40.1844,28.1563 40.7469,27.8984 Q41.3094,27.6406 41.9031,27.0938 L41.9031,29.6563 Z "/><text fill="#19273C" font-family="sans-serif" font-size="16" lengthAdjust="spacingAndGlyphs" textLength="140" x="57.55" y="29.5391">SecurityException</text><line style="stroke: #E3ECEC; stroke-width: 1.5;" x1="7" x2="218" y1="40" y2="40"/><line style="stroke: #E3ECEC; stroke-width: 1.5;" x1="7" x2="218" y1="48" y2="48"/><ellipse cx="17" cy="62.3125" fill="#84BE84" rx="3" ry="3" style="stroke: #038048; stroke-width: 1.0;"/><text fill="#19273C" font-family="sans-serif" font-size="16" lengthAdjust="spacingAndGlyphs" textLength="187" x="26" y="66.8516">void constructor(string)</text><!--class BaseException--><rect fill="#F8FAFA" height="48" rx="1" ry="1" style="stroke: #E3ECEC; stroke-width: 1.5;" width="147" x="39" y="135"/><ellipse cx="54" cy="151" fill="#FFFFFF" rx="11" ry="11" style="stroke: #E3ECEC; stroke-width: 1.0;"/><path d="M56.4531,156.6563 Q55.9063,156.9375 55.3047,157.0859 Q54.7031,157.2344 54.0313,157.2344 Q51.6719,157.2344 50.4297,155.6719 Q49.1875,154.1094 49.1875,151.1719 Q49.1875,148.2344 50.4297,146.6797 Q51.6719,145.125 54.0313,145.125 Q54.7031,145.125 55.3125,145.2656 Q55.9219,145.4063 56.4531,145.6875 L56.4531,148.25 Q55.8594,147.7031 55.2969,147.4453 Q54.7344,147.1875 54.1406,147.1875 Q52.875,147.1875 52.2344,148.1953 Q51.5938,149.2031 51.5938,151.1719 Q51.5938,153.1406 52.2344,154.1484 Q52.875,155.1563 54.1406,155.1563 Q54.7344,155.1563 55.2969,154.8984 Q55.8594,154.6406 56.4531,154.0938 L56.4531,156.6563 Z "/><text fill="#19273C" font-family="sans-serif" font-size="16" lengthAdjust="spacingAndGlyphs" textLength="115" x="68" y="156.5391">BaseException</text><line style="stroke: #E3ECEC; stroke-width: 1.5;" x1="40" x2="185" y1="167" y2="167"/><line style="stroke: #E3ECEC; stroke-width: 1.5;" x1="40" x2="185" y1="175" y2="175"/><path d="M112.5,75.289 C112.5,87.4227 112.5,101.3772 112.5,114.3262 " fill="none" style="stroke: #3C6DF0; stroke-width: 1.0;"/><polygon fill="none" points="119.5,114.6703,112.5,134.6703,105.5001,114.6703,119.5,114.6703" style="stroke: #3C6DF0; stroke-width: 1.0;"/></g></svg>