<?xml version="1.0" encoding="UTF-8" standalone="no"?><svg xmlns="http://www.w3.org/2000/svg" xmlns:xlink="http://www.w3.org/1999/xlink" contentScriptType="application/ecmascript" contentStyleType="text/css" height="441px" preserveAspectRatio="none" style="width:1735px;height:441px;" version="1.1" viewBox="0 0 1735 441" width="1735px" zoomAndPan="magnify"><defs/><g><!--class Relationship--><rect fill="#F8FAFA" height="103.875" rx="1" ry="1" style="stroke: #E3ECEC; stroke-width: 1.5;" width="467" x="6" y="228"/><ellipse cx="188.75" cy="244" fill="#FFFFFF" rx="11" ry="11" style="stroke: #E3ECEC; stroke-width: 1.0;"/><path d="M191.2031,249.6563 Q190.6563,249.9375 190.0547,250.0859 Q189.4531,250.2344 188.7813,250.2344 Q186.4219,250.2344 185.1797,248.6719 Q183.9375,247.1094 183.9375,244.1719 Q183.9375,241.2344 185.1797,239.6797 Q186.4219,238.125 188.7813,238.125 Q189.4531,238.125 190.0625,238.2656 Q190.6719,238.4063 191.2031,238.6875 L191.2031,241.25 Q190.6094,240.7031 190.0469,240.4453 Q189.4844,240.1875 188.8906,240.1875 Q187.625,240.1875 186.9844,241.1953 Q186.3438,242.2031 186.3438,244.1719 Q186.3438,246.1406 186.9844,247.1484 Q187.625,248.1563 188.8906,248.1563 Q189.4844,248.1563 190.0469,247.8984 Q190.6094,247.6406 191.2031,247.0938 L191.2031,249.6563 Z "/><text fill="#19273C" font-family="sans-serif" font-size="16" lengthAdjust="spacingAndGlyphs" textLength="93" x="209.25" y="249.5391">Relationship</text><line style="stroke: #E3ECEC; stroke-width: 1.5;" x1="7" x2="472" y1="260" y2="260"/><line style="stroke: #E3ECEC; stroke-width: 1.5;" x1="7" x2="472" y1="268" y2="268"/><ellipse cx="17" cy="282.3125" fill="#84BE84" rx="3" ry="3" style="stroke: #038048; stroke-width: 1.0;"/><text fill="#19273C" font-family="sans-serif" font-size="16" lengthAdjust="spacingAndGlyphs" textLength="125" x="26" y="286.8516">String toString()</text><ellipse cx="17" cy="300.9375" fill="#84BE84" rx="3" ry="3" style="stroke: #038048; stroke-width: 1.0;"/><text fill="#19273C" font-family="sans-serif" font-size="16" lengthAdjust="spacingAndGlyphs" textLength="183" x="26" y="305.4766">boolean isRelationship()</text><ellipse cx="17" cy="319.5625" fill="#84BE84" rx="3" ry="3" style="stroke: #038048; stroke-width: 1.0;"/><text fill="#19273C" font-family="sans-serif" font-size="16" lengthAdjust="spacingAndGlyphs" textLength="441" x="26" y="324.1016">Relationship fromURI(ModelManager,String,String,String)</text><!--class Identifiable--><rect fill="#F8FAFA" height="48" rx="1" ry="1" style="stroke: #E3ECEC; stroke-width: 1.5;" width="115" x="364" y="392"/><ellipse cx="379" cy="408" fill="#FFFFFF" rx="11" ry="11" style="stroke: #E3ECEC; stroke-width: 1.0;"/><path d="M381.4531,413.6563 Q380.9063,413.9375 380.3047,414.0859 Q379.7031,414.2344 379.0313,414.2344 Q376.6719,414.2344 375.4297,412.6719 Q374.1875,411.1094 374.1875,408.1719 Q374.1875,405.2344 375.4297,403.6797 Q376.6719,402.125 379.0313,402.125 Q379.7031,402.125 380.3125,402.2656 Q380.9219,402.4063 381.4531,402.6875 L381.4531,405.25 Q380.8594,404.7031 380.2969,404.4453 Q379.7344,404.1875 379.1406,404.1875 Q377.875,404.1875 377.2344,405.1953 Q376.5938,406.2031 376.5938,408.1719 Q376.5938,410.1406 377.2344,411.1484 Q377.875,412.1563 379.1406,412.1563 Q379.7344,412.1563 380.2969,411.8984 Q380.8594,411.6406 381.4531,411.0938 L381.4531,413.6563 Z "/><text fill="#19273C" font-family="sans-serif" font-size="16" lengthAdjust="spacingAndGlyphs" textLength="83" x="393" y="413.5391">Identifiable</text><line style="stroke: #E3ECEC; stroke-width: 1.5;" x1="365" x2="478" y1="424" y2="424"/><line style="stroke: #E3ECEC; stroke-width: 1.5;" x1="365" x2="478" y1="432" y2="432"/><!--class Resource--><rect fill="#F8FAFA" height="85.25" rx="1" ry="1" style="stroke: #E3ECEC; stroke-width: 1.5;" width="190" x="508.5" y="237.5"/><ellipse cx="562.25" cy="253.5" fill="#FFFFFF" rx="11" ry="11" style="stroke: #E3ECEC; stroke-width: 1.0;"/><path d="M564.7031,259.1563 Q564.1563,259.4375 563.5547,259.5859 Q562.9531,259.7344 562.2813,259.7344 Q559.9219,259.7344 558.6797,258.1719 Q557.4375,256.6094 557.4375,253.6719 Q557.4375,250.7344 558.6797,249.1797 Q559.9219,247.625 562.2813,247.625 Q562.9531,247.625 563.5625,247.7656 Q564.1719,247.9063 564.7031,248.1875 L564.7031,250.75 Q564.1094,250.2031 563.5469,249.9453 Q562.9844,249.6875 562.3906,249.6875 Q561.125,249.6875 560.4844,250.6953 Q559.8438,251.7031 559.8438,253.6719 Q559.8438,255.6406 560.4844,256.6484 Q561.125,257.6563 562.3906,257.6563 Q562.9844,257.6563 563.5469,257.3984 Q564.1094,257.1406 564.7031,256.5938 L564.7031,259.1563 Z "/><text fill="#19273C" font-family="sans-serif" font-size="16" lengthAdjust="spacingAndGlyphs" textLength="74" x="582.75" y="259.0391">Resource</text><line style="stroke: #E3ECEC; stroke-width: 1.5;" x1="509.5" x2="697.5" y1="269.5" y2="269.5"/><line style="stroke: #E3ECEC; stroke-width: 1.5;" x1="509.5" x2="697.5" y1="277.5" y2="277.5"/><ellipse cx="519.5" cy="291.8125" fill="#84BE84" rx="3" ry="3" style="stroke: #038048; stroke-width: 1.0;"/><text fill="#19273C" font-family="sans-serif" font-size="16" lengthAdjust="spacingAndGlyphs" textLength="125" x="528.5" y="296.3516">String toString()</text><ellipse cx="519.5" cy="310.4375" fill="#84BE84" rx="3" ry="3" style="stroke: #038048; stroke-width: 1.0;"/><text fill="#19273C" font-family="sans-serif" font-size="16" lengthAdjust="spacingAndGlyphs" textLength="164" x="528.5" y="314.9766">boolean isResource()</text><!--class ValidatedResource--><rect fill="#F8FAFA" height="103.875" rx="1" ry="1" style="stroke: #E3ECEC; stroke-width: 1.5;" width="304" x="451.5" y="36"/><ellipse cx="527.25" cy="52" fill="#FFFFFF" rx="11" ry="11" style="stroke: #E3ECEC; stroke-width: 1.0;"/><path d="M529.7031,57.6563 Q529.1563,57.9375 528.5547,58.0859 Q527.9531,58.2344 527.2813,58.2344 Q524.9219,58.2344 523.6797,56.6719 Q522.4375,55.1094 522.4375,52.1719 Q522.4375,49.2344 523.6797,47.6797 Q524.9219,46.125 527.2813,46.125 Q527.9531,46.125 528.5625,46.2656 Q529.1719,46.4063 529.7031,46.6875 L529.7031,49.25 Q529.1094,48.7031 528.5469,48.4453 Q527.9844,48.1875 527.3906,48.1875 Q526.125,48.1875 525.4844,49.1953 Q524.8438,50.2031 524.8438,52.1719 Q524.8438,54.1406 525.4844,55.1484 Q526.125,56.1563 527.3906,56.1563 Q527.9844,56.1563 528.5469,55.8984 Q529.1094,55.6406 529.7031,55.0938 L529.7031,57.6563 Z "/><text fill="#19273C" font-family="sans-serif" font-size="16" lengthAdjust="spacingAndGlyphs" textLength="144" x="547.75" y="57.5391">ValidatedResource</text><line style="stroke: #E3ECEC; stroke-width: 1.5;" x1="452.5" x2="754.5" y1="68" y2="68"/><line style="stroke: #E3ECEC; stroke-width: 1.5;" x1="452.5" x2="754.5" y1="76" y2="76"/><ellipse cx="462.5" cy="90.3125" fill="#84BE84" rx="3" ry="3" style="stroke: #038048; stroke-width: 1.0;"/><text fill="#19273C" font-family="sans-serif" font-size="16" lengthAdjust="spacingAndGlyphs" textLength="278" x="471.5" y="94.8516">void setPropertyValue(string,string)</text><ellipse cx="462.5" cy="108.9375" fill="#84BE84" rx="3" ry="3" style="stroke: #038048; stroke-width: 1.0;"/><text fill="#19273C" font-family="sans-serif" font-size="16" lengthAdjust="spacingAndGlyphs" textLength="258" x="471.5" y="113.4766">void addArrayValue(string,string)</text><ellipse cx="462.5" cy="127.5625" fill="#84BE84" rx="3" ry="3" style="stroke: #038048; stroke-width: 1.0;"/><text fill="#19273C" font-family="sans-serif" font-size="16" lengthAdjust="spacingAndGlyphs" textLength="107" x="471.5" y="132.1016">void validate()</text><!--class Concept--><rect fill="#F8FAFA" height="66.625" rx="1" ry="1" style="stroke: #E3ECEC; stroke-width: 1.5;" width="181" x="852" y="246.5"/><ellipse cx="905.75" cy="262.5" fill="#FFFFFF" rx="11" ry="11" style="stroke: #E3ECEC; stroke-width: 1.0;"/><path d="M908.2031,268.1563 Q907.6563,268.4375 907.0547,268.5859 Q906.4531,268.7344 905.7813,268.7344 Q903.4219,268.7344 902.1797,267.1719 Q900.9375,265.6094 900.9375,262.6719 Q900.9375,259.7344 902.1797,258.1797 Q903.4219,256.625 905.7813,256.625 Q906.4531,256.625 907.0625,256.7656 Q907.6719,256.9063 908.2031,257.1875 L908.2031,259.75 Q907.6094,259.2031 907.0469,258.9453 Q906.4844,258.6875 905.8906,258.6875 Q904.625,258.6875 903.9844,259.6953 Q903.3438,260.7031 903.3438,262.6719 Q903.3438,264.6406 903.9844,265.6484 Q904.625,266.6563 905.8906,266.6563 Q906.4844,266.6563 907.0469,266.3984 Q907.6094,266.1406 908.2031,265.5938 L908.2031,268.1563 Z "/><text fill="#19273C" font-family="sans-serif" font-size="16" lengthAdjust="spacingAndGlyphs" textLength="65" x="926.25" y="268.0391">Concept</text><line style="stroke: #E3ECEC; stroke-width: 1.5;" x1="853" x2="1032" y1="278.5" y2="278.5"/><line style="stroke: #E3ECEC; stroke-width: 1.5;" x1="853" x2="1032" y1="286.5" y2="286.5"/><ellipse cx="863" cy="300.8125" fill="#84BE84" rx="3" ry="3" style="stroke: #038048; stroke-width: 1.0;"/><text fill="#19273C" font-family="sans-serif" font-size="16" lengthAdjust="spacingAndGlyphs" textLength="155" x="872" y="305.3516">boolean isConcept()</text><!--class Typed--><rect fill="#F8FAFA" height="48" rx="1" ry="1" style="stroke: #E3ECEC; stroke-width: 1.5;" width="79" x="903" y="392"/><ellipse cx="918" cy="408" fill="#FFFFFF" rx="11" ry="11" style="stroke: #E3ECEC; stroke-width: 1.0;"/><path d="M920.4531,413.6563 Q919.9063,413.9375 919.3047,414.0859 Q918.7031,414.2344 918.0313,414.2344 Q915.6719,414.2344 914.4297,412.6719 Q913.1875,411.1094 913.1875,408.1719 Q913.1875,405.2344 914.4297,403.6797 Q915.6719,402.125 918.0313,402.125 Q918.7031,402.125 919.3125,402.2656 Q919.9219,402.4063 920.4531,402.6875 L920.4531,405.25 Q919.8594,404.7031 919.2969,404.4453 Q918.7344,404.1875 918.1406,404.1875 Q916.875,404.1875 916.2344,405.1953 Q915.5938,406.2031 915.5938,408.1719 Q915.5938,410.1406 916.2344,411.1484 Q916.875,412.1563 918.1406,412.1563 Q918.7344,412.1563 919.2969,411.8984 Q919.8594,411.6406 920.4531,411.0938 L920.4531,413.6563 Z "/><text fill="#19273C" font-family="sans-serif" font-size="16" lengthAdjust="spacingAndGlyphs" textLength="47" x="932" y="413.5391">Typed</text><line style="stroke: #E3ECEC; stroke-width: 1.5;" x1="904" x2="981" y1="424" y2="424"/><line style="stroke: #E3ECEC; stroke-width: 1.5;" x1="904" x2="981" y1="432" y2="432"/><!--class ValidatedConcept--><rect fill="#F8FAFA" height="103.875" rx="1" ry="1" style="stroke: #E3ECEC; stroke-width: 1.5;" width="304" x="790.5" y="36"/><ellipse cx="870.75" cy="52" fill="#FFFFFF" rx="11" ry="11" style="stroke: #E3ECEC; stroke-width: 1.0;"/><path d="M873.2031,57.6563 Q872.6563,57.9375 872.0547,58.0859 Q871.4531,58.2344 870.7813,58.2344 Q868.4219,58.2344 867.1797,56.6719 Q865.9375,55.1094 865.9375,52.1719 Q865.9375,49.2344 867.1797,47.6797 Q868.4219,46.125 870.7813,46.125 Q871.4531,46.125 872.0625,46.2656 Q872.6719,46.4063 873.2031,46.6875 L873.2031,49.25 Q872.6094,48.7031 872.0469,48.4453 Q871.4844,48.1875 870.8906,48.1875 Q869.625,48.1875 868.9844,49.1953 Q868.3438,50.2031 868.3438,52.1719 Q868.3438,54.1406 868.9844,55.1484 Q869.625,56.1563 870.8906,56.1563 Q871.4844,56.1563 872.0469,55.8984 Q872.6094,55.6406 873.2031,55.0938 L873.2031,57.6563 Z "/><text fill="#19273C" font-family="sans-serif" font-size="16" lengthAdjust="spacingAndGlyphs" textLength="135" x="891.25" y="57.5391">ValidatedConcept</text><line style="stroke: #E3ECEC; stroke-width: 1.5;" x1="791.5" x2="1093.5" y1="68" y2="68"/><line style="stroke: #E3ECEC; stroke-width: 1.5;" x1="791.5" x2="1093.5" y1="76" y2="76"/><ellipse cx="801.5" cy="90.3125" fill="#84BE84" rx="3" ry="3" style="stroke: #038048; stroke-width: 1.0;"/><text fill="#19273C" font-family="sans-serif" font-size="16" lengthAdjust="spacingAndGlyphs" textLength="278" x="810.5" y="94.8516">void setPropertyValue(string,string)</text><ellipse cx="801.5" cy="108.9375" fill="#84BE84" rx="3" ry="3" style="stroke: #038048; stroke-width: 1.0;"/><text fill="#19273C" font-family="sans-serif" font-size="16" lengthAdjust="spacingAndGlyphs" textLength="258" x="810.5" y="113.4766">void addArrayValue(string,string)</text><ellipse cx="801.5" cy="127.5625" fill="#84BE84" rx="3" ry="3" style="stroke: #038048; stroke-width: 1.0;"/><text fill="#19273C" font-family="sans-serif" font-size="16" lengthAdjust="spacingAndGlyphs" textLength="107" x="810.5" y="132.1016">void validate()</text><!--class Factory--><rect fill="#F8FAFA" height="159.75" rx="1" ry="1" style="stroke: #E3ECEC; stroke-width: 1.5;" width="605" x="1129" y="8"/><ellipse cx="1397.75" cy="24" fill="#FFFFFF" rx="11" ry="11" style="stroke: #E3ECEC; stroke-width: 1.0;"/><path d="M1400.2031,29.6563 Q1399.6563,29.9375 1399.0547,30.0859 Q1398.4531,30.2344 1397.7813,30.2344 Q1395.4219,30.2344 1394.1797,28.6719 Q1392.9375,27.1094 1392.9375,24.1719 Q1392.9375,21.2344 1394.1797,19.6797 Q1395.4219,18.125 1397.7813,18.125 Q1398.4531,18.125 1399.0625,18.2656 Q1399.6719,18.4063 1400.2031,18.6875 L1400.2031,21.25 Q1399.6094,20.7031 1399.0469,20.4453 Q1398.4844,20.1875 1397.8906,20.1875 Q1396.625,20.1875 1395.9844,21.1953 Q1395.3438,22.2031 1395.3438,24.1719 Q1395.3438,26.1406 1395.9844,27.1484 Q1396.625,28.1563 1397.8906,28.1563 Q1398.4844,28.1563 1399.0469,27.8984 Q1399.6094,27.6406 1400.2031,27.0938 L1400.2031,29.6563 Z "/><text fill="#19273C" font-family="sans-serif" font-size="16" lengthAdjust="spacingAndGlyphs" textLength="59" x="1418.25" y="29.5391">Factory</text><line style="stroke: #E3ECEC; stroke-width: 1.5;" x1="1130" x2="1733" y1="40" y2="40"/><line style="stroke: #E3ECEC; stroke-width: 1.5;" x1="1130" x2="1733" y1="48" y2="48"/><ellipse cx="1140" cy="62.3125" fill="#84BE84" rx="3" ry="3" style="stroke: #038048; stroke-width: 1.0;"/><text fill="#19273C" font-family="sans-serif" font-size="16" lengthAdjust="spacingAndGlyphs" textLength="254" x="1149" y="66.8516">void constructor(ModelManager)</text><ellipse cx="1140" cy="80.9375" fill="#84BE84" rx="3" ry="3" style="stroke: #038048; stroke-width: 1.0;"/><text fill="#19273C" font-family="sans-serif" font-size="16" lengthAdjust="spacingAndGlyphs" textLength="579" x="1149" y="85.4766">Resource newResource(string,string,string,Object,boolean,string,boolean)</text><ellipse cx="1140" cy="99.5625" fill="#84BE84" rx="3" ry="3" style="stroke: #038048; stroke-width: 1.0;"/><text fill="#19273C" font-family="sans-serif" font-size="16" lengthAdjust="spacingAndGlyphs" textLength="520" x="1149" y="104.1016">Resource newConcept(string,string,Object,boolean,string,boolean)</text><ellipse cx="1140" cy="118.1875" fill="#84BE84" rx="3" ry="3" style="stroke: #038048; stroke-width: 1.0;"/><text fill="#19273C" font-family="sans-serif" font-size="16" lengthAdjust="spacingAndGlyphs" textLength="380" x="1149" y="122.7266">Relationship newRelationship(string,string,string)</text><ellipse cx="1140" cy="136.8125" fill="#84BE84" rx="3" ry="3" style="stroke: #038048; stroke-width: 1.0;"/><text fill="#19273C" font-family="sans-serif" font-size="16" lengthAdjust="spacingAndGlyphs" textLength="530" x="1149" y="141.3516">Resource newTransaction(string,string,string,Object,string,boolean)</text><ellipse cx="1140" cy="155.4375" fill="#84BE84" rx="3" ry="3" style="stroke: #038048; stroke-width: 1.0;"/><text fill="#19273C" font-family="sans-serif" font-size="16" lengthAdjust="spacingAndGlyphs" textLength="483" x="1149" y="159.9766">Resource newEvent(string,string,string,Object,string,boolean)</text><path d="M308.826,332.042 C330.425,347.9448 353.754,365.1213 373.551,379.697 " fill="none" style="stroke: #3C6DF0; stroke-width: 1.0;"/><polygon fill="none" points="377.952,374.2442,389.907,391.7391,369.651,385.5181,377.952,374.2442" style="stroke: #3C6DF0; stroke-width: 1.0;"/><path d="M546.912,322.664 C521.973,341.0252 492.991,362.3638 469.174,379.8994 " fill="none" style="stroke: #3C6DF0; stroke-width: 1.0;"/><polygon fill="none" points="473.132,385.678,452.876,391.899,464.831,374.4041,473.132,385.678" style="stroke: #3C6DF0; stroke-width: 1.0;"/><path d="M603.5,140.166 C603.5,163.833 603.5,192.149 603.5,217.017 " fill="none" style="stroke: #3C6DF0; stroke-width: 1.0;"/><polygon fill="none" points="610.5,217.347,603.5,237.347,596.5,217.347,610.5,217.347" style="stroke: #3C6DF0; stroke-width: 1.0;"/><path d="M942.5,313.78 C942.5,331.25 942.5,352.9622 942.5,371.793 " fill="none" style="stroke: #3C6DF0; stroke-width: 1.0;"/><polygon fill="none" points="949.5,371.7977,942.5,391.7976,935.5,371.7976,949.5,371.7977" style="stroke: #3C6DF0; stroke-width: 1.0;"/><path d="M942.5,140.166 C942.5,166.792 942.5,199.301 942.5,226.166 " fill="none" style="stroke: #3C6DF0; stroke-width: 1.0;"/><polygon fill="none" points="949.5,226.281,942.5,246.281,935.5,226.281,949.5,226.281" style="stroke: #3C6DF0; stroke-width: 1.0;"/></g></svg>