<?xml version="1.0" encoding="UTF-8" standalone="no"?><svg xmlns="http://www.w3.org/2000/svg" xmlns:xlink="http://www.w3.org/1999/xlink" contentScriptType="application/ecmascript" contentStyleType="text/css" height="929px" preserveAspectRatio="none" style="width:4286px;height:929px;" version="1.1" viewBox="0 0 4286 929" width="4286px" zoomAndPan="magnify"><defs/><g><!--class Registry--><rect fill="#F8FAFA" height="346" rx="1" ry="1" style="stroke: #E3ECEC; stroke-width: 1.5;" width="927" x="1269.5" y="582"/><ellipse cx="1696.75" cy="598" fill="#FFFFFF" rx="11" ry="11" style="stroke: #E3ECEC; stroke-width: 1.0;"/><path d="M1699.2031,603.6563 Q1698.6563,603.9375 1698.0547,604.0859 Q1697.4531,604.2344 1696.7813,604.2344 Q1694.4219,604.2344 1693.1797,602.6719 Q1691.9375,601.1094 1691.9375,598.1719 Q1691.9375,595.2344 1693.1797,593.6797 Q1694.4219,592.125 1696.7813,592.125 Q1697.4531,592.125 1698.0625,592.2656 Q1698.6719,592.4063 1699.2031,592.6875 L1699.2031,595.25 Q1698.6094,594.7031 1698.0469,594.4453 Q1697.4844,594.1875 1696.8906,594.1875 Q1695.625,594.1875 1694.9844,595.1953 Q1694.3438,596.2031 1694.3438,598.1719 Q1694.3438,600.1406 1694.9844,601.1484 Q1695.625,602.1563 1696.8906,602.1563 Q1697.4844,602.1563 1698.0469,601.8984 Q1698.6094,601.6406 1699.2031,601.0938 L1699.2031,603.6563 Z "/><text fill="#19273C" font-family="sans-serif" font-size="16" lengthAdjust="spacingAndGlyphs" textLength="64" x="1717.25" y="603.5391">Registry</text><line style="stroke: #E3ECEC; stroke-width: 1.5;" x1="1270.5" x2="2195.5" y1="614" y2="614"/><line style="stroke: #E3ECEC; stroke-width: 1.5;" x1="1270.5" x2="2195.5" y1="622" y2="622"/><ellipse cx="1280.5" cy="636.3125" fill="#84BE84" rx="3" ry="3" style="stroke: #038048; stroke-width: 1.0;"/><text fill="#19273C" font-family="sans-serif" font-size="16" lengthAdjust="spacingAndGlyphs" textLength="439" x="1289.5" y="640.8516">Promise getAllRegistries(SecurityContext,string,boolean)</text><ellipse cx="1280.5" cy="654.9375" fill="#84BE84" rx="3" ry="3" style="stroke: #038048; stroke-width: 1.0;"/><text fill="#19273C" font-family="sans-serif" font-size="16" lengthAdjust="spacingAndGlyphs" textLength="394" x="1289.5" y="659.4766">Promise getRegistry(SecurityContext,string,string)</text><ellipse cx="1280.5" cy="673.5625" fill="#84BE84" rx="3" ry="3" style="stroke: #038048; stroke-width: 1.0;"/><text fill="#19273C" font-family="sans-serif" font-size="16" lengthAdjust="spacingAndGlyphs" textLength="415" x="1289.5" y="678.1016">Promise existsRegistry(SecurityContext,string,string)</text><ellipse cx="1280.5" cy="692.1875" fill="#84BE84" rx="3" ry="3" style="stroke: #038048; stroke-width: 1.0;"/><text fill="#19273C" font-family="sans-serif" font-size="16" lengthAdjust="spacingAndGlyphs" textLength="448" x="1289.5" y="696.7266">Promise addRegistry(SecurityContext,string,string,string)</text><ellipse cx="1280.5" cy="710.8125" fill="#84BE84" rx="3" ry="3" style="stroke: #038048; stroke-width: 1.0;"/><text fill="#19273C" font-family="sans-serif" font-size="16" lengthAdjust="spacingAndGlyphs" textLength="901" x="1289.5" y="715.3516">void constructor(string,string,string,SecurityContext,ModelManager,Factory,Serializer,BusinessNetworkConnection)</text><ellipse cx="1280.5" cy="729.4375" fill="#84BE84" rx="3" ry="3" style="stroke: #038048; stroke-width: 1.0;"/><text fill="#19273C" font-family="sans-serif" font-size="16" lengthAdjust="spacingAndGlyphs" textLength="212" x="1289.5" y="733.9766">Promise addAll(Resource[])</text><ellipse cx="1280.5" cy="748.0625" fill="#84BE84" rx="3" ry="3" style="stroke: #038048; stroke-width: 1.0;"/><text fill="#19273C" font-family="sans-serif" font-size="16" lengthAdjust="spacingAndGlyphs" textLength="183" x="1289.5" y="752.6016">Promise add(Resource)</text><ellipse cx="1280.5" cy="766.6875" fill="#84BE84" rx="3" ry="3" style="stroke: #038048; stroke-width: 1.0;"/><text fill="#19273C" font-family="sans-serif" font-size="16" lengthAdjust="spacingAndGlyphs" textLength="237" x="1289.5" y="771.2266">Promise updateAll(Resource[])</text><ellipse cx="1280.5" cy="785.3125" fill="#84BE84" rx="3" ry="3" style="stroke: #038048; stroke-width: 1.0;"/><text fill="#19273C" font-family="sans-serif" font-size="16" lengthAdjust="spacingAndGlyphs" textLength="208" x="1289.5" y="789.8516">Promise update(Resource)</text><ellipse cx="1280.5" cy="803.9375" fill="#84BE84" rx="3" ry="3" style="stroke: #038048; stroke-width: 1.0;"/><text fill="#19273C" font-family="sans-serif" font-size="16" lengthAdjust="spacingAndGlyphs" textLength="156" x="1289.5" y="808.4766">Promise removeAll()</text><ellipse cx="1280.5" cy="822.5625" fill="#84BE84" rx="3" ry="3" style="stroke: #038048; stroke-width: 1.0;"/><text fill="#19273C" font-family="sans-serif" font-size="16" lengthAdjust="spacingAndGlyphs" textLength="139" x="1289.5" y="827.1016">Promise remove()</text><ellipse cx="1280.5" cy="841.1875" fill="#84BE84" rx="3" ry="3" style="stroke: #038048; stroke-width: 1.0;"/><text fill="#19273C" font-family="sans-serif" font-size="16" lengthAdjust="spacingAndGlyphs" textLength="122" x="1289.5" y="845.7266">Promise getAll()</text><ellipse cx="1280.5" cy="859.8125" fill="#84BE84" rx="3" ry="3" style="stroke: #038048; stroke-width: 1.0;"/><text fill="#19273C" font-family="sans-serif" font-size="16" lengthAdjust="spacingAndGlyphs" textLength="150" x="1289.5" y="864.3516">Promise get(string)</text><ellipse cx="1280.5" cy="878.4375" fill="#84BE84" rx="3" ry="3" style="stroke: #038048; stroke-width: 1.0;"/><text fill="#19273C" font-family="sans-serif" font-size="16" lengthAdjust="spacingAndGlyphs" textLength="171" x="1289.5" y="882.9766">Promise exists(string)</text><ellipse cx="1280.5" cy="897.0625" fill="#84BE84" rx="3" ry="3" style="stroke: #038048; stroke-width: 1.0;"/><text fill="#19273C" font-family="sans-serif" font-size="16" lengthAdjust="spacingAndGlyphs" textLength="153" x="1289.5" y="901.6016">Promise resolveAll()</text><ellipse cx="1280.5" cy="915.6875" fill="#84BE84" rx="3" ry="3" style="stroke: #038048; stroke-width: 1.0;"/><text fill="#19273C" font-family="sans-serif" font-size="16" lengthAdjust="spacingAndGlyphs" textLength="181" x="1289.5" y="920.2266">Promise resolve(string)</text><!--class AssetRegistry--><rect fill="#F8FAFA" height="141.125" rx="1" ry="1" style="stroke: #E3ECEC; stroke-width: 1.5;" width="952" x="6" y="194.5"/><ellipse cx="423.75" cy="210.5" fill="#FFFFFF" rx="11" ry="11" style="stroke: #E3ECEC; stroke-width: 1.0;"/><path d="M426.2031,216.1563 Q425.6563,216.4375 425.0547,216.5859 Q424.4531,216.7344 423.7813,216.7344 Q421.4219,216.7344 420.1797,215.1719 Q418.9375,213.6094 418.9375,210.6719 Q418.9375,207.7344 420.1797,206.1797 Q421.4219,204.625 423.7813,204.625 Q424.4531,204.625 425.0625,204.7656 Q425.6719,204.9063 426.2031,205.1875 L426.2031,207.75 Q425.6094,207.2031 425.0469,206.9453 Q424.4844,206.6875 423.8906,206.6875 Q422.625,206.6875 421.9844,207.6953 Q421.3438,208.7031 421.3438,210.6719 Q421.3438,212.6406 421.9844,213.6484 Q422.625,214.6563 423.8906,214.6563 Q424.4844,214.6563 425.0469,214.3984 Q425.6094,214.1406 426.2031,213.5938 L426.2031,216.1563 Z "/><text fill="#19273C" font-family="sans-serif" font-size="16" lengthAdjust="spacingAndGlyphs" textLength="108" x="444.25" y="216.0391">AssetRegistry</text><line style="stroke: #E3ECEC; stroke-width: 1.5;" x1="7" x2="957" y1="226.5" y2="226.5"/><line style="stroke: #E3ECEC; stroke-width: 1.5;" x1="7" x2="957" y1="234.5" y2="234.5"/><ellipse cx="17" cy="248.8125" fill="#84BE84" rx="3" ry="3" style="stroke: #038048; stroke-width: 1.0;"/><text fill="#19273C" font-family="sans-serif" font-size="16" lengthAdjust="spacingAndGlyphs" textLength="918" x="26" y="253.3516">Promise getAllAssetRegistries(SecurityContext,ModelManager,Factory,Serializer,BusinessNetworkConnection,Boolean)</text><ellipse cx="17" cy="267.4375" fill="#84BE84" rx="3" ry="3" style="stroke: #038048; stroke-width: 1.0;"/><text fill="#19273C" font-family="sans-serif" font-size="16" lengthAdjust="spacingAndGlyphs" textLength="872" x="26" y="271.9766">Promise getAssetRegistry(SecurityContext,string,ModelManager,Factory,Serializer,BusinessNetworkConnection)</text><ellipse cx="17" cy="286.0625" fill="#84BE84" rx="3" ry="3" style="stroke: #038048; stroke-width: 1.0;"/><text fill="#19273C" font-family="sans-serif" font-size="16" lengthAdjust="spacingAndGlyphs" textLength="663" x="26" y="290.6016">Promise assetRegistryExists(SecurityContext,string,ModelManager,Factory,Serializer)</text><ellipse cx="17" cy="304.6875" fill="#84BE84" rx="3" ry="3" style="stroke: #038048; stroke-width: 1.0;"/><text fill="#19273C" font-family="sans-serif" font-size="16" lengthAdjust="spacingAndGlyphs" textLength="926" x="26" y="309.2266">Promise addAssetRegistry(SecurityContext,string,string,ModelManager,Factory,Serializer,BusinessNetworkConnection)</text><ellipse cx="17" cy="323.3125" fill="#84BE84" rx="3" ry="3" style="stroke: #038048; stroke-width: 1.0;"/><text fill="#19273C" font-family="sans-serif" font-size="16" lengthAdjust="spacingAndGlyphs" textLength="851" x="26" y="327.8516">void constructor(string,string,SecurityContext,ModelManager,Factory,Serializer,BusinessNetworkConnection)</text><!--class IdentityRegistry--><rect fill="#F8FAFA" height="66.625" rx="1" ry="1" style="stroke: #E3ECEC; stroke-width: 1.5;" width="633" x="993.5" y="231.5"/><ellipse cx="1244.75" cy="247.5" fill="#FFFFFF" rx="11" ry="11" style="stroke: #E3ECEC; stroke-width: 1.0;"/><path d="M1247.2031,253.1563 Q1246.6563,253.4375 1246.0547,253.5859 Q1245.4531,253.7344 1244.7813,253.7344 Q1242.4219,253.7344 1241.1797,252.1719 Q1239.9375,250.6094 1239.9375,247.6719 Q1239.9375,244.7344 1241.1797,243.1797 Q1242.4219,241.625 1244.7813,241.625 Q1245.4531,241.625 1246.0625,241.7656 Q1246.6719,241.9063 1247.2031,242.1875 L1247.2031,244.75 Q1246.6094,244.2031 1246.0469,243.9453 Q1245.4844,243.6875 1244.8906,243.6875 Q1243.625,243.6875 1242.9844,244.6953 Q1242.3438,245.7031 1242.3438,247.6719 Q1242.3438,249.6406 1242.9844,250.6484 Q1243.625,251.6563 1244.8906,251.6563 Q1245.4844,251.6563 1246.0469,251.3984 Q1246.6094,251.1406 1247.2031,250.5938 L1247.2031,253.1563 Z "/><text fill="#19273C" font-family="sans-serif" font-size="16" lengthAdjust="spacingAndGlyphs" textLength="122" x="1265.25" y="253.0391">IdentityRegistry</text><line style="stroke: #E3ECEC; stroke-width: 1.5;" x1="994.5" x2="1625.5" y1="263.5" y2="263.5"/><line style="stroke: #E3ECEC; stroke-width: 1.5;" x1="994.5" x2="1625.5" y1="271.5" y2="271.5"/><ellipse cx="1004.5" cy="285.8125" fill="#84BE84" rx="3" ry="3" style="stroke: #038048; stroke-width: 1.0;"/><text fill="#19273C" font-family="sans-serif" font-size="16" lengthAdjust="spacingAndGlyphs" textLength="607" x="1013.5" y="290.3516">Promise getIdentityRegistry(SecurityContext,ModelManager,Factory,Serializer)</text><!--class ParticipantRegistry--><rect fill="#F8FAFA" height="141.125" rx="1" ry="1" style="stroke: #E3ECEC; stroke-width: 1.5;" width="990" x="1662" y="194.5"/><ellipse cx="2079.75" cy="210.5" fill="#FFFFFF" rx="11" ry="11" style="stroke: #E3ECEC; stroke-width: 1.0;"/><path d="M2082.2031,216.1563 Q2081.6563,216.4375 2081.0547,216.5859 Q2080.4531,216.7344 2079.7813,216.7344 Q2077.4219,216.7344 2076.1797,215.1719 Q2074.9375,213.6094 2074.9375,210.6719 Q2074.9375,207.7344 2076.1797,206.1797 Q2077.4219,204.625 2079.7813,204.625 Q2080.4531,204.625 2081.0625,204.7656 Q2081.6719,204.9063 2082.2031,205.1875 L2082.2031,207.75 Q2081.6094,207.2031 2081.0469,206.9453 Q2080.4844,206.6875 2079.8906,206.6875 Q2078.625,206.6875 2077.9844,207.6953 Q2077.3438,208.7031 2077.3438,210.6719 Q2077.3438,212.6406 2077.9844,213.6484 Q2078.625,214.6563 2079.8906,214.6563 Q2080.4844,214.6563 2081.0469,214.3984 Q2081.6094,214.1406 2082.2031,213.5938 L2082.2031,216.1563 Z "/><text fill="#19273C" font-family="sans-serif" font-size="16" lengthAdjust="spacingAndGlyphs" textLength="146" x="2100.25" y="216.0391">ParticipantRegistry</text><line style="stroke: #E3ECEC; stroke-width: 1.5;" x1="1663" x2="2651" y1="226.5" y2="226.5"/><line style="stroke: #E3ECEC; stroke-width: 1.5;" x1="1663" x2="2651" y1="234.5" y2="234.5"/><ellipse cx="1673" cy="248.8125" fill="#84BE84" rx="3" ry="3" style="stroke: #038048; stroke-width: 1.0;"/><text fill="#19273C" font-family="sans-serif" font-size="16" lengthAdjust="spacingAndGlyphs" textLength="956" x="1682" y="253.3516">Promise getAllParticipantRegistries(SecurityContext,ModelManager,Factory,Serializer,BusinessNetworkConnection,Boolean)</text><ellipse cx="1673" cy="267.4375" fill="#84BE84" rx="3" ry="3" style="stroke: #038048; stroke-width: 1.0;"/><text fill="#19273C" font-family="sans-serif" font-size="16" lengthAdjust="spacingAndGlyphs" textLength="910" x="1682" y="271.9766">Promise getParticipantRegistry(SecurityContext,string,ModelManager,Factory,Serializer,BusinessNetworkConnection)</text><ellipse cx="1673" cy="286.0625" fill="#84BE84" rx="3" ry="3" style="stroke: #038048; stroke-width: 1.0;"/><text fill="#19273C" font-family="sans-serif" font-size="16" lengthAdjust="spacingAndGlyphs" textLength="932" x="1682" y="290.6016">Promise participantRegistryExists(SecurityContext,string,ModelManager,Factory,Serializer,BusinessNetworkConnection)</text><ellipse cx="1673" cy="304.6875" fill="#84BE84" rx="3" ry="3" style="stroke: #038048; stroke-width: 1.0;"/><text fill="#19273C" font-family="sans-serif" font-size="16" lengthAdjust="spacingAndGlyphs" textLength="964" x="1682" y="309.2266">Promise addParticipantRegistry(SecurityContext,string,string,ModelManager,Factory,Serializer,BusinessNetworkConnection)</text><ellipse cx="1673" cy="323.3125" fill="#84BE84" rx="3" ry="3" style="stroke: #038048; stroke-width: 1.0;"/><text fill="#19273C" font-family="sans-serif" font-size="16" lengthAdjust="spacingAndGlyphs" textLength="851" x="1682" y="327.8516">void constructor(string,string,SecurityContext,ModelManager,Factory,Serializer,BusinessNetworkConnection)</text><!--class Query--><rect fill="#F8FAFA" height="48" rx="1" ry="1" style="stroke: #E3ECEC; stroke-width: 1.5;" width="80" x="3714" y="241"/><ellipse cx="3729" cy="257" fill="#FFFFFF" rx="11" ry="11" style="stroke: #E3ECEC; stroke-width: 1.0;"/><path d="M3731.4531,262.6563 Q3730.9063,262.9375 3730.3047,263.0859 Q3729.7031,263.2344 3729.0313,263.2344 Q3726.6719,263.2344 3725.4297,261.6719 Q3724.1875,260.1094 3724.1875,257.1719 Q3724.1875,254.2344 3725.4297,252.6797 Q3726.6719,251.125 3729.0313,251.125 Q3729.7031,251.125 3730.3125,251.2656 Q3730.9219,251.4063 3731.4531,251.6875 L3731.4531,254.25 Q3730.8594,253.7031 3730.2969,253.4453 Q3729.7344,253.1875 3729.1406,253.1875 Q3727.875,253.1875 3727.2344,254.1953 Q3726.5938,255.2031 3726.5938,257.1719 Q3726.5938,259.1406 3727.2344,260.1484 Q3727.875,261.1563 3729.1406,261.1563 Q3729.7344,261.1563 3730.2969,260.8984 Q3730.8594,260.6406 3731.4531,260.0938 L3731.4531,262.6563 Z "/><text fill="#19273C" font-family="sans-serif" font-size="16" lengthAdjust="spacingAndGlyphs" textLength="48" x="3743" y="262.5391">Query</text><line style="stroke: #E3ECEC; stroke-width: 1.5;" x1="3715" x2="3793" y1="273" y2="273"/><line style="stroke: #E3ECEC; stroke-width: 1.5;" x1="3715" x2="3793" y1="281" y2="281"/><!--class TransactionRegistry--><rect fill="#F8FAFA" height="122.5" rx="1" ry="1" style="stroke: #E3ECEC; stroke-width: 1.5;" width="991" x="2687.5" y="203.5"/><ellipse cx="3101.25" cy="219.5" fill="#FFFFFF" rx="11" ry="11" style="stroke: #E3ECEC; stroke-width: 1.0;"/><path d="M3103.7031,225.1563 Q3103.1563,225.4375 3102.5547,225.5859 Q3101.9531,225.7344 3101.2813,225.7344 Q3098.9219,225.7344 3097.6797,224.1719 Q3096.4375,222.6094 3096.4375,219.6719 Q3096.4375,216.7344 3097.6797,215.1797 Q3098.9219,213.625 3101.2813,213.625 Q3101.9531,213.625 3102.5625,213.7656 Q3103.1719,213.9063 3103.7031,214.1875 L3103.7031,216.75 Q3103.1094,216.2031 3102.5469,215.9453 Q3101.9844,215.6875 3101.3906,215.6875 Q3100.125,215.6875 3099.4844,216.6953 Q3098.8438,217.7031 3098.8438,219.6719 Q3098.8438,221.6406 3099.4844,222.6484 Q3100.125,223.6563 3101.3906,223.6563 Q3101.9844,223.6563 3102.5469,223.3984 Q3103.1094,223.1406 3103.7031,222.5938 L3103.7031,225.1563 Z "/><text fill="#19273C" font-family="sans-serif" font-size="16" lengthAdjust="spacingAndGlyphs" textLength="155" x="3121.75" y="225.0391">TransactionRegistry</text><line style="stroke: #E3ECEC; stroke-width: 1.5;" x1="2688.5" x2="3677.5" y1="235.5" y2="235.5"/><line style="stroke: #E3ECEC; stroke-width: 1.5;" x1="2688.5" x2="3677.5" y1="243.5" y2="243.5"/><ellipse cx="2698.5" cy="257.8125" fill="#84BE84" rx="3" ry="3" style="stroke: #038048; stroke-width: 1.0;"/><text fill="#19273C" font-family="sans-serif" font-size="16" lengthAdjust="spacingAndGlyphs" textLength="965" x="2707.5" y="262.3516">Promise getAllTransactionRegistries(SecurityContext,ModelManager,Factory,Serializer,BusinessNetworkConnection,Boolean)</text><ellipse cx="2698.5" cy="276.4375" fill="#84BE84" rx="3" ry="3" style="stroke: #038048; stroke-width: 1.0;"/><text fill="#19273C" font-family="sans-serif" font-size="16" lengthAdjust="spacingAndGlyphs" textLength="690" x="2707.5" y="280.9766">Promise getTransactionRegistry(SecurityContext,string,ModelManager,Factory,Serializer)</text><ellipse cx="2698.5" cy="295.0625" fill="#84BE84" rx="3" ry="3" style="stroke: #038048; stroke-width: 1.0;"/><text fill="#19273C" font-family="sans-serif" font-size="16" lengthAdjust="spacingAndGlyphs" textLength="744" x="2707.5" y="299.6016">Promise addTransactionRegistry(SecurityContext,string,string,ModelManager,Factory,Serializer)</text><ellipse cx="2698.5" cy="313.6875" fill="#84BE84" rx="3" ry="3" style="stroke: #038048; stroke-width: 1.0;"/><text fill="#19273C" font-family="sans-serif" font-size="16" lengthAdjust="spacingAndGlyphs" textLength="709" x="2707.5" y="318.2266">Promise transactionRegistryExists(SecurityContext,string,ModelManager,Factory,Serializer)</text><!--class BusinessNetworkConnection--><rect fill="#F8FAFA" height="513.625" rx="1" ry="1" style="stroke: #E3ECEC; stroke-width: 1.5;" width="456" x="3829" y="8"/><ellipse cx="3940.75" cy="24" fill="#FFFFFF" rx="11" ry="11" style="stroke: #E3ECEC; stroke-width: 1.0;"/><path d="M3943.2031,29.6563 Q3942.6563,29.9375 3942.0547,30.0859 Q3941.4531,30.2344 3940.7813,30.2344 Q3938.4219,30.2344 3937.1797,28.6719 Q3935.9375,27.1094 3935.9375,24.1719 Q3935.9375,21.2344 3937.1797,19.6797 Q3938.4219,18.125 3940.7813,18.125 Q3941.4531,18.125 3942.0625,18.2656 Q3942.6719,18.4063 3943.2031,18.6875 L3943.2031,21.25 Q3942.6094,20.7031 3942.0469,20.4453 Q3941.4844,20.1875 3940.8906,20.1875 Q3939.625,20.1875 3938.9844,21.1953 Q3938.3438,22.2031 3938.3438,24.1719 Q3938.3438,26.1406 3938.9844,27.1484 Q3939.625,28.1563 3940.8906,28.1563 Q3941.4844,28.1563 3942.0469,27.8984 Q3942.6094,27.6406 3943.2031,27.0938 L3943.2031,29.6563 Z "/><text fill="#19273C" font-family="sans-serif" font-size="16" lengthAdjust="spacingAndGlyphs" textLength="224" x="3961.25" y="29.5391">BusinessNetworkConnection</text><line style="stroke: #E3ECEC; stroke-width: 1.5;" x1="3830" x2="4284" y1="40" y2="40"/><line style="stroke: #E3ECEC; stroke-width: 1.5;" x1="3830" x2="4284" y1="48" y2="48"/><ellipse cx="3840" cy="62.3125" fill="#84BE84" rx="3" ry="3" style="stroke: #038048; stroke-width: 1.0;"/><text fill="#19273C" font-family="sans-serif" font-size="16" lengthAdjust="spacingAndGlyphs" textLength="430" x="3849" y="66.8516">void constructor(Object,ConnectionProfileStore,Object)</text><ellipse cx="3840" cy="80.9375" fill="#84BE84" rx="3" ry="3" style="stroke: #038048; stroke-width: 1.0;"/><text fill="#19273C" font-family="sans-serif" font-size="16" lengthAdjust="spacingAndGlyphs" textLength="386" x="3849" y="85.4766">BusinessNetworkDefinition getBusinessNetwork()</text><ellipse cx="3840" cy="99.5625" fill="#84BE84" rx="3" ry="3" style="stroke: #038048; stroke-width: 1.0;"/><text fill="#19273C" font-family="sans-serif" font-size="16" lengthAdjust="spacingAndGlyphs" textLength="303" x="3849" y="104.1016">Promise getAllAssetRegistries(boolean)</text><ellipse cx="3840" cy="118.1875" fill="#84BE84" rx="3" ry="3" style="stroke: #038048; stroke-width: 1.0;"/><text fill="#19273C" font-family="sans-serif" font-size="16" lengthAdjust="spacingAndGlyphs" textLength="258" x="3849" y="122.7266">Promise getAssetRegistry(string)</text><ellipse cx="3840" cy="136.8125" fill="#84BE84" rx="3" ry="3" style="stroke: #038048; stroke-width: 1.0;"/><text fill="#19273C" font-family="sans-serif" font-size="16" lengthAdjust="spacingAndGlyphs" textLength="278" x="3849" y="141.3516">Promise assetRegistryExists(string)</text><ellipse cx="3840" cy="155.4375" fill="#84BE84" rx="3" ry="3" style="stroke: #038048; stroke-width: 1.0;"/><text fill="#19273C" font-family="sans-serif" font-size="16" lengthAdjust="spacingAndGlyphs" textLength="312" x="3849" y="159.9766">Promise addAssetRegistry(string,string)</text><ellipse cx="3840" cy="174.0625" fill="#84BE84" rx="3" ry="3" style="stroke: #038048; stroke-width: 1.0;"/><text fill="#19273C" font-family="sans-serif" font-size="16" lengthAdjust="spacingAndGlyphs" textLength="341" x="3849" y="178.6016">Promise getAllParticipantRegistries(boolean)</text><ellipse cx="3840" cy="192.6875" fill="#84BE84" rx="3" ry="3" style="stroke: #038048; stroke-width: 1.0;"/><text fill="#19273C" font-family="sans-serif" font-size="16" lengthAdjust="spacingAndGlyphs" textLength="296" x="3849" y="197.2266">Promise getParticipantRegistry(string)</text><ellipse cx="3840" cy="211.3125" fill="#84BE84" rx="3" ry="3" style="stroke: #038048; stroke-width: 1.0;"/><text fill="#19273C" font-family="sans-serif" font-size="16" lengthAdjust="spacingAndGlyphs" textLength="318" x="3849" y="215.8516">Promise participantRegistryExists(string)</text><ellipse cx="3840" cy="229.9375" fill="#84BE84" rx="3" ry="3" style="stroke: #038048; stroke-width: 1.0;"/><text fill="#19273C" font-family="sans-serif" font-size="16" lengthAdjust="spacingAndGlyphs" textLength="350" x="3849" y="234.4766">Promise addParticipantRegistry(string,string)</text><ellipse cx="3840" cy="248.5625" fill="#84BE84" rx="3" ry="3" style="stroke: #038048; stroke-width: 1.0;"/><text fill="#19273C" font-family="sans-serif" font-size="16" lengthAdjust="spacingAndGlyphs" textLength="305" x="3849" y="253.1016">Promise getTransactionRegistry(string)</text><ellipse cx="3840" cy="267.1875" fill="#84BE84" rx="3" ry="3" style="stroke: #038048; stroke-width: 1.0;"/><text fill="#19273C" font-family="sans-serif" font-size="16" lengthAdjust="spacingAndGlyphs" textLength="350" x="3849" y="271.7266">Promise getAllTransactionRegistries(boolean)</text><ellipse cx="3840" cy="285.8125" fill="#84BE84" rx="3" ry="3" style="stroke: #038048; stroke-width: 1.0;"/><text fill="#19273C" font-family="sans-serif" font-size="16" lengthAdjust="spacingAndGlyphs" textLength="324" x="3849" y="290.3516">Promise transactionRegistryExists(string)</text><ellipse cx="3840" cy="304.4375" fill="#84BE84" rx="3" ry="3" style="stroke: #038048; stroke-width: 1.0;"/><text fill="#19273C" font-family="sans-serif" font-size="16" lengthAdjust="spacingAndGlyphs" textLength="174" x="3849" y="308.9766">Promise getHistorian()</text><ellipse cx="3840" cy="323.0625" fill="#84BE84" rx="3" ry="3" style="stroke: #038048; stroke-width: 1.0;"/><text fill="#19273C" font-family="sans-serif" font-size="16" lengthAdjust="spacingAndGlyphs" textLength="227" x="3849" y="327.6016">Promise getIdentityRegistry()</text><ellipse cx="3840" cy="341.6875" fill="#84BE84" rx="3" ry="3" style="stroke: #038048; stroke-width: 1.0;"/><text fill="#19273C" font-family="sans-serif" font-size="16" lengthAdjust="spacingAndGlyphs" textLength="393" x="3849" y="346.2266">Promise connect(string,string,string,string,Object)</text><ellipse cx="3840" cy="360.3125" fill="#84BE84" rx="3" ry="3" style="stroke: #038048; stroke-width: 1.0;"/><text fill="#19273C" font-family="sans-serif" font-size="16" lengthAdjust="spacingAndGlyphs" textLength="215" x="3849" y="364.8516">Promise getRegistry(String)</text><ellipse cx="3840" cy="378.9375" fill="#84BE84" rx="3" ry="3" style="stroke: #038048; stroke-width: 1.0;"/><text fill="#19273C" font-family="sans-serif" font-size="16" lengthAdjust="spacingAndGlyphs" textLength="165" x="3849" y="383.4766">Promise disconnect()</text><ellipse cx="3840" cy="397.5625" fill="#84BE84" rx="3" ry="3" style="stroke: #038048; stroke-width: 1.0;"/><text fill="#19273C" font-family="sans-serif" font-size="16" lengthAdjust="spacingAndGlyphs" textLength="298" x="3849" y="402.1016">Promise submitTransaction(Resource)</text><ellipse cx="3840" cy="416.1875" fill="#84BE84" rx="3" ry="3" style="stroke: #038048; stroke-width: 1.0;"/><text fill="#19273C" font-family="sans-serif" font-size="16" lengthAdjust="spacingAndGlyphs" textLength="194" x="3849" y="420.7266">Query buildQuery(string)</text><ellipse cx="3840" cy="434.8125" fill="#84BE84" rx="3" ry="3" style="stroke: #038048; stroke-width: 1.0;"/><text fill="#19273C" font-family="sans-serif" font-size="16" lengthAdjust="spacingAndGlyphs" textLength="175" x="3849" y="439.3516">Promise query(Object)</text><ellipse cx="3840" cy="453.4375" fill="#84BE84" rx="3" ry="3" style="stroke: #038048; stroke-width: 1.0;"/><text fill="#19273C" font-family="sans-serif" font-size="16" lengthAdjust="spacingAndGlyphs" textLength="113" x="3849" y="457.9766">Promise ping()</text><ellipse cx="3840" cy="472.0625" fill="#84BE84" rx="3" ry="3" style="stroke: #038048; stroke-width: 1.0;"/><text fill="#19273C" font-family="sans-serif" font-size="16" lengthAdjust="spacingAndGlyphs" textLength="341" x="3849" y="476.6016">Promise issueIdentity(string,object,boolean)</text><ellipse cx="3840" cy="490.6875" fill="#84BE84" rx="3" ry="3" style="stroke: #038048; stroke-width: 1.0;"/><text fill="#19273C" font-family="sans-serif" font-size="16" lengthAdjust="spacingAndGlyphs" textLength="216" x="3849" y="495.2266">Promise bindIdentity(string)</text><ellipse cx="3840" cy="509.3125" fill="#84BE84" rx="3" ry="3" style="stroke: #038048; stroke-width: 1.0;"/><text fill="#19273C" font-family="sans-serif" font-size="16" lengthAdjust="spacingAndGlyphs" textLength="191" x="3849" y="513.8516">Promise revokeIdentity()</text><!--class EventEmitter--><rect fill="#F8FAFA" height="48" rx="1" ry="1" style="stroke: #E3ECEC; stroke-width: 1.5;" width="132" x="3991" y="731"/><ellipse cx="4006" cy="747" fill="#FFFFFF" rx="11" ry="11" style="stroke: #E3ECEC; stroke-width: 1.0;"/><path d="M4008.4531,752.6563 Q4007.9063,752.9375 4007.3047,753.0859 Q4006.7031,753.2344 4006.0313,753.2344 Q4003.6719,753.2344 4002.4297,751.6719 Q4001.1875,750.1094 4001.1875,747.1719 Q4001.1875,744.2344 4002.4297,742.6797 Q4003.6719,741.125 4006.0313,741.125 Q4006.7031,741.125 4007.3125,741.2656 Q4007.9219,741.4063 4008.4531,741.6875 L4008.4531,744.25 Q4007.8594,743.7031 4007.2969,743.4453 Q4006.7344,743.1875 4006.1406,743.1875 Q4004.875,743.1875 4004.2344,744.1953 Q4003.5938,745.2031 4003.5938,747.1719 Q4003.5938,749.1406 4004.2344,750.1484 Q4004.875,751.1563 4006.1406,751.1563 Q4006.7344,751.1563 4007.2969,750.8984 Q4007.8594,750.6406 4008.4531,750.0938 L4008.4531,752.6563 Z "/><text fill="#19273C" font-family="sans-serif" font-size="16" lengthAdjust="spacingAndGlyphs" textLength="100" x="4020" y="752.5391">EventEmitter</text><line style="stroke: #E3ECEC; stroke-width: 1.5;" x1="3992" x2="4122" y1="763" y2="763"/><line style="stroke: #E3ECEC; stroke-width: 1.5;" x1="3992" x2="4122" y1="771" y2="771"/><path d="M601.413,335.664 C699.71,391.089 843.875,468.036 976,522 C1063.26,557.64 1158.09,590.834 1250.17,620.333 " fill="none" style="stroke: #3C6DF0; stroke-width: 1.0;"/><polygon fill="none" points="1252.54,613.739,1269.47,626.475,1248.29,627.079,1252.54,613.739" style="stroke: #3C6DF0; stroke-width: 1.0;"/><path d="M1338.41,298.777 C1385.72,353.354 1484.01,466.748 1570.65,566.703 " fill="none" style="stroke: #3C6DF0; stroke-width: 1.0;"/><polygon fill="none" points="1576.08,562.283,1583.89,581.98,1565.5,571.452,1576.08,562.283" style="stroke: #3C6DF0; stroke-width: 1.0;"/><path d="M2096.48,335.659 C2044.19,395.84 1966.17,485.639 1895.8,566.629 " fill="none" style="stroke: #3C6DF0; stroke-width: 1.0;"/><polygon fill="none" points="1900.93,571.397,1882.53,581.903,1890.36,562.215,1900.93,571.397" style="stroke: #3C6DF0; stroke-width: 1.0;"/><path d="M3078.23,326.727 C2976.44,383.65 2816.12,467.874 2669,522 C2524.83,575.039 2363.77,619.861 2216.44,655.543 " fill="none" style="stroke: #3C6DF0; stroke-width: 1.0;"/><polygon fill="none" points="2217.76,662.424,2196.68,660.294,2214.49,648.812,2217.76,662.424" style="stroke: #3C6DF0; stroke-width: 1.0;"/><path d="M4057,522.148 C4057,595.24 4057,666.875 4057,710.73 " fill="none" style="stroke: #3C6DF0; stroke-width: 1.0;"/><polygon fill="none" points="4064,710.992,4057,730.992,4050,710.992,4064,710.992" style="stroke: #3C6DF0; stroke-width: 1.0;"/></g></svg>