<?xml version="1.0" encoding="UTF-8" standalone="no"?><svg xmlns="http://www.w3.org/2000/svg" xmlns:xlink="http://www.w3.org/1999/xlink" contentScriptType="application/ecmascript" contentStyleType="text/css" height="482px" preserveAspectRatio="none" style="width:934px;height:482px;" version="1.1" viewBox="0 0 934 482" width="934px" zoomAndPan="magnify"><defs/><g><!--class Registry--><rect fill="#F8FAFA" height="346" rx="1" ry="1" style="stroke: #E3ECEC; stroke-width: 1.5;" width="927" x="6" y="135"/><ellipse cx="433.25" cy="151" fill="#FFFFFF" rx="11" ry="11" style="stroke: #E3ECEC; stroke-width: 1.0;"/><path d="M435.7031,156.6563 Q435.1563,156.9375 434.5547,157.0859 Q433.9531,157.2344 433.2813,157.2344 Q430.9219,157.2344 429.6797,155.6719 Q428.4375,154.1094 428.4375,151.1719 Q428.4375,148.2344 429.6797,146.6797 Q430.9219,145.125 433.2813,145.125 Q433.9531,145.125 434.5625,145.2656 Q435.1719,145.4063 435.7031,145.6875 L435.7031,148.25 Q435.1094,147.7031 434.5469,147.4453 Q433.9844,147.1875 433.3906,147.1875 Q432.125,147.1875 431.4844,148.1953 Q430.8438,149.2031 430.8438,151.1719 Q430.8438,153.1406 431.4844,154.1484 Q432.125,155.1563 433.3906,155.1563 Q433.9844,155.1563 434.5469,154.8984 Q435.1094,154.6406 435.7031,154.0938 L435.7031,156.6563 Z "/><text fill="#19273C" font-family="sans-serif" font-size="16" lengthAdjust="spacingAndGlyphs" textLength="64" x="453.75" y="156.5391">Registry</text><line style="stroke: #E3ECEC; stroke-width: 1.5;" x1="7" x2="932" y1="167" y2="167"/><line style="stroke: #E3ECEC; stroke-width: 1.5;" x1="7" x2="932" y1="175" y2="175"/><ellipse cx="17" cy="189.3125" fill="#84BE84" rx="3" ry="3" style="stroke: #038048; stroke-width: 1.0;"/><text fill="#19273C" font-family="sans-serif" font-size="16" lengthAdjust="spacingAndGlyphs" textLength="439" x="26" y="193.8516">Promise getAllRegistries(SecurityContext,string,boolean)</text><ellipse cx="17" cy="207.9375" fill="#84BE84" rx="3" ry="3" style="stroke: #038048; stroke-width: 1.0;"/><text fill="#19273C" font-family="sans-serif" font-size="16" lengthAdjust="spacingAndGlyphs" textLength="394" x="26" y="212.4766">Promise getRegistry(SecurityContext,string,string)</text><ellipse cx="17" cy="226.5625" fill="#84BE84" rx="3" ry="3" style="stroke: #038048; stroke-width: 1.0;"/><text fill="#19273C" font-family="sans-serif" font-size="16" lengthAdjust="spacingAndGlyphs" textLength="415" x="26" y="231.1016">Promise existsRegistry(SecurityContext,string,string)</text><ellipse cx="17" cy="245.1875" fill="#84BE84" rx="3" ry="3" style="stroke: #038048; stroke-width: 1.0;"/><text fill="#19273C" font-family="sans-serif" font-size="16" lengthAdjust="spacingAndGlyphs" textLength="448" x="26" y="249.7266">Promise addRegistry(SecurityContext,string,string,string)</text><ellipse cx="17" cy="263.8125" fill="#84BE84" rx="3" ry="3" style="stroke: #038048; stroke-width: 1.0;"/><text fill="#19273C" font-family="sans-serif" font-size="16" lengthAdjust="spacingAndGlyphs" textLength="901" x="26" y="268.3516">void constructor(string,string,string,SecurityContext,ModelManager,Factory,Serializer,BusinessNetworkConnection)</text><ellipse cx="17" cy="282.4375" fill="#84BE84" rx="3" ry="3" style="stroke: #038048; stroke-width: 1.0;"/><text fill="#19273C" font-family="sans-serif" font-size="16" lengthAdjust="spacingAndGlyphs" textLength="212" x="26" y="286.9766">Promise addAll(Resource[])</text><ellipse cx="17" cy="301.0625" fill="#84BE84" rx="3" ry="3" style="stroke: #038048; stroke-width: 1.0;"/><text fill="#19273C" font-family="sans-serif" font-size="16" lengthAdjust="spacingAndGlyphs" textLength="183" x="26" y="305.6016">Promise add(Resource)</text><ellipse cx="17" cy="319.6875" fill="#84BE84" rx="3" ry="3" style="stroke: #038048; stroke-width: 1.0;"/><text fill="#19273C" font-family="sans-serif" font-size="16" lengthAdjust="spacingAndGlyphs" textLength="237" x="26" y="324.2266">Promise updateAll(Resource[])</text><ellipse cx="17" cy="338.3125" fill="#84BE84" rx="3" ry="3" style="stroke: #038048; stroke-width: 1.0;"/><text fill="#19273C" font-family="sans-serif" font-size="16" lengthAdjust="spacingAndGlyphs" textLength="208" x="26" y="342.8516">Promise update(Resource)</text><ellipse cx="17" cy="356.9375" fill="#84BE84" rx="3" ry="3" style="stroke: #038048; stroke-width: 1.0;"/><text fill="#19273C" font-family="sans-serif" font-size="16" lengthAdjust="spacingAndGlyphs" textLength="156" x="26" y="361.4766">Promise removeAll()</text><ellipse cx="17" cy="375.5625" fill="#84BE84" rx="3" ry="3" style="stroke: #038048; stroke-width: 1.0;"/><text fill="#19273C" font-family="sans-serif" font-size="16" lengthAdjust="spacingAndGlyphs" textLength="139" x="26" y="380.1016">Promise remove()</text><ellipse cx="17" cy="394.1875" fill="#84BE84" rx="3" ry="3" style="stroke: #038048; stroke-width: 1.0;"/><text fill="#19273C" font-family="sans-serif" font-size="16" lengthAdjust="spacingAndGlyphs" textLength="122" x="26" y="398.7266">Promise getAll()</text><ellipse cx="17" cy="412.8125" fill="#84BE84" rx="3" ry="3" style="stroke: #038048; stroke-width: 1.0;"/><text fill="#19273C" font-family="sans-serif" font-size="16" lengthAdjust="spacingAndGlyphs" textLength="150" x="26" y="417.3516">Promise get(string)</text><ellipse cx="17" cy="431.4375" fill="#84BE84" rx="3" ry="3" style="stroke: #038048; stroke-width: 1.0;"/><text fill="#19273C" font-family="sans-serif" font-size="16" lengthAdjust="spacingAndGlyphs" textLength="171" x="26" y="435.9766">Promise exists(string)</text><ellipse cx="17" cy="450.0625" fill="#84BE84" rx="3" ry="3" style="stroke: #038048; stroke-width: 1.0;"/><text fill="#19273C" font-family="sans-serif" font-size="16" lengthAdjust="spacingAndGlyphs" textLength="153" x="26" y="454.6016">Promise resolveAll()</text><ellipse cx="17" cy="468.6875" fill="#84BE84" rx="3" ry="3" style="stroke: #038048; stroke-width: 1.0;"/><text fill="#19273C" font-family="sans-serif" font-size="16" lengthAdjust="spacingAndGlyphs" textLength="181" x="26" y="473.2266">Promise resolve(string)</text><!--class Historian--><rect fill="#F8FAFA" height="66.625" rx="1" ry="1" style="stroke: #E3ECEC; stroke-width: 1.5;" width="580" x="179.5" y="8"/><ellipse cx="430.75" cy="24" fill="#FFFFFF" rx="11" ry="11" style="stroke: #E3ECEC; stroke-width: 1.0;"/><path d="M433.2031,29.6563 Q432.6563,29.9375 432.0547,30.0859 Q431.4531,30.2344 430.7813,30.2344 Q428.4219,30.2344 427.1797,28.6719 Q425.9375,27.1094 425.9375,24.1719 Q425.9375,21.2344 427.1797,19.6797 Q428.4219,18.125 430.7813,18.125 Q431.4531,18.125 432.0625,18.2656 Q432.6719,18.4063 433.2031,18.6875 L433.2031,21.25 Q432.6094,20.7031 432.0469,20.4453 Q431.4844,20.1875 430.8906,20.1875 Q429.625,20.1875 428.9844,21.1953 Q428.3438,22.2031 428.3438,24.1719 Q428.3438,26.1406 428.9844,27.1484 Q429.625,28.1563 430.8906,28.1563 Q431.4844,28.1563 432.0469,27.8984 Q432.6094,27.6406 433.2031,27.0938 L433.2031,29.6563 Z "/><text fill="#19273C" font-family="sans-serif" font-size="16" lengthAdjust="spacingAndGlyphs" textLength="69" x="451.25" y="29.5391">Historian</text><line style="stroke: #E3ECEC; stroke-width: 1.5;" x1="180.5" x2="758.5" y1="40" y2="40"/><line style="stroke: #E3ECEC; stroke-width: 1.5;" x1="180.5" x2="758.5" y1="48" y2="48"/><ellipse cx="190.5" cy="62.3125" fill="#84BE84" rx="3" ry="3" style="stroke: #038048; stroke-width: 1.0;"/><text fill="#19273C" font-family="sans-serif" font-size="16" lengthAdjust="spacingAndGlyphs" textLength="554" x="199.5" y="66.8516">Promise getHistorian(SecurityContext,ModelManager,Factory,Serializer)</text><path d="M469.5,75.198 C469.5,86.442 469.5,99.965 469.5,114.759 " fill="none" style="stroke: #3C6DF0; stroke-width: 1.0;"/><polygon fill="none" points="476.5,114.855,469.5,134.855,462.5,114.855,476.5,114.855" style="stroke: #3C6DF0; stroke-width: 1.0;"/></g></svg>