<?xml version="1.0" encoding="UTF-8" standalone="no"?><svg xmlns="http://www.w3.org/2000/svg" xmlns:xlink="http://www.w3.org/1999/xlink" contentScriptType="application/ecmascript" contentStyleType="text/css" height="556px" preserveAspectRatio="none" style="width:997px;height:556px;" version="1.1" viewBox="0 0 997 556" width="997px" zoomAndPan="magnify"><defs/><g><!--class Registry--><rect fill="#F8FAFA" height="346" rx="1" ry="1" style="stroke: #E3ECEC; stroke-width: 1.5;" width="927" x="37.5" y="209"/><ellipse cx="464.75" cy="225" fill="#FFFFFF" rx="11" ry="11" style="stroke: #E3ECEC; stroke-width: 1.0;"/><path d="M467.2031,230.6563 Q466.6563,230.9375 466.0547,231.0859 Q465.4531,231.2344 464.7813,231.2344 Q462.4219,231.2344 461.1797,229.6719 Q459.9375,228.1094 459.9375,225.1719 Q459.9375,222.2344 461.1797,220.6797 Q462.4219,219.125 464.7813,219.125 Q465.4531,219.125 466.0625,219.2656 Q466.6719,219.4063 467.2031,219.6875 L467.2031,222.25 Q466.6094,221.7031 466.0469,221.4453 Q465.4844,221.1875 464.8906,221.1875 Q463.625,221.1875 462.9844,222.1953 Q462.3438,223.2031 462.3438,225.1719 Q462.3438,227.1406 462.9844,228.1484 Q463.625,229.1563 464.8906,229.1563 Q465.4844,229.1563 466.0469,228.8984 Q466.6094,228.6406 467.2031,228.0938 L467.2031,230.6563 Z "/><text fill="#19273C" font-family="sans-serif" font-size="16" lengthAdjust="spacingAndGlyphs" textLength="64" x="485.25" y="230.5391">Registry</text><line style="stroke: #E3ECEC; stroke-width: 1.5;" x1="38.5" x2="963.5" y1="241" y2="241"/><line style="stroke: #E3ECEC; stroke-width: 1.5;" x1="38.5" x2="963.5" y1="249" y2="249"/><ellipse cx="48.5" cy="263.3125" fill="#84BE84" rx="3" ry="3" style="stroke: #038048; stroke-width: 1.0;"/><text fill="#19273C" font-family="sans-serif" font-size="16" lengthAdjust="spacingAndGlyphs" textLength="439" x="57.5" y="267.8516">Promise getAllRegistries(SecurityContext,string,boolean)</text><ellipse cx="48.5" cy="281.9375" fill="#84BE84" rx="3" ry="3" style="stroke: #038048; stroke-width: 1.0;"/><text fill="#19273C" font-family="sans-serif" font-size="16" lengthAdjust="spacingAndGlyphs" textLength="394" x="57.5" y="286.4766">Promise getRegistry(SecurityContext,string,string)</text><ellipse cx="48.5" cy="300.5625" fill="#84BE84" rx="3" ry="3" style="stroke: #038048; stroke-width: 1.0;"/><text fill="#19273C" font-family="sans-serif" font-size="16" lengthAdjust="spacingAndGlyphs" textLength="415" x="57.5" y="305.1016">Promise existsRegistry(SecurityContext,string,string)</text><ellipse cx="48.5" cy="319.1875" fill="#84BE84" rx="3" ry="3" style="stroke: #038048; stroke-width: 1.0;"/><text fill="#19273C" font-family="sans-serif" font-size="16" lengthAdjust="spacingAndGlyphs" textLength="448" x="57.5" y="323.7266">Promise addRegistry(SecurityContext,string,string,string)</text><ellipse cx="48.5" cy="337.8125" fill="#84BE84" rx="3" ry="3" style="stroke: #038048; stroke-width: 1.0;"/><text fill="#19273C" font-family="sans-serif" font-size="16" lengthAdjust="spacingAndGlyphs" textLength="901" x="57.5" y="342.3516">void constructor(string,string,string,SecurityContext,ModelManager,Factory,Serializer,BusinessNetworkConnection)</text><ellipse cx="48.5" cy="356.4375" fill="#84BE84" rx="3" ry="3" style="stroke: #038048; stroke-width: 1.0;"/><text fill="#19273C" font-family="sans-serif" font-size="16" lengthAdjust="spacingAndGlyphs" textLength="212" x="57.5" y="360.9766">Promise addAll(Resource[])</text><ellipse cx="48.5" cy="375.0625" fill="#84BE84" rx="3" ry="3" style="stroke: #038048; stroke-width: 1.0;"/><text fill="#19273C" font-family="sans-serif" font-size="16" lengthAdjust="spacingAndGlyphs" textLength="183" x="57.5" y="379.6016">Promise add(Resource)</text><ellipse cx="48.5" cy="393.6875" fill="#84BE84" rx="3" ry="3" style="stroke: #038048; stroke-width: 1.0;"/><text fill="#19273C" font-family="sans-serif" font-size="16" lengthAdjust="spacingAndGlyphs" textLength="237" x="57.5" y="398.2266">Promise updateAll(Resource[])</text><ellipse cx="48.5" cy="412.3125" fill="#84BE84" rx="3" ry="3" style="stroke: #038048; stroke-width: 1.0;"/><text fill="#19273C" font-family="sans-serif" font-size="16" lengthAdjust="spacingAndGlyphs" textLength="208" x="57.5" y="416.8516">Promise update(Resource)</text><ellipse cx="48.5" cy="430.9375" fill="#84BE84" rx="3" ry="3" style="stroke: #038048; stroke-width: 1.0;"/><text fill="#19273C" font-family="sans-serif" font-size="16" lengthAdjust="spacingAndGlyphs" textLength="156" x="57.5" y="435.4766">Promise removeAll()</text><ellipse cx="48.5" cy="449.5625" fill="#84BE84" rx="3" ry="3" style="stroke: #038048; stroke-width: 1.0;"/><text fill="#19273C" font-family="sans-serif" font-size="16" lengthAdjust="spacingAndGlyphs" textLength="139" x="57.5" y="454.1016">Promise remove()</text><ellipse cx="48.5" cy="468.1875" fill="#84BE84" rx="3" ry="3" style="stroke: #038048; stroke-width: 1.0;"/><text fill="#19273C" font-family="sans-serif" font-size="16" lengthAdjust="spacingAndGlyphs" textLength="122" x="57.5" y="472.7266">Promise getAll()</text><ellipse cx="48.5" cy="486.8125" fill="#84BE84" rx="3" ry="3" style="stroke: #038048; stroke-width: 1.0;"/><text fill="#19273C" font-family="sans-serif" font-size="16" lengthAdjust="spacingAndGlyphs" textLength="150" x="57.5" y="491.3516">Promise get(string)</text><ellipse cx="48.5" cy="505.4375" fill="#84BE84" rx="3" ry="3" style="stroke: #038048; stroke-width: 1.0;"/><text fill="#19273C" font-family="sans-serif" font-size="16" lengthAdjust="spacingAndGlyphs" textLength="171" x="57.5" y="509.9766">Promise exists(string)</text><ellipse cx="48.5" cy="524.0625" fill="#84BE84" rx="3" ry="3" style="stroke: #038048; stroke-width: 1.0;"/><text fill="#19273C" font-family="sans-serif" font-size="16" lengthAdjust="spacingAndGlyphs" textLength="153" x="57.5" y="528.6016">Promise resolveAll()</text><ellipse cx="48.5" cy="542.6875" fill="#84BE84" rx="3" ry="3" style="stroke: #038048; stroke-width: 1.0;"/><text fill="#19273C" font-family="sans-serif" font-size="16" lengthAdjust="spacingAndGlyphs" textLength="181" x="57.5" y="547.2266">Promise resolve(string)</text><!--class ParticipantRegistry--><rect fill="#F8FAFA" height="141.125" rx="1" ry="1" style="stroke: #E3ECEC; stroke-width: 1.5;" width="990" x="6" y="8"/><ellipse cx="423.75" cy="24" fill="#FFFFFF" rx="11" ry="11" style="stroke: #E3ECEC; stroke-width: 1.0;"/><path d="M426.2031,29.6563 Q425.6563,29.9375 425.0547,30.0859 Q424.4531,30.2344 423.7813,30.2344 Q421.4219,30.2344 420.1797,28.6719 Q418.9375,27.1094 418.9375,24.1719 Q418.9375,21.2344 420.1797,19.6797 Q421.4219,18.125 423.7813,18.125 Q424.4531,18.125 425.0625,18.2656 Q425.6719,18.4063 426.2031,18.6875 L426.2031,21.25 Q425.6094,20.7031 425.0469,20.4453 Q424.4844,20.1875 423.8906,20.1875 Q422.625,20.1875 421.9844,21.1953 Q421.3438,22.2031 421.3438,24.1719 Q421.3438,26.1406 421.9844,27.1484 Q422.625,28.1563 423.8906,28.1563 Q424.4844,28.1563 425.0469,27.8984 Q425.6094,27.6406 426.2031,27.0938 L426.2031,29.6563 Z "/><text fill="#19273C" font-family="sans-serif" font-size="16" lengthAdjust="spacingAndGlyphs" textLength="146" x="444.25" y="29.5391">ParticipantRegistry</text><line style="stroke: #E3ECEC; stroke-width: 1.5;" x1="7" x2="995" y1="40" y2="40"/><line style="stroke: #E3ECEC; stroke-width: 1.5;" x1="7" x2="995" y1="48" y2="48"/><ellipse cx="17" cy="62.3125" fill="#84BE84" rx="3" ry="3" style="stroke: #038048; stroke-width: 1.0;"/><text fill="#19273C" font-family="sans-serif" font-size="16" lengthAdjust="spacingAndGlyphs" textLength="956" x="26" y="66.8516">Promise getAllParticipantRegistries(SecurityContext,ModelManager,Factory,Serializer,BusinessNetworkConnection,Boolean)</text><ellipse cx="17" cy="80.9375" fill="#84BE84" rx="3" ry="3" style="stroke: #038048; stroke-width: 1.0;"/><text fill="#19273C" font-family="sans-serif" font-size="16" lengthAdjust="spacingAndGlyphs" textLength="910" x="26" y="85.4766">Promise getParticipantRegistry(SecurityContext,string,ModelManager,Factory,Serializer,BusinessNetworkConnection)</text><ellipse cx="17" cy="99.5625" fill="#84BE84" rx="3" ry="3" style="stroke: #038048; stroke-width: 1.0;"/><text fill="#19273C" font-family="sans-serif" font-size="16" lengthAdjust="spacingAndGlyphs" textLength="932" x="26" y="104.1016">Promise participantRegistryExists(SecurityContext,string,ModelManager,Factory,Serializer,BusinessNetworkConnection)</text><ellipse cx="17" cy="118.1875" fill="#84BE84" rx="3" ry="3" style="stroke: #038048; stroke-width: 1.0;"/><text fill="#19273C" font-family="sans-serif" font-size="16" lengthAdjust="spacingAndGlyphs" textLength="964" x="26" y="122.7266">Promise addParticipantRegistry(SecurityContext,string,string,ModelManager,Factory,Serializer,BusinessNetworkConnection)</text><ellipse cx="17" cy="136.8125" fill="#84BE84" rx="3" ry="3" style="stroke: #038048; stroke-width: 1.0;"/><text fill="#19273C" font-family="sans-serif" font-size="16" lengthAdjust="spacingAndGlyphs" textLength="851" x="26" y="141.3516">void constructor(string,string,SecurityContext,ModelManager,Factory,Serializer,BusinessNetworkConnection)</text><path d="M501,149.049 C501,161.46 501,174.918 501,188.89 " fill="none" style="stroke: #3C6DF0; stroke-width: 1.0;"/><polygon fill="none" points="508,188.929,501,208.929,494,188.929,508,188.929" style="stroke: #3C6DF0; stroke-width: 1.0;"/></g></svg>