<?xml version="1.0" encoding="UTF-8" standalone="no"?><svg xmlns="http://www.w3.org/2000/svg" xmlns:xlink="http://www.w3.org/1999/xlink" contentScriptType="application/ecmascript" contentStyleType="text/css" height="311px" preserveAspectRatio="none" style="width:220px;height:311px;" version="1.1" viewBox="0 0 220 311" width="220px" zoomAndPan="magnify"><defs/><g><!--class BaseException--><rect fill="#F8FAFA" height="66.625" rx="1" ry="1" style="stroke: #E3ECEC; stroke-width: 1.5;" width="213" x="6" y="135"/><ellipse cx="50.75" cy="151" fill="#FFFFFF" rx="11" ry="11" style="stroke: #E3ECEC; stroke-width: 1.0;"/><path d="M53.2031,156.6563 Q52.6563,156.9375 52.0547,157.0859 Q51.4531,157.2344 50.7813,157.2344 Q48.4219,157.2344 47.1797,155.6719 Q45.9375,154.1094 45.9375,151.1719 Q45.9375,148.2344 47.1797,146.6797 Q48.4219,145.125 50.7813,145.125 Q51.4531,145.125 52.0625,145.2656 Q52.6719,145.4063 53.2031,145.6875 L53.2031,148.25 Q52.6094,147.7031 52.0469,147.4453 Q51.4844,147.1875 50.8906,147.1875 Q49.625,147.1875 48.9844,148.1953 Q48.3438,149.2031 48.3438,151.1719 Q48.3438,153.1406 48.9844,154.1484 Q49.625,155.1563 50.8906,155.1563 Q51.4844,155.1563 52.0469,154.8984 Q52.6094,154.6406 53.2031,154.0938 L53.2031,156.6563 Z "/><text fill="#19273C" font-family="sans-serif" font-size="16" lengthAdjust="spacingAndGlyphs" textLength="115" x="71.25" y="156.5391">BaseException</text><line style="stroke: #E3ECEC; stroke-width: 1.5;" x1="7" x2="218" y1="167" y2="167"/><line style="stroke: #E3ECEC; stroke-width: 1.5;" x1="7" x2="218" y1="175" y2="175"/><ellipse cx="17" cy="189.3125" fill="#84BE84" rx="3" ry="3" style="stroke: #038048; stroke-width: 1.0;"/><text fill="#19273C" font-family="sans-serif" font-size="16" lengthAdjust="spacingAndGlyphs" textLength="187" x="26" y="193.8516">void constructor(string)</text><!--class Error--><rect fill="#F8FAFA" height="48" rx="1" ry="1" style="stroke: #E3ECEC; stroke-width: 1.5;" width="73" x="76" y="262"/><ellipse cx="91" cy="278" fill="#FFFFFF" rx="11" ry="11" style="stroke: #E3ECEC; stroke-width: 1.0;"/><path d="M93.4531,283.6563 Q92.9063,283.9375 92.3047,284.0859 Q91.7031,284.2344 91.0313,284.2344 Q88.6719,284.2344 87.4297,282.6719 Q86.1875,281.1094 86.1875,278.1719 Q86.1875,275.2344 87.4297,273.6797 Q88.6719,272.125 91.0313,272.125 Q91.7031,272.125 92.3125,272.2656 Q92.9219,272.4063 93.4531,272.6875 L93.4531,275.25 Q92.8594,274.7031 92.2969,274.4453 Q91.7344,274.1875 91.1406,274.1875 Q89.875,274.1875 89.2344,275.1953 Q88.5938,276.2031 88.5938,278.1719 Q88.5938,280.1406 89.2344,281.1484 Q89.875,282.1563 91.1406,282.1563 Q91.7344,282.1563 92.2969,281.8984 Q92.8594,281.6406 93.4531,281.0938 L93.4531,283.6563 Z "/><text fill="#19273C" font-family="sans-serif" font-size="16" lengthAdjust="spacingAndGlyphs" textLength="41" x="105" y="283.5391">Error</text><line style="stroke: #E3ECEC; stroke-width: 1.5;" x1="77" x2="148" y1="294" y2="294"/><line style="stroke: #E3ECEC; stroke-width: 1.5;" x1="77" x2="148" y1="302" y2="302"/><!--class SecurityException--><rect fill="#F8FAFA" height="66.625" rx="1" ry="1" style="stroke: #E3ECEC; stroke-width: 1.5;" width="213" x="6" y="8"/><ellipse cx="39.45" cy="24" fill="#FFFFFF" rx="11" ry="11" style="stroke: #E3ECEC; stroke-width: 1.0;"/><path d="M41.9031,29.6563 Q41.3563,29.9375 40.7547,30.0859 Q40.1531,30.2344 39.4813,30.2344 Q37.1219,30.2344 35.8797,28.6719 Q34.6375,27.1094 34.6375,24.1719 Q34.6375,21.2344 35.8797,19.6797 Q37.1219,18.125 39.4813,18.125 Q40.1531,18.125 40.7625,18.2656 Q41.3719,18.4063 41.9031,18.6875 L41.9031,21.25 Q41.3094,20.7031 40.7469,20.4453 Q40.1844,20.1875 39.5906,20.1875 Q38.325,20.1875 37.6844,21.1953 Q37.0438,22.2031 37.0438,24.1719 Q37.0438,26.1406 37.6844,27.1484 Q38.325,28.1563 39.5906,28.1563 Q40.1844,28.1563 40.7469,27.8984 Q41.3094,27.6406 41.9031,27.0938 L41.9031,29.6563 Z "/><text fill="#19273C" font-family="sans-serif" font-size="16" lengthAdjust="spacingAndGlyphs" textLength="140" x="57.55" y="29.5391">SecurityException</text><line style="stroke: #E3ECEC; stroke-width: 1.5;" x1="7" x2="218" y1="40" y2="40"/><line style="stroke: #E3ECEC; stroke-width: 1.5;" x1="7" x2="218" y1="48" y2="48"/><ellipse cx="17" cy="62.3125" fill="#84BE84" rx="3" ry="3" style="stroke: #038048; stroke-width: 1.0;"/><text fill="#19273C" font-family="sans-serif" font-size="16" lengthAdjust="spacingAndGlyphs" textLength="187" x="26" y="66.8516">void constructor(string)</text><path d="M112.5,202.289 C112.5,214.4227 112.5,228.3772 112.5,241.3262 " fill="none" style="stroke: #3C6DF0; stroke-width: 1.0;"/><polygon fill="none" points="119.5,241.6703,112.5,261.6703,105.5001,241.6703,119.5,241.6703" style="stroke: #3C6DF0; stroke-width: 1.0;"/><path d="M112.5,75.016 C112.5,87.074 112.5,101.083 112.5,114.495 " fill="none" style="stroke: #3C6DF0; stroke-width: 1.0;"/><polygon fill="none" points="119.5,114.713,112.5,134.713,105.5001,114.713,119.5,114.713" style="stroke: #3C6DF0; stroke-width: 1.0;"/></g></svg>