<?xml version="1.0" encoding="UTF-8" standalone="no"?><svg xmlns="http://www.w3.org/2000/svg" xmlns:xlink="http://www.w3.org/1999/xlink" contentScriptType="application/ecmascript" contentStyleType="text/css" height="891px" preserveAspectRatio="none" style="width:3582px;height:891px;" version="1.1" viewBox="0 0 3582 891" width="3582px" zoomAndPan="magnify"><defs/><g><!--class Registry--><rect fill="#F8FAFA" height="383.25" rx="1" ry="1" style="stroke: #E3ECEC; stroke-width: 1.5;" width="698" x="1195.5" y="507"/><ellipse cx="1508.25" cy="523" fill="#FFFFFF" rx="11" ry="11" style="stroke: #E3ECEC; stroke-width: 1.0;"/><path d="M1510.7031,528.6563 Q1510.1563,528.9375 1509.5547,529.0859 Q1508.9531,529.2344 1508.2813,529.2344 Q1505.9219,529.2344 1504.6797,527.6719 Q1503.4375,526.1094 1503.4375,523.1719 Q1503.4375,520.2344 1504.6797,518.6797 Q1505.9219,517.125 1508.2813,517.125 Q1508.9531,517.125 1509.5625,517.2656 Q1510.1719,517.4063 1510.7031,517.6875 L1510.7031,520.25 Q1510.1094,519.7031 1509.5469,519.4453 Q1508.9844,519.1875 1508.3906,519.1875 Q1507.125,519.1875 1506.4844,520.1953 Q1505.8438,521.2031 1505.8438,523.1719 Q1505.8438,525.1406 1506.4844,526.1484 Q1507.125,527.1563 1508.3906,527.1563 Q1508.9844,527.1563 1509.5469,526.8984 Q1510.1094,526.6406 1510.7031,526.0938 L1510.7031,528.6563 Z "/><text fill="#19273C" font-family="sans-serif" font-size="16" lengthAdjust="spacingAndGlyphs" textLength="64" x="1528.75" y="528.5391">Registry</text><line style="stroke: #E3ECEC; stroke-width: 1.5;" x1="1196.5" x2="1892.5" y1="539" y2="539"/><line style="stroke: #E3ECEC; stroke-width: 1.5;" x1="1196.5" x2="1892.5" y1="547" y2="547"/><ellipse cx="1206.5" cy="561.3125" fill="#84BE84" rx="3" ry="3" style="stroke: #038048; stroke-width: 1.0;"/><text fill="#19273C" font-family="sans-serif" font-size="16" lengthAdjust="spacingAndGlyphs" textLength="373" x="1215.5" y="565.8516">Promise getAllRegistries(SecurityContext,string)</text><ellipse cx="1206.5" cy="579.9375" fill="#84BE84" rx="3" ry="3" style="stroke: #038048; stroke-width: 1.0;"/><text fill="#19273C" font-family="sans-serif" font-size="16" lengthAdjust="spacingAndGlyphs" textLength="394" x="1215.5" y="584.4766">Promise getRegistry(SecurityContext,string,string)</text><ellipse cx="1206.5" cy="598.5625" fill="#84BE84" rx="3" ry="3" style="stroke: #038048; stroke-width: 1.0;"/><text fill="#19273C" font-family="sans-serif" font-size="16" lengthAdjust="spacingAndGlyphs" textLength="415" x="1215.5" y="603.1016">Promise existsRegistry(SecurityContext,string,string)</text><ellipse cx="1206.5" cy="617.1875" fill="#84BE84" rx="3" ry="3" style="stroke: #038048; stroke-width: 1.0;"/><text fill="#19273C" font-family="sans-serif" font-size="16" lengthAdjust="spacingAndGlyphs" textLength="448" x="1215.5" y="621.7266">Promise addRegistry(SecurityContext,string,string,string)</text><ellipse cx="1206.5" cy="635.8125" fill="#84BE84" rx="3" ry="3" style="stroke: #038048; stroke-width: 1.0;"/><text fill="#19273C" font-family="sans-serif" font-size="16" lengthAdjust="spacingAndGlyphs" textLength="672" x="1215.5" y="640.3516">void constructor(string,string,string,SecurityContext,ModelManager,Factory,Serializer)</text><ellipse cx="1206.5" cy="654.4375" fill="#84BE84" rx="3" ry="3" style="stroke: #038048; stroke-width: 1.0;"/><text fill="#19273C" font-family="sans-serif" font-size="16" lengthAdjust="spacingAndGlyphs" textLength="212" x="1215.5" y="658.9766">Promise addAll(Resource[])</text><ellipse cx="1206.5" cy="673.0625" fill="#84BE84" rx="3" ry="3" style="stroke: #038048; stroke-width: 1.0;"/><text fill="#19273C" font-family="sans-serif" font-size="16" lengthAdjust="spacingAndGlyphs" textLength="183" x="1215.5" y="677.6016">Promise add(Resource)</text><ellipse cx="1206.5" cy="691.6875" fill="#84BE84" rx="3" ry="3" style="stroke: #038048; stroke-width: 1.0;"/><text fill="#19273C" font-family="sans-serif" font-size="16" lengthAdjust="spacingAndGlyphs" textLength="237" x="1215.5" y="696.2266">Promise updateAll(Resource[])</text><ellipse cx="1206.5" cy="710.3125" fill="#84BE84" rx="3" ry="3" style="stroke: #038048; stroke-width: 1.0;"/><text fill="#19273C" font-family="sans-serif" font-size="16" lengthAdjust="spacingAndGlyphs" textLength="208" x="1215.5" y="714.8516">Promise update(Resource)</text><ellipse cx="1206.5" cy="728.9375" fill="#84BE84" rx="3" ry="3" style="stroke: #038048; stroke-width: 1.0;"/><text fill="#19273C" font-family="sans-serif" font-size="16" lengthAdjust="spacingAndGlyphs" textLength="156" x="1215.5" y="733.4766">Promise removeAll()</text><ellipse cx="1206.5" cy="747.5625" fill="#84BE84" rx="3" ry="3" style="stroke: #038048; stroke-width: 1.0;"/><text fill="#19273C" font-family="sans-serif" font-size="16" lengthAdjust="spacingAndGlyphs" textLength="139" x="1215.5" y="752.1016">Promise remove()</text><ellipse cx="1206.5" cy="766.1875" fill="#84BE84" rx="3" ry="3" style="stroke: #038048; stroke-width: 1.0;"/><text fill="#19273C" font-family="sans-serif" font-size="16" lengthAdjust="spacingAndGlyphs" textLength="122" x="1215.5" y="770.7266">Promise getAll()</text><ellipse cx="1206.5" cy="784.8125" fill="#84BE84" rx="3" ry="3" style="stroke: #038048; stroke-width: 1.0;"/><text fill="#19273C" font-family="sans-serif" font-size="16" lengthAdjust="spacingAndGlyphs" textLength="150" x="1215.5" y="789.3516">Promise get(string)</text><ellipse cx="1206.5" cy="803.4375" fill="#84BE84" rx="3" ry="3" style="stroke: #038048; stroke-width: 1.0;"/><text fill="#19273C" font-family="sans-serif" font-size="16" lengthAdjust="spacingAndGlyphs" textLength="171" x="1215.5" y="807.9766">Promise exists(string)</text><ellipse cx="1206.5" cy="822.0625" fill="#84BE84" rx="3" ry="3" style="stroke: #038048; stroke-width: 1.0;"/><text fill="#19273C" font-family="sans-serif" font-size="16" lengthAdjust="spacingAndGlyphs" textLength="154" x="1215.5" y="826.6016">Promise find(string)</text><ellipse cx="1206.5" cy="840.6875" fill="#84BE84" rx="3" ry="3" style="stroke: #038048; stroke-width: 1.0;"/><text fill="#19273C" font-family="sans-serif" font-size="16" lengthAdjust="spacingAndGlyphs" textLength="170" x="1215.5" y="845.2266">Promise query(string)</text><ellipse cx="1206.5" cy="859.3125" fill="#84BE84" rx="3" ry="3" style="stroke: #038048; stroke-width: 1.0;"/><text fill="#19273C" font-family="sans-serif" font-size="16" lengthAdjust="spacingAndGlyphs" textLength="153" x="1215.5" y="863.8516">Promise resolveAll()</text><ellipse cx="1206.5" cy="877.9375" fill="#84BE84" rx="3" ry="3" style="stroke: #038048; stroke-width: 1.0;"/><text fill="#19273C" font-family="sans-serif" font-size="16" lengthAdjust="spacingAndGlyphs" textLength="181" x="1215.5" y="882.4766">Promise resolve(string)</text><!--class AssetRegistry--><rect fill="#F8FAFA" height="141.125" rx="1" ry="1" style="stroke: #E3ECEC; stroke-width: 1.5;" width="723" x="6" y="157"/><ellipse cx="309.25" cy="173" fill="#FFFFFF" rx="11" ry="11" style="stroke: #E3ECEC; stroke-width: 1.0;"/><path d="M311.7031,178.6563 Q311.1563,178.9375 310.5547,179.0859 Q309.9531,179.2344 309.2813,179.2344 Q306.9219,179.2344 305.6797,177.6719 Q304.4375,176.1094 304.4375,173.1719 Q304.4375,170.2344 305.6797,168.6797 Q306.9219,167.125 309.2813,167.125 Q309.9531,167.125 310.5625,167.2656 Q311.1719,167.4063 311.7031,167.6875 L311.7031,170.25 Q311.1094,169.7031 310.5469,169.4453 Q309.9844,169.1875 309.3906,169.1875 Q308.125,169.1875 307.4844,170.1953 Q306.8438,171.2031 306.8438,173.1719 Q306.8438,175.1406 307.4844,176.1484 Q308.125,177.1563 309.3906,177.1563 Q309.9844,177.1563 310.5469,176.8984 Q311.1094,176.6406 311.7031,176.0938 L311.7031,178.6563 Z "/><text fill="#19273C" font-family="sans-serif" font-size="16" lengthAdjust="spacingAndGlyphs" textLength="108" x="329.75" y="178.5391">AssetRegistry</text><line style="stroke: #E3ECEC; stroke-width: 1.5;" x1="7" x2="728" y1="189" y2="189"/><line style="stroke: #E3ECEC; stroke-width: 1.5;" x1="7" x2="728" y1="197" y2="197"/><ellipse cx="17" cy="211.3125" fill="#84BE84" rx="3" ry="3" style="stroke: #038048; stroke-width: 1.0;"/><text fill="#19273C" font-family="sans-serif" font-size="16" lengthAdjust="spacingAndGlyphs" textLength="622" x="26" y="215.8516">Promise getAllAssetRegistries(SecurityContext,ModelManager,Factory,Serializer)</text><ellipse cx="17" cy="229.9375" fill="#84BE84" rx="3" ry="3" style="stroke: #038048; stroke-width: 1.0;"/><text fill="#19273C" font-family="sans-serif" font-size="16" lengthAdjust="spacingAndGlyphs" textLength="643" x="26" y="234.4766">Promise getAssetRegistry(SecurityContext,string,ModelManager,Factory,Serializer)</text><ellipse cx="17" cy="248.5625" fill="#84BE84" rx="3" ry="3" style="stroke: #038048; stroke-width: 1.0;"/><text fill="#19273C" font-family="sans-serif" font-size="16" lengthAdjust="spacingAndGlyphs" textLength="663" x="26" y="253.1016">Promise assetRegistryExists(SecurityContext,string,ModelManager,Factory,Serializer)</text><ellipse cx="17" cy="267.1875" fill="#84BE84" rx="3" ry="3" style="stroke: #038048; stroke-width: 1.0;"/><text fill="#19273C" font-family="sans-serif" font-size="16" lengthAdjust="spacingAndGlyphs" textLength="697" x="26" y="271.7266">Promise addAssetRegistry(SecurityContext,string,string,ModelManager,Factory,Serializer)</text><ellipse cx="17" cy="285.8125" fill="#84BE84" rx="3" ry="3" style="stroke: #038048; stroke-width: 1.0;"/><text fill="#19273C" font-family="sans-serif" font-size="16" lengthAdjust="spacingAndGlyphs" textLength="622" x="26" y="290.3516">void constructor(string,string,SecurityContext,ModelManager,Factory,Serializer)</text><!--class ParticipantRegistry--><rect fill="#F8FAFA" height="141.125" rx="1" ry="1" style="stroke: #E3ECEC; stroke-width: 1.5;" width="761" x="764" y="157"/><ellipse cx="1067.25" cy="173" fill="#FFFFFF" rx="11" ry="11" style="stroke: #E3ECEC; stroke-width: 1.0;"/><path d="M1069.7031,178.6563 Q1069.1563,178.9375 1068.5547,179.0859 Q1067.9531,179.2344 1067.2813,179.2344 Q1064.9219,179.2344 1063.6797,177.6719 Q1062.4375,176.1094 1062.4375,173.1719 Q1062.4375,170.2344 1063.6797,168.6797 Q1064.9219,167.125 1067.2813,167.125 Q1067.9531,167.125 1068.5625,167.2656 Q1069.1719,167.4063 1069.7031,167.6875 L1069.7031,170.25 Q1069.1094,169.7031 1068.5469,169.4453 Q1067.9844,169.1875 1067.3906,169.1875 Q1066.125,169.1875 1065.4844,170.1953 Q1064.8438,171.2031 1064.8438,173.1719 Q1064.8438,175.1406 1065.4844,176.1484 Q1066.125,177.1563 1067.3906,177.1563 Q1067.9844,177.1563 1068.5469,176.8984 Q1069.1094,176.6406 1069.7031,176.0938 L1069.7031,178.6563 Z "/><text fill="#19273C" font-family="sans-serif" font-size="16" lengthAdjust="spacingAndGlyphs" textLength="146" x="1087.75" y="178.5391">ParticipantRegistry</text><line style="stroke: #E3ECEC; stroke-width: 1.5;" x1="765" x2="1524" y1="189" y2="189"/><line style="stroke: #E3ECEC; stroke-width: 1.5;" x1="765" x2="1524" y1="197" y2="197"/><ellipse cx="775" cy="211.3125" fill="#84BE84" rx="3" ry="3" style="stroke: #038048; stroke-width: 1.0;"/><text fill="#19273C" font-family="sans-serif" font-size="16" lengthAdjust="spacingAndGlyphs" textLength="660" x="784" y="215.8516">Promise getAllParticipantRegistries(SecurityContext,ModelManager,Factory,Serializer)</text><ellipse cx="775" cy="229.9375" fill="#84BE84" rx="3" ry="3" style="stroke: #038048; stroke-width: 1.0;"/><text fill="#19273C" font-family="sans-serif" font-size="16" lengthAdjust="spacingAndGlyphs" textLength="681" x="784" y="234.4766">Promise getParticipantRegistry(SecurityContext,string,ModelManager,Factory,Serializer)</text><ellipse cx="775" cy="248.5625" fill="#84BE84" rx="3" ry="3" style="stroke: #038048; stroke-width: 1.0;"/><text fill="#19273C" font-family="sans-serif" font-size="16" lengthAdjust="spacingAndGlyphs" textLength="703" x="784" y="253.1016">Promise participantRegistryExists(SecurityContext,string,ModelManager,Factory,Serializer)</text><ellipse cx="775" cy="267.1875" fill="#84BE84" rx="3" ry="3" style="stroke: #038048; stroke-width: 1.0;"/><text fill="#19273C" font-family="sans-serif" font-size="16" lengthAdjust="spacingAndGlyphs" textLength="735" x="784" y="271.7266">Promise addParticipantRegistry(SecurityContext,string,string,ModelManager,Factory,Serializer)</text><ellipse cx="775" cy="285.8125" fill="#84BE84" rx="3" ry="3" style="stroke: #038048; stroke-width: 1.0;"/><text fill="#19273C" font-family="sans-serif" font-size="16" lengthAdjust="spacingAndGlyphs" textLength="622" x="784" y="290.3516">void constructor(string,string,SecurityContext,ModelManager,Factory,Serializer)</text><!--class Query--><rect fill="#F8FAFA" height="48" rx="1" ry="1" style="stroke: #E3ECEC; stroke-width: 1.5;" width="80" x="3034.5" y="203.5"/><ellipse cx="3049.5" cy="219.5" fill="#FFFFFF" rx="11" ry="11" style="stroke: #E3ECEC; stroke-width: 1.0;"/><path d="M3051.9531,225.1563 Q3051.4063,225.4375 3050.8047,225.5859 Q3050.2031,225.7344 3049.5313,225.7344 Q3047.1719,225.7344 3045.9297,224.1719 Q3044.6875,222.6094 3044.6875,219.6719 Q3044.6875,216.7344 3045.9297,215.1797 Q3047.1719,213.625 3049.5313,213.625 Q3050.2031,213.625 3050.8125,213.7656 Q3051.4219,213.9063 3051.9531,214.1875 L3051.9531,216.75 Q3051.3594,216.2031 3050.7969,215.9453 Q3050.2344,215.6875 3049.6406,215.6875 Q3048.375,215.6875 3047.7344,216.6953 Q3047.0938,217.7031 3047.0938,219.6719 Q3047.0938,221.6406 3047.7344,222.6484 Q3048.375,223.6563 3049.6406,223.6563 Q3050.2344,223.6563 3050.7969,223.3984 Q3051.3594,223.1406 3051.9531,222.5938 L3051.9531,225.1563 Z "/><text fill="#19273C" font-family="sans-serif" font-size="16" lengthAdjust="spacingAndGlyphs" textLength="48" x="3063.5" y="225.0391">Query</text><line style="stroke: #E3ECEC; stroke-width: 1.5;" x1="3035.5" x2="3113.5" y1="235.5" y2="235.5"/><line style="stroke: #E3ECEC; stroke-width: 1.5;" x1="3035.5" x2="3113.5" y1="243.5" y2="243.5"/><!--class TransactionRegistry--><rect fill="#F8FAFA" height="103.875" rx="1" ry="1" style="stroke: #E3ECEC; stroke-width: 1.5;" width="770" x="1560.5" y="175.5"/><ellipse cx="1863.75" cy="191.5" fill="#FFFFFF" rx="11" ry="11" style="stroke: #E3ECEC; stroke-width: 1.0;"/><path d="M1866.2031,197.1563 Q1865.6563,197.4375 1865.0547,197.5859 Q1864.4531,197.7344 1863.7813,197.7344 Q1861.4219,197.7344 1860.1797,196.1719 Q1858.9375,194.6094 1858.9375,191.6719 Q1858.9375,188.7344 1860.1797,187.1797 Q1861.4219,185.625 1863.7813,185.625 Q1864.4531,185.625 1865.0625,185.7656 Q1865.6719,185.9063 1866.2031,186.1875 L1866.2031,188.75 Q1865.6094,188.2031 1865.0469,187.9453 Q1864.4844,187.6875 1863.8906,187.6875 Q1862.625,187.6875 1861.9844,188.6953 Q1861.3438,189.7031 1861.3438,191.6719 Q1861.3438,193.6406 1861.9844,194.6484 Q1862.625,195.6563 1863.8906,195.6563 Q1864.4844,195.6563 1865.0469,195.3984 Q1865.6094,195.1406 1866.2031,194.5938 L1866.2031,197.1563 Z "/><text fill="#19273C" font-family="sans-serif" font-size="16" lengthAdjust="spacingAndGlyphs" textLength="155" x="1884.25" y="197.0391">TransactionRegistry</text><line style="stroke: #E3ECEC; stroke-width: 1.5;" x1="1561.5" x2="2329.5" y1="207.5" y2="207.5"/><line style="stroke: #E3ECEC; stroke-width: 1.5;" x1="1561.5" x2="2329.5" y1="215.5" y2="215.5"/><ellipse cx="1571.5" cy="229.8125" fill="#84BE84" rx="3" ry="3" style="stroke: #038048; stroke-width: 1.0;"/><text fill="#19273C" font-family="sans-serif" font-size="16" lengthAdjust="spacingAndGlyphs" textLength="669" x="1580.5" y="234.3516">Promise getAllTransactionRegistries(SecurityContext,ModelManager,Factory,Serializer)</text><ellipse cx="1571.5" cy="248.4375" fill="#84BE84" rx="3" ry="3" style="stroke: #038048; stroke-width: 1.0;"/><text fill="#19273C" font-family="sans-serif" font-size="16" lengthAdjust="spacingAndGlyphs" textLength="690" x="1580.5" y="252.9766">Promise getTransactionRegistry(SecurityContext,string,ModelManager,Factory,Serializer)</text><ellipse cx="1571.5" cy="267.0625" fill="#84BE84" rx="3" ry="3" style="stroke: #038048; stroke-width: 1.0;"/><text fill="#19273C" font-family="sans-serif" font-size="16" lengthAdjust="spacingAndGlyphs" textLength="744" x="1580.5" y="271.6016">Promise addTransactionRegistry(SecurityContext,string,string,ModelManager,Factory,Serializer)</text><!--class IdentityRegistry--><rect fill="#F8FAFA" height="66.625" rx="1" ry="1" style="stroke: #E3ECEC; stroke-width: 1.5;" width="633" x="2366" y="194"/><ellipse cx="2617.25" cy="210" fill="#FFFFFF" rx="11" ry="11" style="stroke: #E3ECEC; stroke-width: 1.0;"/><path d="M2619.7031,215.6563 Q2619.1563,215.9375 2618.5547,216.0859 Q2617.9531,216.2344 2617.2813,216.2344 Q2614.9219,216.2344 2613.6797,214.6719 Q2612.4375,213.1094 2612.4375,210.1719 Q2612.4375,207.2344 2613.6797,205.6797 Q2614.9219,204.125 2617.2813,204.125 Q2617.9531,204.125 2618.5625,204.2656 Q2619.1719,204.4063 2619.7031,204.6875 L2619.7031,207.25 Q2619.1094,206.7031 2618.5469,206.4453 Q2617.9844,206.1875 2617.3906,206.1875 Q2616.125,206.1875 2615.4844,207.1953 Q2614.8438,208.2031 2614.8438,210.1719 Q2614.8438,212.1406 2615.4844,213.1484 Q2616.125,214.1563 2617.3906,214.1563 Q2617.9844,214.1563 2618.5469,213.8984 Q2619.1094,213.6406 2619.7031,213.0938 L2619.7031,215.6563 Z "/><text fill="#19273C" font-family="sans-serif" font-size="16" lengthAdjust="spacingAndGlyphs" textLength="122" x="2637.75" y="215.5391">IdentityRegistry</text><line style="stroke: #E3ECEC; stroke-width: 1.5;" x1="2367" x2="2998" y1="226" y2="226"/><line style="stroke: #E3ECEC; stroke-width: 1.5;" x1="2367" x2="2998" y1="234" y2="234"/><ellipse cx="2377" cy="248.3125" fill="#84BE84" rx="3" ry="3" style="stroke: #038048; stroke-width: 1.0;"/><text fill="#19273C" font-family="sans-serif" font-size="16" lengthAdjust="spacingAndGlyphs" textLength="607" x="2386" y="252.8516">Promise getIdentityRegistry(SecurityContext,ModelManager,Factory,Serializer)</text><!--class BusinessNetworkConnection--><rect fill="#F8FAFA" height="439.125" rx="1" ry="1" style="stroke: #E3ECEC; stroke-width: 1.5;" width="431" x="3150" y="8"/><ellipse cx="3249.25" cy="24" fill="#FFFFFF" rx="11" ry="11" style="stroke: #E3ECEC; stroke-width: 1.0;"/><path d="M3251.7031,29.6563 Q3251.1563,29.9375 3250.5547,30.0859 Q3249.9531,30.2344 3249.2813,30.2344 Q3246.9219,30.2344 3245.6797,28.6719 Q3244.4375,27.1094 3244.4375,24.1719 Q3244.4375,21.2344 3245.6797,19.6797 Q3246.9219,18.125 3249.2813,18.125 Q3249.9531,18.125 3250.5625,18.2656 Q3251.1719,18.4063 3251.7031,18.6875 L3251.7031,21.25 Q3251.1094,20.7031 3250.5469,20.4453 Q3249.9844,20.1875 3249.3906,20.1875 Q3248.125,20.1875 3247.4844,21.1953 Q3246.8438,22.2031 3246.8438,24.1719 Q3246.8438,26.1406 3247.4844,27.1484 Q3248.125,28.1563 3249.3906,28.1563 Q3249.9844,28.1563 3250.5469,27.8984 Q3251.1094,27.6406 3251.7031,27.0938 L3251.7031,29.6563 Z "/><text fill="#19273C" font-family="sans-serif" font-size="16" lengthAdjust="spacingAndGlyphs" textLength="224" x="3269.75" y="29.5391">BusinessNetworkConnection</text><line style="stroke: #E3ECEC; stroke-width: 1.5;" x1="3151" x2="3580" y1="40" y2="40"/><line style="stroke: #E3ECEC; stroke-width: 1.5;" x1="3151" x2="3580" y1="48" y2="48"/><ellipse cx="3161" cy="62.3125" fill="#84BE84" rx="3" ry="3" style="stroke: #038048; stroke-width: 1.0;"/><text fill="#19273C" font-family="sans-serif" font-size="16" lengthAdjust="spacingAndGlyphs" textLength="313" x="3170" y="66.8516">void constructor(Object,Object,boolean)</text><ellipse cx="3161" cy="80.9375" fill="#84BE84" rx="3" ry="3" style="stroke: #038048; stroke-width: 1.0;"/><text fill="#19273C" font-family="sans-serif" font-size="16" lengthAdjust="spacingAndGlyphs" textLength="386" x="3170" y="85.4766">BusinessNetworkDefinition getBusinessNetwork()</text><ellipse cx="3161" cy="99.5625" fill="#84BE84" rx="3" ry="3" style="stroke: #038048; stroke-width: 1.0;"/><text fill="#19273C" font-family="sans-serif" font-size="16" lengthAdjust="spacingAndGlyphs" textLength="367" x="3170" y="104.1016">Promise getAllAssetRegistries(SecurityContext)</text><ellipse cx="3161" cy="118.1875" fill="#84BE84" rx="3" ry="3" style="stroke: #038048; stroke-width: 1.0;"/><text fill="#19273C" font-family="sans-serif" font-size="16" lengthAdjust="spacingAndGlyphs" textLength="258" x="3170" y="122.7266">Promise getAssetRegistry(string)</text><ellipse cx="3161" cy="136.8125" fill="#84BE84" rx="3" ry="3" style="stroke: #038048; stroke-width: 1.0;"/><text fill="#19273C" font-family="sans-serif" font-size="16" lengthAdjust="spacingAndGlyphs" textLength="278" x="3170" y="141.3516">Promise assetRegistryExists(string)</text><ellipse cx="3161" cy="155.4375" fill="#84BE84" rx="3" ry="3" style="stroke: #038048; stroke-width: 1.0;"/><text fill="#19273C" font-family="sans-serif" font-size="16" lengthAdjust="spacingAndGlyphs" textLength="312" x="3170" y="159.9766">Promise addAssetRegistry(string,string)</text><ellipse cx="3161" cy="174.0625" fill="#84BE84" rx="3" ry="3" style="stroke: #038048; stroke-width: 1.0;"/><text fill="#19273C" font-family="sans-serif" font-size="16" lengthAdjust="spacingAndGlyphs" textLength="405" x="3170" y="178.6016">Promise getAllParticipantRegistries(SecurityContext)</text><ellipse cx="3161" cy="192.6875" fill="#84BE84" rx="3" ry="3" style="stroke: #038048; stroke-width: 1.0;"/><text fill="#19273C" font-family="sans-serif" font-size="16" lengthAdjust="spacingAndGlyphs" textLength="296" x="3170" y="197.2266">Promise getParticipantRegistry(string)</text><ellipse cx="3161" cy="211.3125" fill="#84BE84" rx="3" ry="3" style="stroke: #038048; stroke-width: 1.0;"/><text fill="#19273C" font-family="sans-serif" font-size="16" lengthAdjust="spacingAndGlyphs" textLength="318" x="3170" y="215.8516">Promise participantRegistryExists(string)</text><ellipse cx="3161" cy="229.9375" fill="#84BE84" rx="3" ry="3" style="stroke: #038048; stroke-width: 1.0;"/><text fill="#19273C" font-family="sans-serif" font-size="16" lengthAdjust="spacingAndGlyphs" textLength="350" x="3170" y="234.4766">Promise addParticipantRegistry(string,string)</text><ellipse cx="3161" cy="248.5625" fill="#84BE84" rx="3" ry="3" style="stroke: #038048; stroke-width: 1.0;"/><text fill="#19273C" font-family="sans-serif" font-size="16" lengthAdjust="spacingAndGlyphs" textLength="260" x="3170" y="253.1016">Promise getTransactionRegistry()</text><ellipse cx="3161" cy="267.1875" fill="#84BE84" rx="3" ry="3" style="stroke: #038048; stroke-width: 1.0;"/><text fill="#19273C" font-family="sans-serif" font-size="16" lengthAdjust="spacingAndGlyphs" textLength="227" x="3170" y="271.7266">Promise getIdentityRegistry()</text><ellipse cx="3161" cy="285.8125" fill="#84BE84" rx="3" ry="3" style="stroke: #038048; stroke-width: 1.0;"/><text fill="#19273C" font-family="sans-serif" font-size="16" lengthAdjust="spacingAndGlyphs" textLength="393" x="3170" y="290.3516">Promise connect(string,string,string,string,Object)</text><ellipse cx="3161" cy="304.4375" fill="#84BE84" rx="3" ry="3" style="stroke: #038048; stroke-width: 1.0;"/><text fill="#19273C" font-family="sans-serif" font-size="16" lengthAdjust="spacingAndGlyphs" textLength="165" x="3170" y="308.9766">Promise disconnect()</text><ellipse cx="3161" cy="323.0625" fill="#84BE84" rx="3" ry="3" style="stroke: #038048; stroke-width: 1.0;"/><text fill="#19273C" font-family="sans-serif" font-size="16" lengthAdjust="spacingAndGlyphs" textLength="298" x="3170" y="327.6016">Promise submitTransaction(Resource)</text><ellipse cx="3161" cy="341.6875" fill="#84BE84" rx="3" ry="3" style="stroke: #038048; stroke-width: 1.0;"/><text fill="#19273C" font-family="sans-serif" font-size="16" lengthAdjust="spacingAndGlyphs" textLength="194" x="3170" y="346.2266">Query buildQuery(string)</text><ellipse cx="3161" cy="360.3125" fill="#84BE84" rx="3" ry="3" style="stroke: #038048; stroke-width: 1.0;"/><text fill="#19273C" font-family="sans-serif" font-size="16" lengthAdjust="spacingAndGlyphs" textLength="175" x="3170" y="364.8516">Promise query(Object)</text><ellipse cx="3161" cy="378.9375" fill="#84BE84" rx="3" ry="3" style="stroke: #038048; stroke-width: 1.0;"/><text fill="#19273C" font-family="sans-serif" font-size="16" lengthAdjust="spacingAndGlyphs" textLength="113" x="3170" y="383.4766">Promise ping()</text><ellipse cx="3161" cy="397.5625" fill="#84BE84" rx="3" ry="3" style="stroke: #038048; stroke-width: 1.0;"/><text fill="#19273C" font-family="sans-serif" font-size="16" lengthAdjust="spacingAndGlyphs" textLength="341" x="3170" y="402.1016">Promise issueIdentity(string,object,boolean)</text><ellipse cx="3161" cy="416.1875" fill="#84BE84" rx="3" ry="3" style="stroke: #038048; stroke-width: 1.0;"/><text fill="#19273C" font-family="sans-serif" font-size="16" lengthAdjust="spacingAndGlyphs" textLength="216" x="3170" y="420.7266">Promise bindIdentity(string)</text><ellipse cx="3161" cy="434.8125" fill="#84BE84" rx="3" ry="3" style="stroke: #038048; stroke-width: 1.0;"/><text fill="#19273C" font-family="sans-serif" font-size="16" lengthAdjust="spacingAndGlyphs" textLength="191" x="3170" y="439.3516">Promise revokeIdentity()</text><!--class EventEmitter--><rect fill="#F8FAFA" height="48" rx="1" ry="1" style="stroke: #E3ECEC; stroke-width: 1.5;" width="132" x="3299.5" y="674.5"/><ellipse cx="3314.5" cy="690.5" fill="#FFFFFF" rx="11" ry="11" style="stroke: #E3ECEC; stroke-width: 1.0;"/><path d="M3316.9531,696.1563 Q3316.4063,696.4375 3315.8047,696.5859 Q3315.2031,696.7344 3314.5313,696.7344 Q3312.1719,696.7344 3310.9297,695.1719 Q3309.6875,693.6094 3309.6875,690.6719 Q3309.6875,687.7344 3310.9297,686.1797 Q3312.1719,684.625 3314.5313,684.625 Q3315.2031,684.625 3315.8125,684.7656 Q3316.4219,684.9063 3316.9531,685.1875 L3316.9531,687.75 Q3316.3594,687.2031 3315.7969,686.9453 Q3315.2344,686.6875 3314.6406,686.6875 Q3313.375,686.6875 3312.7344,687.6953 Q3312.0938,688.7031 3312.0938,690.6719 Q3312.0938,692.6406 3312.7344,693.6484 Q3313.375,694.6563 3314.6406,694.6563 Q3315.2344,694.6563 3315.7969,694.3984 Q3316.3594,694.1406 3316.9531,693.5938 L3316.9531,696.1563 Z "/><text fill="#19273C" font-family="sans-serif" font-size="16" lengthAdjust="spacingAndGlyphs" textLength="100" x="3328.5" y="696.0391">EventEmitter</text><line style="stroke: #E3ECEC; stroke-width: 1.5;" x1="3300.5" x2="3430.5" y1="706.5" y2="706.5"/><line style="stroke: #E3ECEC; stroke-width: 1.5;" x1="3300.5" x2="3430.5" y1="714.5" y2="714.5"/><path d="M473.665,298.125 C547.89,344.675 650.525,404.878 746.5,447 C883.175,506.984 1038.75,559.185 1176.01,600.181 " fill="none" style="stroke: #3C6DF0; stroke-width: 1.0;"/><polygon fill="none" points="1178.07,593.49,1195.25,605.891,1174.09,606.912,1178.07,593.49" style="stroke: #3C6DF0; stroke-width: 1.0;"/><path d="M1203.95,298.208 C1247.71,349.509 1309.61,422.087 1368.66,491.323 " fill="none" style="stroke: #3C6DF0; stroke-width: 1.0;"/><polygon fill="none" points="1374.34,487.204,1382,506.964,1363.69,496.289,1374.34,487.204" style="stroke: #3C6DF0; stroke-width: 1.0;"/><path d="M1901.82,279.584 C1858.01,330.831 1787.62,413.15 1720.86,491.232 " fill="none" style="stroke: #3C6DF0; stroke-width: 1.0;"/><polygon fill="none" points="1725.88,496.129,1707.57,506.781,1715.24,487.031,1725.88,496.129" style="stroke: #3C6DF0; stroke-width: 1.0;"/><path d="M2640.84,261.146 C2579.59,307.836 2460.26,393.892 2347.5,447 C2210.44,511.555 2052.59,564.928 1913.31,605.579 " fill="none" style="stroke: #3C6DF0; stroke-width: 1.0;"/><polygon fill="none" points="1914.94,612.394,1893.78,611.231,1911.05,598.946,1914.94,612.394" style="stroke: #3C6DF0; stroke-width: 1.0;"/><path d="M3365.5,447.209 C3365.5,525.55 3365.5,606.251 3365.5,654.128 " fill="none" style="stroke: #3C6DF0; stroke-width: 1.0;"/><polygon fill="none" points="3372.5,654.265,3365.5,674.265,3358.5,654.265,3372.5,654.265" style="stroke: #3C6DF0; stroke-width: 1.0;"/></g></svg>