<?xml version="1.0" encoding="UTF-8" standalone="no"?><svg xmlns="http://www.w3.org/2000/svg" xmlns:xlink="http://www.w3.org/1999/xlink" contentScriptType="application/ecmascript" contentStyleType="text/css" height="202px" preserveAspectRatio="none" style="width:554px;height:202px;" version="1.1" viewBox="0 0 554 202" width="554px" zoomAndPan="magnify"><defs/><g><!--class IllegalModelException--><rect fill="#F8FAFA" height="85.25" rx="1" ry="1" style="stroke: #E3ECEC; stroke-width: 1.5;" width="547" x="6" y="8"/><ellipse cx="193.25" cy="24" fill="#FFFFFF" rx="11" ry="11" style="stroke: #E3ECEC; stroke-width: 1.0;"/><path d="M195.7031,29.6563 Q195.1563,29.9375 194.5547,30.0859 Q193.9531,30.2344 193.2813,30.2344 Q190.9219,30.2344 189.6797,28.6719 Q188.4375,27.1094 188.4375,24.1719 Q188.4375,21.2344 189.6797,19.6797 Q190.9219,18.125 193.2813,18.125 Q193.9531,18.125 194.5625,18.2656 Q195.1719,18.4063 195.7031,18.6875 L195.7031,21.25 Q195.1094,20.7031 194.5469,20.4453 Q193.9844,20.1875 193.3906,20.1875 Q192.125,20.1875 191.4844,21.1953 Q190.8438,22.2031 190.8438,24.1719 Q190.8438,26.1406 191.4844,27.1484 Q192.125,28.1563 193.3906,28.1563 Q193.9844,28.1563 194.5469,27.8984 Q195.1094,27.6406 195.7031,27.0938 L195.7031,29.6563 Z "/><text fill="#19273C" font-family="sans-serif" font-size="16" lengthAdjust="spacingAndGlyphs" textLength="164" x="213.75" y="29.5391">IllegalModelException</text><line style="stroke: #E3ECEC; stroke-width: 1.5;" x1="7" x2="552" y1="40" y2="40"/><line style="stroke: #E3ECEC; stroke-width: 1.5;" x1="7" x2="552" y1="48" y2="48"/><ellipse cx="17" cy="62.3125" fill="#84BE84" rx="3" ry="3" style="stroke: #038048; stroke-width: 1.0;"/><text fill="#19273C" font-family="sans-serif" font-size="16" lengthAdjust="spacingAndGlyphs" textLength="521" x="26" y="66.8516">void constructor(String,ModelFile,Object,String,String,String,String)</text><ellipse cx="17" cy="80.9375" fill="#84BE84" rx="3" ry="3" style="stroke: #038048; stroke-width: 1.0;"/><text fill="#19273C" font-family="sans-serif" font-size="16" lengthAdjust="spacingAndGlyphs" textLength="156" x="26" y="85.4766">string getModelFile()</text><!--class BaseModelException--><rect fill="#F8FAFA" height="48" rx="1" ry="1" style="stroke: #E3ECEC; stroke-width: 1.5;" width="192" x="183.5" y="153"/><ellipse cx="198.5" cy="169" fill="#FFFFFF" rx="11" ry="11" style="stroke: #E3ECEC; stroke-width: 1.0;"/><path d="M200.9531,174.6563 Q200.4063,174.9375 199.8047,175.0859 Q199.2031,175.2344 198.5313,175.2344 Q196.1719,175.2344 194.9297,173.6719 Q193.6875,172.1094 193.6875,169.1719 Q193.6875,166.2344 194.9297,164.6797 Q196.1719,163.125 198.5313,163.125 Q199.2031,163.125 199.8125,163.2656 Q200.4219,163.4063 200.9531,163.6875 L200.9531,166.25 Q200.3594,165.7031 199.7969,165.4453 Q199.2344,165.1875 198.6406,165.1875 Q197.375,165.1875 196.7344,166.1953 Q196.0938,167.2031 196.0938,169.1719 Q196.0938,171.1406 196.7344,172.1484 Q197.375,173.1563 198.6406,173.1563 Q199.2344,173.1563 199.7969,172.8984 Q200.3594,172.6406 200.9531,172.0938 L200.9531,174.6563 Z "/><text fill="#19273C" font-family="sans-serif" font-size="16" lengthAdjust="spacingAndGlyphs" textLength="160" x="212.5" y="174.5391">BaseModelException</text><line style="stroke: #E3ECEC; stroke-width: 1.5;" x1="184.5" x2="374.5" y1="185" y2="185"/><line style="stroke: #E3ECEC; stroke-width: 1.5;" x1="184.5" x2="374.5" y1="193" y2="193"/><path d="M279.5,93.303 C279.5,106.0649 279.5,120.1166 279.5,132.959 " fill="none" style="stroke: #3C6DF0; stroke-width: 1.0;"/><polygon fill="none" points="286.5,132.9891,279.5,152.989,272.5,132.989,286.5,132.9891" style="stroke: #3C6DF0; stroke-width: 1.0;"/></g></svg>