<?xml version="1.0" encoding="UTF-8" standalone="no"?><svg xmlns="http://www.w3.org/2000/svg" xmlns:xlink="http://www.w3.org/1999/xlink" contentScriptType="application/ecmascript" contentStyleType="text/css" height="392px" preserveAspectRatio="none" style="width:705px;height:392px;" version="1.1" viewBox="0 0 705 392" width="705px" zoomAndPan="magnify"><defs/><g><!--class Registry--><rect fill="#F8FAFA" height="383.25" rx="1" ry="1" style="stroke: #E3ECEC; stroke-width: 1.5;" width="698" x="6" y="8"/><ellipse cx="318.75" cy="24" fill="#FFFFFF" rx="11" ry="11" style="stroke: #E3ECEC; stroke-width: 1.0;"/><path d="M321.2031,29.6563 Q320.6563,29.9375 320.0547,30.0859 Q319.4531,30.2344 318.7813,30.2344 Q316.4219,30.2344 315.1797,28.6719 Q313.9375,27.1094 313.9375,24.1719 Q313.9375,21.2344 315.1797,19.6797 Q316.4219,18.125 318.7813,18.125 Q319.4531,18.125 320.0625,18.2656 Q320.6719,18.4063 321.2031,18.6875 L321.2031,21.25 Q320.6094,20.7031 320.0469,20.4453 Q319.4844,20.1875 318.8906,20.1875 Q317.625,20.1875 316.9844,21.1953 Q316.3438,22.2031 316.3438,24.1719 Q316.3438,26.1406 316.9844,27.1484 Q317.625,28.1563 318.8906,28.1563 Q319.4844,28.1563 320.0469,27.8984 Q320.6094,27.6406 321.2031,27.0938 L321.2031,29.6563 Z "/><text fill="#19273C" font-family="sans-serif" font-size="16" lengthAdjust="spacingAndGlyphs" textLength="64" x="339.25" y="29.5391">Registry</text><line style="stroke: #E3ECEC; stroke-width: 1.5;" x1="7" x2="703" y1="40" y2="40"/><line style="stroke: #E3ECEC; stroke-width: 1.5;" x1="7" x2="703" y1="48" y2="48"/><ellipse cx="17" cy="62.3125" fill="#84BE84" rx="3" ry="3" style="stroke: #038048; stroke-width: 1.0;"/><text fill="#19273C" font-family="sans-serif" font-size="16" lengthAdjust="spacingAndGlyphs" textLength="373" x="26" y="66.8516">Promise getAllRegistries(SecurityContext,string)</text><ellipse cx="17" cy="80.9375" fill="#84BE84" rx="3" ry="3" style="stroke: #038048; stroke-width: 1.0;"/><text fill="#19273C" font-family="sans-serif" font-size="16" lengthAdjust="spacingAndGlyphs" textLength="394" x="26" y="85.4766">Promise getRegistry(SecurityContext,string,string)</text><ellipse cx="17" cy="99.5625" fill="#84BE84" rx="3" ry="3" style="stroke: #038048; stroke-width: 1.0;"/><text fill="#19273C" font-family="sans-serif" font-size="16" lengthAdjust="spacingAndGlyphs" textLength="415" x="26" y="104.1016">Promise existsRegistry(SecurityContext,string,string)</text><ellipse cx="17" cy="118.1875" fill="#84BE84" rx="3" ry="3" style="stroke: #038048; stroke-width: 1.0;"/><text fill="#19273C" font-family="sans-serif" font-size="16" lengthAdjust="spacingAndGlyphs" textLength="448" x="26" y="122.7266">Promise addRegistry(SecurityContext,string,string,string)</text><ellipse cx="17" cy="136.8125" fill="#84BE84" rx="3" ry="3" style="stroke: #038048; stroke-width: 1.0;"/><text fill="#19273C" font-family="sans-serif" font-size="16" lengthAdjust="spacingAndGlyphs" textLength="672" x="26" y="141.3516">void constructor(string,string,string,SecurityContext,ModelManager,Factory,Serializer)</text><ellipse cx="17" cy="155.4375" fill="#84BE84" rx="3" ry="3" style="stroke: #038048; stroke-width: 1.0;"/><text fill="#19273C" font-family="sans-serif" font-size="16" lengthAdjust="spacingAndGlyphs" textLength="212" x="26" y="159.9766">Promise addAll(Resource[])</text><ellipse cx="17" cy="174.0625" fill="#84BE84" rx="3" ry="3" style="stroke: #038048; stroke-width: 1.0;"/><text fill="#19273C" font-family="sans-serif" font-size="16" lengthAdjust="spacingAndGlyphs" textLength="183" x="26" y="178.6016">Promise add(Resource)</text><ellipse cx="17" cy="192.6875" fill="#84BE84" rx="3" ry="3" style="stroke: #038048; stroke-width: 1.0;"/><text fill="#19273C" font-family="sans-serif" font-size="16" lengthAdjust="spacingAndGlyphs" textLength="237" x="26" y="197.2266">Promise updateAll(Resource[])</text><ellipse cx="17" cy="211.3125" fill="#84BE84" rx="3" ry="3" style="stroke: #038048; stroke-width: 1.0;"/><text fill="#19273C" font-family="sans-serif" font-size="16" lengthAdjust="spacingAndGlyphs" textLength="208" x="26" y="215.8516">Promise update(Resource)</text><ellipse cx="17" cy="229.9375" fill="#84BE84" rx="3" ry="3" style="stroke: #038048; stroke-width: 1.0;"/><text fill="#19273C" font-family="sans-serif" font-size="16" lengthAdjust="spacingAndGlyphs" textLength="156" x="26" y="234.4766">Promise removeAll()</text><ellipse cx="17" cy="248.5625" fill="#84BE84" rx="3" ry="3" style="stroke: #038048; stroke-width: 1.0;"/><text fill="#19273C" font-family="sans-serif" font-size="16" lengthAdjust="spacingAndGlyphs" textLength="139" x="26" y="253.1016">Promise remove()</text><ellipse cx="17" cy="267.1875" fill="#84BE84" rx="3" ry="3" style="stroke: #038048; stroke-width: 1.0;"/><text fill="#19273C" font-family="sans-serif" font-size="16" lengthAdjust="spacingAndGlyphs" textLength="122" x="26" y="271.7266">Promise getAll()</text><ellipse cx="17" cy="285.8125" fill="#84BE84" rx="3" ry="3" style="stroke: #038048; stroke-width: 1.0;"/><text fill="#19273C" font-family="sans-serif" font-size="16" lengthAdjust="spacingAndGlyphs" textLength="150" x="26" y="290.3516">Promise get(string)</text><ellipse cx="17" cy="304.4375" fill="#84BE84" rx="3" ry="3" style="stroke: #038048; stroke-width: 1.0;"/><text fill="#19273C" font-family="sans-serif" font-size="16" lengthAdjust="spacingAndGlyphs" textLength="171" x="26" y="308.9766">Promise exists(string)</text><ellipse cx="17" cy="323.0625" fill="#84BE84" rx="3" ry="3" style="stroke: #038048; stroke-width: 1.0;"/><text fill="#19273C" font-family="sans-serif" font-size="16" lengthAdjust="spacingAndGlyphs" textLength="154" x="26" y="327.6016">Promise find(string)</text><ellipse cx="17" cy="341.6875" fill="#84BE84" rx="3" ry="3" style="stroke: #038048; stroke-width: 1.0;"/><text fill="#19273C" font-family="sans-serif" font-size="16" lengthAdjust="spacingAndGlyphs" textLength="170" x="26" y="346.2266">Promise query(string)</text><ellipse cx="17" cy="360.3125" fill="#84BE84" rx="3" ry="3" style="stroke: #038048; stroke-width: 1.0;"/><text fill="#19273C" font-family="sans-serif" font-size="16" lengthAdjust="spacingAndGlyphs" textLength="153" x="26" y="364.8516">Promise resolveAll()</text><ellipse cx="17" cy="378.9375" fill="#84BE84" rx="3" ry="3" style="stroke: #038048; stroke-width: 1.0;"/><text fill="#19273C" font-family="sans-serif" font-size="16" lengthAdjust="spacingAndGlyphs" textLength="181" x="26" y="383.4766">Promise resolve(string)</text></g></svg>