<?xml version="1.0" encoding="UTF-8" standalone="no"?><svg xmlns="http://www.w3.org/2000/svg" xmlns:xlink="http://www.w3.org/1999/xlink" contentScriptType="application/ecmascript" contentStyleType="text/css" height="556px" preserveAspectRatio="none" style="width:777px;height:556px;" version="1.1" viewBox="0 0 777 556" width="777px" zoomAndPan="magnify"><defs/><g><!--class Registry--><rect fill="#F8FAFA" height="383.25" rx="1" ry="1" style="stroke: #E3ECEC; stroke-width: 1.5;" width="698" x="42" y="172"/><ellipse cx="354.75" cy="188" fill="#FFFFFF" rx="11" ry="11" style="stroke: #E3ECEC; stroke-width: 1.0;"/><path d="M357.2031,193.6563 Q356.6563,193.9375 356.0547,194.0859 Q355.4531,194.2344 354.7813,194.2344 Q352.4219,194.2344 351.1797,192.6719 Q349.9375,191.1094 349.9375,188.1719 Q349.9375,185.2344 351.1797,183.6797 Q352.4219,182.125 354.7813,182.125 Q355.4531,182.125 356.0625,182.2656 Q356.6719,182.4063 357.2031,182.6875 L357.2031,185.25 Q356.6094,184.7031 356.0469,184.4453 Q355.4844,184.1875 354.8906,184.1875 Q353.625,184.1875 352.9844,185.1953 Q352.3438,186.2031 352.3438,188.1719 Q352.3438,190.1406 352.9844,191.1484 Q353.625,192.1563 354.8906,192.1563 Q355.4844,192.1563 356.0469,191.8984 Q356.6094,191.6406 357.2031,191.0938 L357.2031,193.6563 Z "/><text fill="#19273C" font-family="sans-serif" font-size="16" lengthAdjust="spacingAndGlyphs" textLength="64" x="375.25" y="193.5391">Registry</text><line style="stroke: #E3ECEC; stroke-width: 1.5;" x1="43" x2="739" y1="204" y2="204"/><line style="stroke: #E3ECEC; stroke-width: 1.5;" x1="43" x2="739" y1="212" y2="212"/><ellipse cx="53" cy="226.3125" fill="#84BE84" rx="3" ry="3" style="stroke: #038048; stroke-width: 1.0;"/><text fill="#19273C" font-family="sans-serif" font-size="16" lengthAdjust="spacingAndGlyphs" textLength="373" x="62" y="230.8516">Promise getAllRegistries(SecurityContext,string)</text><ellipse cx="53" cy="244.9375" fill="#84BE84" rx="3" ry="3" style="stroke: #038048; stroke-width: 1.0;"/><text fill="#19273C" font-family="sans-serif" font-size="16" lengthAdjust="spacingAndGlyphs" textLength="394" x="62" y="249.4766">Promise getRegistry(SecurityContext,string,string)</text><ellipse cx="53" cy="263.5625" fill="#84BE84" rx="3" ry="3" style="stroke: #038048; stroke-width: 1.0;"/><text fill="#19273C" font-family="sans-serif" font-size="16" lengthAdjust="spacingAndGlyphs" textLength="415" x="62" y="268.1016">Promise existsRegistry(SecurityContext,string,string)</text><ellipse cx="53" cy="282.1875" fill="#84BE84" rx="3" ry="3" style="stroke: #038048; stroke-width: 1.0;"/><text fill="#19273C" font-family="sans-serif" font-size="16" lengthAdjust="spacingAndGlyphs" textLength="448" x="62" y="286.7266">Promise addRegistry(SecurityContext,string,string,string)</text><ellipse cx="53" cy="300.8125" fill="#84BE84" rx="3" ry="3" style="stroke: #038048; stroke-width: 1.0;"/><text fill="#19273C" font-family="sans-serif" font-size="16" lengthAdjust="spacingAndGlyphs" textLength="672" x="62" y="305.3516">void constructor(string,string,string,SecurityContext,ModelManager,Factory,Serializer)</text><ellipse cx="53" cy="319.4375" fill="#84BE84" rx="3" ry="3" style="stroke: #038048; stroke-width: 1.0;"/><text fill="#19273C" font-family="sans-serif" font-size="16" lengthAdjust="spacingAndGlyphs" textLength="212" x="62" y="323.9766">Promise addAll(Resource[])</text><ellipse cx="53" cy="338.0625" fill="#84BE84" rx="3" ry="3" style="stroke: #038048; stroke-width: 1.0;"/><text fill="#19273C" font-family="sans-serif" font-size="16" lengthAdjust="spacingAndGlyphs" textLength="183" x="62" y="342.6016">Promise add(Resource)</text><ellipse cx="53" cy="356.6875" fill="#84BE84" rx="3" ry="3" style="stroke: #038048; stroke-width: 1.0;"/><text fill="#19273C" font-family="sans-serif" font-size="16" lengthAdjust="spacingAndGlyphs" textLength="237" x="62" y="361.2266">Promise updateAll(Resource[])</text><ellipse cx="53" cy="375.3125" fill="#84BE84" rx="3" ry="3" style="stroke: #038048; stroke-width: 1.0;"/><text fill="#19273C" font-family="sans-serif" font-size="16" lengthAdjust="spacingAndGlyphs" textLength="208" x="62" y="379.8516">Promise update(Resource)</text><ellipse cx="53" cy="393.9375" fill="#84BE84" rx="3" ry="3" style="stroke: #038048; stroke-width: 1.0;"/><text fill="#19273C" font-family="sans-serif" font-size="16" lengthAdjust="spacingAndGlyphs" textLength="156" x="62" y="398.4766">Promise removeAll()</text><ellipse cx="53" cy="412.5625" fill="#84BE84" rx="3" ry="3" style="stroke: #038048; stroke-width: 1.0;"/><text fill="#19273C" font-family="sans-serif" font-size="16" lengthAdjust="spacingAndGlyphs" textLength="139" x="62" y="417.1016">Promise remove()</text><ellipse cx="53" cy="431.1875" fill="#84BE84" rx="3" ry="3" style="stroke: #038048; stroke-width: 1.0;"/><text fill="#19273C" font-family="sans-serif" font-size="16" lengthAdjust="spacingAndGlyphs" textLength="122" x="62" y="435.7266">Promise getAll()</text><ellipse cx="53" cy="449.8125" fill="#84BE84" rx="3" ry="3" style="stroke: #038048; stroke-width: 1.0;"/><text fill="#19273C" font-family="sans-serif" font-size="16" lengthAdjust="spacingAndGlyphs" textLength="150" x="62" y="454.3516">Promise get(string)</text><ellipse cx="53" cy="468.4375" fill="#84BE84" rx="3" ry="3" style="stroke: #038048; stroke-width: 1.0;"/><text fill="#19273C" font-family="sans-serif" font-size="16" lengthAdjust="spacingAndGlyphs" textLength="171" x="62" y="472.9766">Promise exists(string)</text><ellipse cx="53" cy="487.0625" fill="#84BE84" rx="3" ry="3" style="stroke: #038048; stroke-width: 1.0;"/><text fill="#19273C" font-family="sans-serif" font-size="16" lengthAdjust="spacingAndGlyphs" textLength="154" x="62" y="491.6016">Promise find(string)</text><ellipse cx="53" cy="505.6875" fill="#84BE84" rx="3" ry="3" style="stroke: #038048; stroke-width: 1.0;"/><text fill="#19273C" font-family="sans-serif" font-size="16" lengthAdjust="spacingAndGlyphs" textLength="170" x="62" y="510.2266">Promise query(string)</text><ellipse cx="53" cy="524.3125" fill="#84BE84" rx="3" ry="3" style="stroke: #038048; stroke-width: 1.0;"/><text fill="#19273C" font-family="sans-serif" font-size="16" lengthAdjust="spacingAndGlyphs" textLength="153" x="62" y="528.8516">Promise resolveAll()</text><ellipse cx="53" cy="542.9375" fill="#84BE84" rx="3" ry="3" style="stroke: #038048; stroke-width: 1.0;"/><text fill="#19273C" font-family="sans-serif" font-size="16" lengthAdjust="spacingAndGlyphs" textLength="181" x="62" y="547.4766">Promise resolve(string)</text><!--class TransactionRegistry--><rect fill="#F8FAFA" height="103.875" rx="1" ry="1" style="stroke: #E3ECEC; stroke-width: 1.5;" width="770" x="6" y="8"/><ellipse cx="309.25" cy="24" fill="#FFFFFF" rx="11" ry="11" style="stroke: #E3ECEC; stroke-width: 1.0;"/><path d="M311.7031,29.6563 Q311.1563,29.9375 310.5547,30.0859 Q309.9531,30.2344 309.2813,30.2344 Q306.9219,30.2344 305.6797,28.6719 Q304.4375,27.1094 304.4375,24.1719 Q304.4375,21.2344 305.6797,19.6797 Q306.9219,18.125 309.2813,18.125 Q309.9531,18.125 310.5625,18.2656 Q311.1719,18.4063 311.7031,18.6875 L311.7031,21.25 Q311.1094,20.7031 310.5469,20.4453 Q309.9844,20.1875 309.3906,20.1875 Q308.125,20.1875 307.4844,21.1953 Q306.8438,22.2031 306.8438,24.1719 Q306.8438,26.1406 307.4844,27.1484 Q308.125,28.1563 309.3906,28.1563 Q309.9844,28.1563 310.5469,27.8984 Q311.1094,27.6406 311.7031,27.0938 L311.7031,29.6563 Z "/><text fill="#19273C" font-family="sans-serif" font-size="16" lengthAdjust="spacingAndGlyphs" textLength="155" x="329.75" y="29.5391">TransactionRegistry</text><line style="stroke: #E3ECEC; stroke-width: 1.5;" x1="7" x2="775" y1="40" y2="40"/><line style="stroke: #E3ECEC; stroke-width: 1.5;" x1="7" x2="775" y1="48" y2="48"/><ellipse cx="17" cy="62.3125" fill="#84BE84" rx="3" ry="3" style="stroke: #038048; stroke-width: 1.0;"/><text fill="#19273C" font-family="sans-serif" font-size="16" lengthAdjust="spacingAndGlyphs" textLength="669" x="26" y="66.8516">Promise getAllTransactionRegistries(SecurityContext,ModelManager,Factory,Serializer)</text><ellipse cx="17" cy="80.9375" fill="#84BE84" rx="3" ry="3" style="stroke: #038048; stroke-width: 1.0;"/><text fill="#19273C" font-family="sans-serif" font-size="16" lengthAdjust="spacingAndGlyphs" textLength="690" x="26" y="85.4766">Promise getTransactionRegistry(SecurityContext,string,ModelManager,Factory,Serializer)</text><ellipse cx="17" cy="99.5625" fill="#84BE84" rx="3" ry="3" style="stroke: #038048; stroke-width: 1.0;"/><text fill="#19273C" font-family="sans-serif" font-size="16" lengthAdjust="spacingAndGlyphs" textLength="744" x="26" y="104.1016">Promise addTransactionRegistry(SecurityContext,string,string,ModelManager,Factory,Serializer)</text><path d="M391,112.145 C391,124.1 391,137.567 391,151.896 " fill="none" style="stroke: #3C6DF0; stroke-width: 1.0;"/><polygon fill="none" points="398,151.908,391,171.908,384,151.908,398,151.908" style="stroke: #3C6DF0; stroke-width: 1.0;"/></g></svg>