<?xml version="1.0" encoding="UTF-8" standalone="no"?><svg xmlns="http://www.w3.org/2000/svg" xmlns:xlink="http://www.w3.org/1999/xlink" contentScriptType="application/ecmascript" contentStyleType="text/css" height="448px" preserveAspectRatio="none" style="width:463px;height:448px;" version="1.1" viewBox="0 0 463 448" width="463px" zoomAndPan="magnify"><defs/><g><!--class AdminConnection--><rect fill="#F8FAFA" height="439.125" rx="1" ry="1" style="stroke: #E3ECEC; stroke-width: 1.5;" width="456" x="6" y="8"/><ellipse cx="161.25" cy="24" fill="#FFFFFF" rx="11" ry="11" style="stroke: #E3ECEC; stroke-width: 1.0;"/><path d="M163.7031,29.6563 Q163.1563,29.9375 162.5547,30.0859 Q161.9531,30.2344 161.2813,30.2344 Q158.9219,30.2344 157.6797,28.6719 Q156.4375,27.1094 156.4375,24.1719 Q156.4375,21.2344 157.6797,19.6797 Q158.9219,18.125 161.2813,18.125 Q161.9531,18.125 162.5625,18.2656 Q163.1719,18.4063 163.7031,18.6875 L163.7031,21.25 Q163.1094,20.7031 162.5469,20.4453 Q161.9844,20.1875 161.3906,20.1875 Q160.125,20.1875 159.4844,21.1953 Q158.8438,22.2031 158.8438,24.1719 Q158.8438,26.1406 159.4844,27.1484 Q160.125,28.1563 161.3906,28.1563 Q161.9844,28.1563 162.5469,27.8984 Q163.1094,27.6406 163.7031,27.0938 L163.7031,29.6563 Z "/><text fill="#19273C" font-family="sans-serif" font-size="16" lengthAdjust="spacingAndGlyphs" textLength="137" x="181.75" y="29.5391">AdminConnection</text><line style="stroke: #E3ECEC; stroke-width: 1.5;" x1="7" x2="461" y1="40" y2="40"/><line style="stroke: #E3ECEC; stroke-width: 1.5;" x1="7" x2="461" y1="48" y2="48"/><ellipse cx="17" cy="62.3125" fill="#84BE84" rx="3" ry="3" style="stroke: #038048; stroke-width: 1.0;"/><text fill="#19273C" font-family="sans-serif" font-size="16" lengthAdjust="spacingAndGlyphs" textLength="430" x="26" y="66.8516">void constructor(Object,ConnectionProfileStore,Object)</text><ellipse cx="17" cy="80.9375" fill="#84BE84" rx="3" ry="3" style="stroke: #038048; stroke-width: 1.0;"/><text fill="#19273C" font-family="sans-serif" font-size="16" lengthAdjust="spacingAndGlyphs" textLength="277" x="26" y="85.4766">Promise createProfile(string,Object)</text><ellipse cx="17" cy="99.5625" fill="#84BE84" rx="3" ry="3" style="stroke: #038048; stroke-width: 1.0;"/><text fill="#19273C" font-family="sans-serif" font-size="16" lengthAdjust="spacingAndGlyphs" textLength="219" x="26" y="104.1016">Promise deleteProfile(string)</text><ellipse cx="17" cy="118.1875" fill="#84BE84" rx="3" ry="3" style="stroke: #038048; stroke-width: 1.0;"/><text fill="#19273C" font-family="sans-serif" font-size="16" lengthAdjust="spacingAndGlyphs" textLength="198" x="26" y="122.7266">Promise getProfile(string)</text><ellipse cx="17" cy="136.8125" fill="#84BE84" rx="3" ry="3" style="stroke: #038048; stroke-width: 1.0;"/><text fill="#19273C" font-family="sans-serif" font-size="16" lengthAdjust="spacingAndGlyphs" textLength="179" x="26" y="141.3516">Promise getAllProfiles()</text><ellipse cx="17" cy="155.4375" fill="#84BE84" rx="3" ry="3" style="stroke: #038048; stroke-width: 1.0;"/><text fill="#19273C" font-family="sans-serif" font-size="16" lengthAdjust="spacingAndGlyphs" textLength="338" x="26" y="159.9766">Promise connect(string,string,string,string)</text><ellipse cx="17" cy="174.0625" fill="#84BE84" rx="3" ry="3" style="stroke: #038048; stroke-width: 1.0;"/><text fill="#19273C" font-family="sans-serif" font-size="16" lengthAdjust="spacingAndGlyphs" textLength="165" x="26" y="178.6016">Promise disconnect()</text><ellipse cx="17" cy="192.6875" fill="#84BE84" rx="3" ry="3" style="stroke: #038048; stroke-width: 1.0;"/><text fill="#19273C" font-family="sans-serif" font-size="16" lengthAdjust="spacingAndGlyphs" textLength="382" x="26" y="197.2266">Promise install(BusinessNetworkIdentifier,Object)</text><ellipse cx="17" cy="211.3125" fill="#84BE84" rx="3" ry="3" style="stroke: #038048; stroke-width: 1.0;"/><text fill="#19273C" font-family="sans-serif" font-size="16" lengthAdjust="spacingAndGlyphs" textLength="380" x="26" y="215.8516">Promise start(BusinessNetworkDefinition,Object)</text><ellipse cx="17" cy="229.9375" fill="#84BE84" rx="3" ry="3" style="stroke: #038048; stroke-width: 1.0;"/><text fill="#19273C" font-family="sans-serif" font-size="16" lengthAdjust="spacingAndGlyphs" textLength="394" x="26" y="234.4766">Promise deploy(BusinessNetworkDefinition,Object)</text><ellipse cx="17" cy="248.5625" fill="#84BE84" rx="3" ry="3" style="stroke: #038048; stroke-width: 1.0;"/><text fill="#19273C" font-family="sans-serif" font-size="16" lengthAdjust="spacingAndGlyphs" textLength="355" x="26" y="253.1016">Promise undeploy(BusinessNetworkIdentifier)</text><ellipse cx="17" cy="267.1875" fill="#84BE84" rx="3" ry="3" style="stroke: #038048; stroke-width: 1.0;"/><text fill="#19273C" font-family="sans-serif" font-size="16" lengthAdjust="spacingAndGlyphs" textLength="342" x="26" y="271.7266">Promise update(BusinessNetworkDefinition)</text><ellipse cx="17" cy="285.8125" fill="#84BE84" rx="3" ry="3" style="stroke: #038048; stroke-width: 1.0;"/><text fill="#19273C" font-family="sans-serif" font-size="16" lengthAdjust="spacingAndGlyphs" textLength="324" x="26" y="290.3516">Promise reset(BusinessNetworkIdentifier)</text><ellipse cx="17" cy="304.4375" fill="#84BE84" rx="3" ry="3" style="stroke: #038048; stroke-width: 1.0;"/><text fill="#19273C" font-family="sans-serif" font-size="16" lengthAdjust="spacingAndGlyphs" textLength="145" x="26" y="308.9766">Promise upgrade()</text><ellipse cx="17" cy="323.0625" fill="#84BE84" rx="3" ry="3" style="stroke: #038048; stroke-width: 1.0;"/><text fill="#19273C" font-family="sans-serif" font-size="16" lengthAdjust="spacingAndGlyphs" textLength="113" x="26" y="327.6016">Promise ping()</text><ellipse cx="17" cy="341.6875" fill="#84BE84" rx="3" ry="3" style="stroke: #038048; stroke-width: 1.0;"/><text fill="#19273C" font-family="sans-serif" font-size="16" lengthAdjust="spacingAndGlyphs" textLength="200" x="26" y="346.2266">Promise setLogLevel(any)</text><ellipse cx="17" cy="360.3125" fill="#84BE84" rx="3" ry="3" style="stroke: #038048; stroke-width: 1.0;"/><text fill="#19273C" font-family="sans-serif" font-size="16" lengthAdjust="spacingAndGlyphs" textLength="173" x="26" y="364.8516">Promise getLogLevel()</text><ellipse cx="17" cy="378.9375" fill="#84BE84" rx="3" ry="3" style="stroke: #038048; stroke-width: 1.0;"/><text fill="#19273C" font-family="sans-serif" font-size="16" lengthAdjust="spacingAndGlyphs" textLength="101" x="26" y="383.4766">Promise list()</text><ellipse cx="17" cy="397.5625" fill="#84BE84" rx="3" ry="3" style="stroke: #038048; stroke-width: 1.0;"/><text fill="#19273C" font-family="sans-serif" font-size="16" lengthAdjust="spacingAndGlyphs" textLength="384" x="26" y="402.1016">Promise importIdentity(string,string,string,string)</text><ellipse cx="17" cy="416.1875" fill="#84BE84" rx="3" ry="3" style="stroke: #038048; stroke-width: 1.0;"/><text fill="#19273C" font-family="sans-serif" font-size="16" lengthAdjust="spacingAndGlyphs" textLength="343" x="26" y="420.7266">Promise requestIdentity(string,string,string)</text><ellipse cx="17" cy="434.8125" fill="#84BE84" rx="3" ry="3" style="stroke: #038048; stroke-width: 1.0;"/><text fill="#19273C" font-family="sans-serif" font-size="16" lengthAdjust="spacingAndGlyphs" textLength="287" x="26" y="439.3516">Promise exportIdentity(String,String)</text></g></svg>