<?xml version="1.0" encoding="UTF-8" standalone="no"?><svg xmlns="http://www.w3.org/2000/svg" xmlns:xlink="http://www.w3.org/1999/xlink" contentScriptType="application/ecmascript" contentStyleType="text/css" height="929px" preserveAspectRatio="none" style="width:4901px;height:929px;" version="1.1" viewBox="0 0 4901 929" width="4901px" zoomAndPan="magnify"><defs/><g><!--class Registry--><rect fill="#F8FAFA" height="346" rx="1" ry="1" style="stroke: #E3ECEC; stroke-width: 1.5;" width="927" x="1461.5" y="582"/><ellipse cx="1888.75" cy="598" fill="#FFFFFF" rx="11" ry="11" style="stroke: #E3ECEC; stroke-width: 1.0;"/><path d="M1891.2031,603.6563 Q1890.6563,603.9375 1890.0547,604.0859 Q1889.4531,604.2344 1888.7813,604.2344 Q1886.4219,604.2344 1885.1797,602.6719 Q1883.9375,601.1094 1883.9375,598.1719 Q1883.9375,595.2344 1885.1797,593.6797 Q1886.4219,592.125 1888.7813,592.125 Q1889.4531,592.125 1890.0625,592.2656 Q1890.6719,592.4063 1891.2031,592.6875 L1891.2031,595.25 Q1890.6094,594.7031 1890.0469,594.4453 Q1889.4844,594.1875 1888.8906,594.1875 Q1887.625,594.1875 1886.9844,595.1953 Q1886.3438,596.2031 1886.3438,598.1719 Q1886.3438,600.1406 1886.9844,601.1484 Q1887.625,602.1563 1888.8906,602.1563 Q1889.4844,602.1563 1890.0469,601.8984 Q1890.6094,601.6406 1891.2031,601.0938 L1891.2031,603.6563 Z "/><text fill="#19273C" font-family="sans-serif" font-size="16" lengthAdjust="spacingAndGlyphs" textLength="64" x="1909.25" y="603.5391">Registry</text><line style="stroke: #E3ECEC; stroke-width: 1.5;" x1="1462.5" x2="2387.5" y1="614" y2="614"/><line style="stroke: #E3ECEC; stroke-width: 1.5;" x1="1462.5" x2="2387.5" y1="622" y2="622"/><ellipse cx="1472.5" cy="636.3125" fill="#84BE84" rx="3" ry="3" style="stroke: #038048; stroke-width: 1.0;"/><text fill="#19273C" font-family="sans-serif" font-size="16" lengthAdjust="spacingAndGlyphs" textLength="439" x="1481.5" y="640.8516">Promise getAllRegistries(SecurityContext,string,boolean)</text><ellipse cx="1472.5" cy="654.9375" fill="#84BE84" rx="3" ry="3" style="stroke: #038048; stroke-width: 1.0;"/><text fill="#19273C" font-family="sans-serif" font-size="16" lengthAdjust="spacingAndGlyphs" textLength="394" x="1481.5" y="659.4766">Promise getRegistry(SecurityContext,string,string)</text><ellipse cx="1472.5" cy="673.5625" fill="#84BE84" rx="3" ry="3" style="stroke: #038048; stroke-width: 1.0;"/><text fill="#19273C" font-family="sans-serif" font-size="16" lengthAdjust="spacingAndGlyphs" textLength="415" x="1481.5" y="678.1016">Promise existsRegistry(SecurityContext,string,string)</text><ellipse cx="1472.5" cy="692.1875" fill="#84BE84" rx="3" ry="3" style="stroke: #038048; stroke-width: 1.0;"/><text fill="#19273C" font-family="sans-serif" font-size="16" lengthAdjust="spacingAndGlyphs" textLength="448" x="1481.5" y="696.7266">Promise addRegistry(SecurityContext,string,string,string)</text><ellipse cx="1472.5" cy="710.8125" fill="#84BE84" rx="3" ry="3" style="stroke: #038048; stroke-width: 1.0;"/><text fill="#19273C" font-family="sans-serif" font-size="16" lengthAdjust="spacingAndGlyphs" textLength="901" x="1481.5" y="715.3516">void constructor(string,string,string,SecurityContext,ModelManager,Factory,Serializer,BusinessNetworkConnection)</text><ellipse cx="1472.5" cy="729.4375" fill="#84BE84" rx="3" ry="3" style="stroke: #038048; stroke-width: 1.0;"/><text fill="#19273C" font-family="sans-serif" font-size="16" lengthAdjust="spacingAndGlyphs" textLength="212" x="1481.5" y="733.9766">Promise addAll(Resource[])</text><ellipse cx="1472.5" cy="748.0625" fill="#84BE84" rx="3" ry="3" style="stroke: #038048; stroke-width: 1.0;"/><text fill="#19273C" font-family="sans-serif" font-size="16" lengthAdjust="spacingAndGlyphs" textLength="183" x="1481.5" y="752.6016">Promise add(Resource)</text><ellipse cx="1472.5" cy="766.6875" fill="#84BE84" rx="3" ry="3" style="stroke: #038048; stroke-width: 1.0;"/><text fill="#19273C" font-family="sans-serif" font-size="16" lengthAdjust="spacingAndGlyphs" textLength="237" x="1481.5" y="771.2266">Promise updateAll(Resource[])</text><ellipse cx="1472.5" cy="785.3125" fill="#84BE84" rx="3" ry="3" style="stroke: #038048; stroke-width: 1.0;"/><text fill="#19273C" font-family="sans-serif" font-size="16" lengthAdjust="spacingAndGlyphs" textLength="208" x="1481.5" y="789.8516">Promise update(Resource)</text><ellipse cx="1472.5" cy="803.9375" fill="#84BE84" rx="3" ry="3" style="stroke: #038048; stroke-width: 1.0;"/><text fill="#19273C" font-family="sans-serif" font-size="16" lengthAdjust="spacingAndGlyphs" textLength="156" x="1481.5" y="808.4766">Promise removeAll()</text><ellipse cx="1472.5" cy="822.5625" fill="#84BE84" rx="3" ry="3" style="stroke: #038048; stroke-width: 1.0;"/><text fill="#19273C" font-family="sans-serif" font-size="16" lengthAdjust="spacingAndGlyphs" textLength="139" x="1481.5" y="827.1016">Promise remove()</text><ellipse cx="1472.5" cy="841.1875" fill="#84BE84" rx="3" ry="3" style="stroke: #038048; stroke-width: 1.0;"/><text fill="#19273C" font-family="sans-serif" font-size="16" lengthAdjust="spacingAndGlyphs" textLength="122" x="1481.5" y="845.7266">Promise getAll()</text><ellipse cx="1472.5" cy="859.8125" fill="#84BE84" rx="3" ry="3" style="stroke: #038048; stroke-width: 1.0;"/><text fill="#19273C" font-family="sans-serif" font-size="16" lengthAdjust="spacingAndGlyphs" textLength="150" x="1481.5" y="864.3516">Promise get(string)</text><ellipse cx="1472.5" cy="878.4375" fill="#84BE84" rx="3" ry="3" style="stroke: #038048; stroke-width: 1.0;"/><text fill="#19273C" font-family="sans-serif" font-size="16" lengthAdjust="spacingAndGlyphs" textLength="171" x="1481.5" y="882.9766">Promise exists(string)</text><ellipse cx="1472.5" cy="897.0625" fill="#84BE84" rx="3" ry="3" style="stroke: #038048; stroke-width: 1.0;"/><text fill="#19273C" font-family="sans-serif" font-size="16" lengthAdjust="spacingAndGlyphs" textLength="153" x="1481.5" y="901.6016">Promise resolveAll()</text><ellipse cx="1472.5" cy="915.6875" fill="#84BE84" rx="3" ry="3" style="stroke: #038048; stroke-width: 1.0;"/><text fill="#19273C" font-family="sans-serif" font-size="16" lengthAdjust="spacingAndGlyphs" textLength="181" x="1481.5" y="920.2266">Promise resolve(string)</text><!--class AssetRegistry--><rect fill="#F8FAFA" height="141.125" rx="1" ry="1" style="stroke: #E3ECEC; stroke-width: 1.5;" width="952" x="6" y="194.5"/><ellipse cx="423.75" cy="210.5" fill="#FFFFFF" rx="11" ry="11" style="stroke: #E3ECEC; stroke-width: 1.0;"/><path d="M426.2031,216.1563 Q425.6563,216.4375 425.0547,216.5859 Q424.4531,216.7344 423.7813,216.7344 Q421.4219,216.7344 420.1797,215.1719 Q418.9375,213.6094 418.9375,210.6719 Q418.9375,207.7344 420.1797,206.1797 Q421.4219,204.625 423.7813,204.625 Q424.4531,204.625 425.0625,204.7656 Q425.6719,204.9063 426.2031,205.1875 L426.2031,207.75 Q425.6094,207.2031 425.0469,206.9453 Q424.4844,206.6875 423.8906,206.6875 Q422.625,206.6875 421.9844,207.6953 Q421.3438,208.7031 421.3438,210.6719 Q421.3438,212.6406 421.9844,213.6484 Q422.625,214.6563 423.8906,214.6563 Q424.4844,214.6563 425.0469,214.3984 Q425.6094,214.1406 426.2031,213.5938 L426.2031,216.1563 Z "/><text fill="#19273C" font-family="sans-serif" font-size="16" lengthAdjust="spacingAndGlyphs" textLength="108" x="444.25" y="216.0391">AssetRegistry</text><line style="stroke: #E3ECEC; stroke-width: 1.5;" x1="7" x2="957" y1="226.5" y2="226.5"/><line style="stroke: #E3ECEC; stroke-width: 1.5;" x1="7" x2="957" y1="234.5" y2="234.5"/><ellipse cx="17" cy="248.8125" fill="#84BE84" rx="3" ry="3" style="stroke: #038048; stroke-width: 1.0;"/><text fill="#19273C" font-family="sans-serif" font-size="16" lengthAdjust="spacingAndGlyphs" textLength="918" x="26" y="253.3516">Promise getAllAssetRegistries(SecurityContext,ModelManager,Factory,Serializer,BusinessNetworkConnection,Boolean)</text><ellipse cx="17" cy="267.4375" fill="#84BE84" rx="3" ry="3" style="stroke: #038048; stroke-width: 1.0;"/><text fill="#19273C" font-family="sans-serif" font-size="16" lengthAdjust="spacingAndGlyphs" textLength="872" x="26" y="271.9766">Promise getAssetRegistry(SecurityContext,string,ModelManager,Factory,Serializer,BusinessNetworkConnection)</text><ellipse cx="17" cy="286.0625" fill="#84BE84" rx="3" ry="3" style="stroke: #038048; stroke-width: 1.0;"/><text fill="#19273C" font-family="sans-serif" font-size="16" lengthAdjust="spacingAndGlyphs" textLength="663" x="26" y="290.6016">Promise assetRegistryExists(SecurityContext,string,ModelManager,Factory,Serializer)</text><ellipse cx="17" cy="304.6875" fill="#84BE84" rx="3" ry="3" style="stroke: #038048; stroke-width: 1.0;"/><text fill="#19273C" font-family="sans-serif" font-size="16" lengthAdjust="spacingAndGlyphs" textLength="926" x="26" y="309.2266">Promise addAssetRegistry(SecurityContext,string,string,ModelManager,Factory,Serializer,BusinessNetworkConnection)</text><ellipse cx="17" cy="323.3125" fill="#84BE84" rx="3" ry="3" style="stroke: #038048; stroke-width: 1.0;"/><text fill="#19273C" font-family="sans-serif" font-size="16" lengthAdjust="spacingAndGlyphs" textLength="851" x="26" y="327.8516">void constructor(string,string,SecurityContext,ModelManager,Factory,Serializer,BusinessNetworkConnection)</text><!--class Historian--><rect fill="#F8FAFA" height="66.625" rx="1" ry="1" style="stroke: #E3ECEC; stroke-width: 1.5;" width="580" x="993" y="231.5"/><ellipse cx="1244.25" cy="247.5" fill="#FFFFFF" rx="11" ry="11" style="stroke: #E3ECEC; stroke-width: 1.0;"/><path d="M1246.7031,253.1563 Q1246.1563,253.4375 1245.5547,253.5859 Q1244.9531,253.7344 1244.2813,253.7344 Q1241.9219,253.7344 1240.6797,252.1719 Q1239.4375,250.6094 1239.4375,247.6719 Q1239.4375,244.7344 1240.6797,243.1797 Q1241.9219,241.625 1244.2813,241.625 Q1244.9531,241.625 1245.5625,241.7656 Q1246.1719,241.9063 1246.7031,242.1875 L1246.7031,244.75 Q1246.1094,244.2031 1245.5469,243.9453 Q1244.9844,243.6875 1244.3906,243.6875 Q1243.125,243.6875 1242.4844,244.6953 Q1241.8438,245.7031 1241.8438,247.6719 Q1241.8438,249.6406 1242.4844,250.6484 Q1243.125,251.6563 1244.3906,251.6563 Q1244.9844,251.6563 1245.5469,251.3984 Q1246.1094,251.1406 1246.7031,250.5938 L1246.7031,253.1563 Z "/><text fill="#19273C" font-family="sans-serif" font-size="16" lengthAdjust="spacingAndGlyphs" textLength="69" x="1264.75" y="253.0391">Historian</text><line style="stroke: #E3ECEC; stroke-width: 1.5;" x1="994" x2="1572" y1="263.5" y2="263.5"/><line style="stroke: #E3ECEC; stroke-width: 1.5;" x1="994" x2="1572" y1="271.5" y2="271.5"/><ellipse cx="1004" cy="285.8125" fill="#84BE84" rx="3" ry="3" style="stroke: #038048; stroke-width: 1.0;"/><text fill="#19273C" font-family="sans-serif" font-size="16" lengthAdjust="spacingAndGlyphs" textLength="554" x="1013" y="290.3516">Promise getHistorian(SecurityContext,ModelManager,Factory,Serializer)</text><!--class IdentityRegistry--><rect fill="#F8FAFA" height="66.625" rx="1" ry="1" style="stroke: #E3ECEC; stroke-width: 1.5;" width="633" x="1608.5" y="231.5"/><ellipse cx="1859.75" cy="247.5" fill="#FFFFFF" rx="11" ry="11" style="stroke: #E3ECEC; stroke-width: 1.0;"/><path d="M1862.2031,253.1563 Q1861.6563,253.4375 1861.0547,253.5859 Q1860.4531,253.7344 1859.7813,253.7344 Q1857.4219,253.7344 1856.1797,252.1719 Q1854.9375,250.6094 1854.9375,247.6719 Q1854.9375,244.7344 1856.1797,243.1797 Q1857.4219,241.625 1859.7813,241.625 Q1860.4531,241.625 1861.0625,241.7656 Q1861.6719,241.9063 1862.2031,242.1875 L1862.2031,244.75 Q1861.6094,244.2031 1861.0469,243.9453 Q1860.4844,243.6875 1859.8906,243.6875 Q1858.625,243.6875 1857.9844,244.6953 Q1857.3438,245.7031 1857.3438,247.6719 Q1857.3438,249.6406 1857.9844,250.6484 Q1858.625,251.6563 1859.8906,251.6563 Q1860.4844,251.6563 1861.0469,251.3984 Q1861.6094,251.1406 1862.2031,250.5938 L1862.2031,253.1563 Z "/><text fill="#19273C" font-family="sans-serif" font-size="16" lengthAdjust="spacingAndGlyphs" textLength="122" x="1880.25" y="253.0391">IdentityRegistry</text><line style="stroke: #E3ECEC; stroke-width: 1.5;" x1="1609.5" x2="2240.5" y1="263.5" y2="263.5"/><line style="stroke: #E3ECEC; stroke-width: 1.5;" x1="1609.5" x2="2240.5" y1="271.5" y2="271.5"/><ellipse cx="1619.5" cy="285.8125" fill="#84BE84" rx="3" ry="3" style="stroke: #038048; stroke-width: 1.0;"/><text fill="#19273C" font-family="sans-serif" font-size="16" lengthAdjust="spacingAndGlyphs" textLength="607" x="1628.5" y="290.3516">Promise getIdentityRegistry(SecurityContext,ModelManager,Factory,Serializer)</text><!--class ParticipantRegistry--><rect fill="#F8FAFA" height="141.125" rx="1" ry="1" style="stroke: #E3ECEC; stroke-width: 1.5;" width="990" x="2277" y="194.5"/><ellipse cx="2694.75" cy="210.5" fill="#FFFFFF" rx="11" ry="11" style="stroke: #E3ECEC; stroke-width: 1.0;"/><path d="M2697.2031,216.1563 Q2696.6563,216.4375 2696.0547,216.5859 Q2695.4531,216.7344 2694.7813,216.7344 Q2692.4219,216.7344 2691.1797,215.1719 Q2689.9375,213.6094 2689.9375,210.6719 Q2689.9375,207.7344 2691.1797,206.1797 Q2692.4219,204.625 2694.7813,204.625 Q2695.4531,204.625 2696.0625,204.7656 Q2696.6719,204.9063 2697.2031,205.1875 L2697.2031,207.75 Q2696.6094,207.2031 2696.0469,206.9453 Q2695.4844,206.6875 2694.8906,206.6875 Q2693.625,206.6875 2692.9844,207.6953 Q2692.3438,208.7031 2692.3438,210.6719 Q2692.3438,212.6406 2692.9844,213.6484 Q2693.625,214.6563 2694.8906,214.6563 Q2695.4844,214.6563 2696.0469,214.3984 Q2696.6094,214.1406 2697.2031,213.5938 L2697.2031,216.1563 Z "/><text fill="#19273C" font-family="sans-serif" font-size="16" lengthAdjust="spacingAndGlyphs" textLength="146" x="2715.25" y="216.0391">ParticipantRegistry</text><line style="stroke: #E3ECEC; stroke-width: 1.5;" x1="2278" x2="3266" y1="226.5" y2="226.5"/><line style="stroke: #E3ECEC; stroke-width: 1.5;" x1="2278" x2="3266" y1="234.5" y2="234.5"/><ellipse cx="2288" cy="248.8125" fill="#84BE84" rx="3" ry="3" style="stroke: #038048; stroke-width: 1.0;"/><text fill="#19273C" font-family="sans-serif" font-size="16" lengthAdjust="spacingAndGlyphs" textLength="956" x="2297" y="253.3516">Promise getAllParticipantRegistries(SecurityContext,ModelManager,Factory,Serializer,BusinessNetworkConnection,Boolean)</text><ellipse cx="2288" cy="267.4375" fill="#84BE84" rx="3" ry="3" style="stroke: #038048; stroke-width: 1.0;"/><text fill="#19273C" font-family="sans-serif" font-size="16" lengthAdjust="spacingAndGlyphs" textLength="910" x="2297" y="271.9766">Promise getParticipantRegistry(SecurityContext,string,ModelManager,Factory,Serializer,BusinessNetworkConnection)</text><ellipse cx="2288" cy="286.0625" fill="#84BE84" rx="3" ry="3" style="stroke: #038048; stroke-width: 1.0;"/><text fill="#19273C" font-family="sans-serif" font-size="16" lengthAdjust="spacingAndGlyphs" textLength="932" x="2297" y="290.6016">Promise participantRegistryExists(SecurityContext,string,ModelManager,Factory,Serializer,BusinessNetworkConnection)</text><ellipse cx="2288" cy="304.6875" fill="#84BE84" rx="3" ry="3" style="stroke: #038048; stroke-width: 1.0;"/><text fill="#19273C" font-family="sans-serif" font-size="16" lengthAdjust="spacingAndGlyphs" textLength="964" x="2297" y="309.2266">Promise addParticipantRegistry(SecurityContext,string,string,ModelManager,Factory,Serializer,BusinessNetworkConnection)</text><ellipse cx="2288" cy="323.3125" fill="#84BE84" rx="3" ry="3" style="stroke: #038048; stroke-width: 1.0;"/><text fill="#19273C" font-family="sans-serif" font-size="16" lengthAdjust="spacingAndGlyphs" textLength="851" x="2297" y="327.8516">void constructor(string,string,SecurityContext,ModelManager,Factory,Serializer,BusinessNetworkConnection)</text><!--class Query--><rect fill="#F8FAFA" height="48" rx="1" ry="1" style="stroke: #E3ECEC; stroke-width: 1.5;" width="80" x="4329" y="241"/><ellipse cx="4344" cy="257" fill="#FFFFFF" rx="11" ry="11" style="stroke: #E3ECEC; stroke-width: 1.0;"/><path d="M4346.4531,262.6563 Q4345.9063,262.9375 4345.3047,263.0859 Q4344.7031,263.2344 4344.0313,263.2344 Q4341.6719,263.2344 4340.4297,261.6719 Q4339.1875,260.1094 4339.1875,257.1719 Q4339.1875,254.2344 4340.4297,252.6797 Q4341.6719,251.125 4344.0313,251.125 Q4344.7031,251.125 4345.3125,251.2656 Q4345.9219,251.4063 4346.4531,251.6875 L4346.4531,254.25 Q4345.8594,253.7031 4345.2969,253.4453 Q4344.7344,253.1875 4344.1406,253.1875 Q4342.875,253.1875 4342.2344,254.1953 Q4341.5938,255.2031 4341.5938,257.1719 Q4341.5938,259.1406 4342.2344,260.1484 Q4342.875,261.1563 4344.1406,261.1563 Q4344.7344,261.1563 4345.2969,260.8984 Q4345.8594,260.6406 4346.4531,260.0938 L4346.4531,262.6563 Z "/><text fill="#19273C" font-family="sans-serif" font-size="16" lengthAdjust="spacingAndGlyphs" textLength="48" x="4358" y="262.5391">Query</text><line style="stroke: #E3ECEC; stroke-width: 1.5;" x1="4330" x2="4408" y1="273" y2="273"/><line style="stroke: #E3ECEC; stroke-width: 1.5;" x1="4330" x2="4408" y1="281" y2="281"/><!--class TransactionRegistry--><rect fill="#F8FAFA" height="122.5" rx="1" ry="1" style="stroke: #E3ECEC; stroke-width: 1.5;" width="991" x="3302.5" y="203.5"/><ellipse cx="3716.25" cy="219.5" fill="#FFFFFF" rx="11" ry="11" style="stroke: #E3ECEC; stroke-width: 1.0;"/><path d="M3718.7031,225.1563 Q3718.1563,225.4375 3717.5547,225.5859 Q3716.9531,225.7344 3716.2813,225.7344 Q3713.9219,225.7344 3712.6797,224.1719 Q3711.4375,222.6094 3711.4375,219.6719 Q3711.4375,216.7344 3712.6797,215.1797 Q3713.9219,213.625 3716.2813,213.625 Q3716.9531,213.625 3717.5625,213.7656 Q3718.1719,213.9063 3718.7031,214.1875 L3718.7031,216.75 Q3718.1094,216.2031 3717.5469,215.9453 Q3716.9844,215.6875 3716.3906,215.6875 Q3715.125,215.6875 3714.4844,216.6953 Q3713.8438,217.7031 3713.8438,219.6719 Q3713.8438,221.6406 3714.4844,222.6484 Q3715.125,223.6563 3716.3906,223.6563 Q3716.9844,223.6563 3717.5469,223.3984 Q3718.1094,223.1406 3718.7031,222.5938 L3718.7031,225.1563 Z "/><text fill="#19273C" font-family="sans-serif" font-size="16" lengthAdjust="spacingAndGlyphs" textLength="155" x="3736.75" y="225.0391">TransactionRegistry</text><line style="stroke: #E3ECEC; stroke-width: 1.5;" x1="3303.5" x2="4292.5" y1="235.5" y2="235.5"/><line style="stroke: #E3ECEC; stroke-width: 1.5;" x1="3303.5" x2="4292.5" y1="243.5" y2="243.5"/><ellipse cx="3313.5" cy="257.8125" fill="#84BE84" rx="3" ry="3" style="stroke: #038048; stroke-width: 1.0;"/><text fill="#19273C" font-family="sans-serif" font-size="16" lengthAdjust="spacingAndGlyphs" textLength="965" x="3322.5" y="262.3516">Promise getAllTransactionRegistries(SecurityContext,ModelManager,Factory,Serializer,BusinessNetworkConnection,Boolean)</text><ellipse cx="3313.5" cy="276.4375" fill="#84BE84" rx="3" ry="3" style="stroke: #038048; stroke-width: 1.0;"/><text fill="#19273C" font-family="sans-serif" font-size="16" lengthAdjust="spacingAndGlyphs" textLength="690" x="3322.5" y="280.9766">Promise getTransactionRegistry(SecurityContext,string,ModelManager,Factory,Serializer)</text><ellipse cx="3313.5" cy="295.0625" fill="#84BE84" rx="3" ry="3" style="stroke: #038048; stroke-width: 1.0;"/><text fill="#19273C" font-family="sans-serif" font-size="16" lengthAdjust="spacingAndGlyphs" textLength="744" x="3322.5" y="299.6016">Promise addTransactionRegistry(SecurityContext,string,string,ModelManager,Factory,Serializer)</text><ellipse cx="3313.5" cy="313.6875" fill="#84BE84" rx="3" ry="3" style="stroke: #038048; stroke-width: 1.0;"/><text fill="#19273C" font-family="sans-serif" font-size="16" lengthAdjust="spacingAndGlyphs" textLength="709" x="3322.5" y="318.2266">Promise transactionRegistryExists(SecurityContext,string,ModelManager,Factory,Serializer)</text><!--class BusinessNetworkConnection--><rect fill="#F8FAFA" height="513.625" rx="1" ry="1" style="stroke: #E3ECEC; stroke-width: 1.5;" width="456" x="4444" y="8"/><ellipse cx="4555.75" cy="24" fill="#FFFFFF" rx="11" ry="11" style="stroke: #E3ECEC; stroke-width: 1.0;"/><path d="M4558.2031,29.6563 Q4557.6563,29.9375 4557.0547,30.0859 Q4556.4531,30.2344 4555.7813,30.2344 Q4553.4219,30.2344 4552.1797,28.6719 Q4550.9375,27.1094 4550.9375,24.1719 Q4550.9375,21.2344 4552.1797,19.6797 Q4553.4219,18.125 4555.7813,18.125 Q4556.4531,18.125 4557.0625,18.2656 Q4557.6719,18.4063 4558.2031,18.6875 L4558.2031,21.25 Q4557.6094,20.7031 4557.0469,20.4453 Q4556.4844,20.1875 4555.8906,20.1875 Q4554.625,20.1875 4553.9844,21.1953 Q4553.3438,22.2031 4553.3438,24.1719 Q4553.3438,26.1406 4553.9844,27.1484 Q4554.625,28.1563 4555.8906,28.1563 Q4556.4844,28.1563 4557.0469,27.8984 Q4557.6094,27.6406 4558.2031,27.0938 L4558.2031,29.6563 Z "/><text fill="#19273C" font-family="sans-serif" font-size="16" lengthAdjust="spacingAndGlyphs" textLength="224" x="4576.25" y="29.5391">BusinessNetworkConnection</text><line style="stroke: #E3ECEC; stroke-width: 1.5;" x1="4445" x2="4899" y1="40" y2="40"/><line style="stroke: #E3ECEC; stroke-width: 1.5;" x1="4445" x2="4899" y1="48" y2="48"/><ellipse cx="4455" cy="62.3125" fill="#84BE84" rx="3" ry="3" style="stroke: #038048; stroke-width: 1.0;"/><text fill="#19273C" font-family="sans-serif" font-size="16" lengthAdjust="spacingAndGlyphs" textLength="430" x="4464" y="66.8516">void constructor(Object,ConnectionProfileStore,Object)</text><ellipse cx="4455" cy="80.9375" fill="#84BE84" rx="3" ry="3" style="stroke: #038048; stroke-width: 1.0;"/><text fill="#19273C" font-family="sans-serif" font-size="16" lengthAdjust="spacingAndGlyphs" textLength="386" x="4464" y="85.4766">BusinessNetworkDefinition getBusinessNetwork()</text><ellipse cx="4455" cy="99.5625" fill="#84BE84" rx="3" ry="3" style="stroke: #038048; stroke-width: 1.0;"/><text fill="#19273C" font-family="sans-serif" font-size="16" lengthAdjust="spacingAndGlyphs" textLength="303" x="4464" y="104.1016">Promise getAllAssetRegistries(boolean)</text><ellipse cx="4455" cy="118.1875" fill="#84BE84" rx="3" ry="3" style="stroke: #038048; stroke-width: 1.0;"/><text fill="#19273C" font-family="sans-serif" font-size="16" lengthAdjust="spacingAndGlyphs" textLength="258" x="4464" y="122.7266">Promise getAssetRegistry(string)</text><ellipse cx="4455" cy="136.8125" fill="#84BE84" rx="3" ry="3" style="stroke: #038048; stroke-width: 1.0;"/><text fill="#19273C" font-family="sans-serif" font-size="16" lengthAdjust="spacingAndGlyphs" textLength="278" x="4464" y="141.3516">Promise assetRegistryExists(string)</text><ellipse cx="4455" cy="155.4375" fill="#84BE84" rx="3" ry="3" style="stroke: #038048; stroke-width: 1.0;"/><text fill="#19273C" font-family="sans-serif" font-size="16" lengthAdjust="spacingAndGlyphs" textLength="312" x="4464" y="159.9766">Promise addAssetRegistry(string,string)</text><ellipse cx="4455" cy="174.0625" fill="#84BE84" rx="3" ry="3" style="stroke: #038048; stroke-width: 1.0;"/><text fill="#19273C" font-family="sans-serif" font-size="16" lengthAdjust="spacingAndGlyphs" textLength="341" x="4464" y="178.6016">Promise getAllParticipantRegistries(boolean)</text><ellipse cx="4455" cy="192.6875" fill="#84BE84" rx="3" ry="3" style="stroke: #038048; stroke-width: 1.0;"/><text fill="#19273C" font-family="sans-serif" font-size="16" lengthAdjust="spacingAndGlyphs" textLength="296" x="4464" y="197.2266">Promise getParticipantRegistry(string)</text><ellipse cx="4455" cy="211.3125" fill="#84BE84" rx="3" ry="3" style="stroke: #038048; stroke-width: 1.0;"/><text fill="#19273C" font-family="sans-serif" font-size="16" lengthAdjust="spacingAndGlyphs" textLength="318" x="4464" y="215.8516">Promise participantRegistryExists(string)</text><ellipse cx="4455" cy="229.9375" fill="#84BE84" rx="3" ry="3" style="stroke: #038048; stroke-width: 1.0;"/><text fill="#19273C" font-family="sans-serif" font-size="16" lengthAdjust="spacingAndGlyphs" textLength="350" x="4464" y="234.4766">Promise addParticipantRegistry(string,string)</text><ellipse cx="4455" cy="248.5625" fill="#84BE84" rx="3" ry="3" style="stroke: #038048; stroke-width: 1.0;"/><text fill="#19273C" font-family="sans-serif" font-size="16" lengthAdjust="spacingAndGlyphs" textLength="305" x="4464" y="253.1016">Promise getTransactionRegistry(string)</text><ellipse cx="4455" cy="267.1875" fill="#84BE84" rx="3" ry="3" style="stroke: #038048; stroke-width: 1.0;"/><text fill="#19273C" font-family="sans-serif" font-size="16" lengthAdjust="spacingAndGlyphs" textLength="350" x="4464" y="271.7266">Promise getAllTransactionRegistries(boolean)</text><ellipse cx="4455" cy="285.8125" fill="#84BE84" rx="3" ry="3" style="stroke: #038048; stroke-width: 1.0;"/><text fill="#19273C" font-family="sans-serif" font-size="16" lengthAdjust="spacingAndGlyphs" textLength="324" x="4464" y="290.3516">Promise transactionRegistryExists(string)</text><ellipse cx="4455" cy="304.4375" fill="#84BE84" rx="3" ry="3" style="stroke: #038048; stroke-width: 1.0;"/><text fill="#19273C" font-family="sans-serif" font-size="16" lengthAdjust="spacingAndGlyphs" textLength="174" x="4464" y="308.9766">Promise getHistorian()</text><ellipse cx="4455" cy="323.0625" fill="#84BE84" rx="3" ry="3" style="stroke: #038048; stroke-width: 1.0;"/><text fill="#19273C" font-family="sans-serif" font-size="16" lengthAdjust="spacingAndGlyphs" textLength="227" x="4464" y="327.6016">Promise getIdentityRegistry()</text><ellipse cx="4455" cy="341.6875" fill="#84BE84" rx="3" ry="3" style="stroke: #038048; stroke-width: 1.0;"/><text fill="#19273C" font-family="sans-serif" font-size="16" lengthAdjust="spacingAndGlyphs" textLength="393" x="4464" y="346.2266">Promise connect(string,string,string,string,Object)</text><ellipse cx="4455" cy="360.3125" fill="#84BE84" rx="3" ry="3" style="stroke: #038048; stroke-width: 1.0;"/><text fill="#19273C" font-family="sans-serif" font-size="16" lengthAdjust="spacingAndGlyphs" textLength="215" x="4464" y="364.8516">Promise getRegistry(String)</text><ellipse cx="4455" cy="378.9375" fill="#84BE84" rx="3" ry="3" style="stroke: #038048; stroke-width: 1.0;"/><text fill="#19273C" font-family="sans-serif" font-size="16" lengthAdjust="spacingAndGlyphs" textLength="165" x="4464" y="383.4766">Promise disconnect()</text><ellipse cx="4455" cy="397.5625" fill="#84BE84" rx="3" ry="3" style="stroke: #038048; stroke-width: 1.0;"/><text fill="#19273C" font-family="sans-serif" font-size="16" lengthAdjust="spacingAndGlyphs" textLength="298" x="4464" y="402.1016">Promise submitTransaction(Resource)</text><ellipse cx="4455" cy="416.1875" fill="#84BE84" rx="3" ry="3" style="stroke: #038048; stroke-width: 1.0;"/><text fill="#19273C" font-family="sans-serif" font-size="16" lengthAdjust="spacingAndGlyphs" textLength="194" x="4464" y="420.7266">Query buildQuery(string)</text><ellipse cx="4455" cy="434.8125" fill="#84BE84" rx="3" ry="3" style="stroke: #038048; stroke-width: 1.0;"/><text fill="#19273C" font-family="sans-serif" font-size="16" lengthAdjust="spacingAndGlyphs" textLength="175" x="4464" y="439.3516">Promise query(Object)</text><ellipse cx="4455" cy="453.4375" fill="#84BE84" rx="3" ry="3" style="stroke: #038048; stroke-width: 1.0;"/><text fill="#19273C" font-family="sans-serif" font-size="16" lengthAdjust="spacingAndGlyphs" textLength="113" x="4464" y="457.9766">Promise ping()</text><ellipse cx="4455" cy="472.0625" fill="#84BE84" rx="3" ry="3" style="stroke: #038048; stroke-width: 1.0;"/><text fill="#19273C" font-family="sans-serif" font-size="16" lengthAdjust="spacingAndGlyphs" textLength="341" x="4464" y="476.6016">Promise issueIdentity(string,object,boolean)</text><ellipse cx="4455" cy="490.6875" fill="#84BE84" rx="3" ry="3" style="stroke: #038048; stroke-width: 1.0;"/><text fill="#19273C" font-family="sans-serif" font-size="16" lengthAdjust="spacingAndGlyphs" textLength="216" x="4464" y="495.2266">Promise bindIdentity(string)</text><ellipse cx="4455" cy="509.3125" fill="#84BE84" rx="3" ry="3" style="stroke: #038048; stroke-width: 1.0;"/><text fill="#19273C" font-family="sans-serif" font-size="16" lengthAdjust="spacingAndGlyphs" textLength="191" x="4464" y="513.8516">Promise revokeIdentity()</text><!--class EventEmitter--><rect fill="#F8FAFA" height="48" rx="1" ry="1" style="stroke: #E3ECEC; stroke-width: 1.5;" width="132" x="4606" y="731"/><ellipse cx="4621" cy="747" fill="#FFFFFF" rx="11" ry="11" style="stroke: #E3ECEC; stroke-width: 1.0;"/><path d="M4623.4531,752.6563 Q4622.9063,752.9375 4622.3047,753.0859 Q4621.7031,753.2344 4621.0313,753.2344 Q4618.6719,753.2344 4617.4297,751.6719 Q4616.1875,750.1094 4616.1875,747.1719 Q4616.1875,744.2344 4617.4297,742.6797 Q4618.6719,741.125 4621.0313,741.125 Q4621.7031,741.125 4622.3125,741.2656 Q4622.9219,741.4063 4623.4531,741.6875 L4623.4531,744.25 Q4622.8594,743.7031 4622.2969,743.4453 Q4621.7344,743.1875 4621.1406,743.1875 Q4619.875,743.1875 4619.2344,744.1953 Q4618.5938,745.2031 4618.5938,747.1719 Q4618.5938,749.1406 4619.2344,750.1484 Q4619.875,751.1563 4621.1406,751.1563 Q4621.7344,751.1563 4622.2969,750.8984 Q4622.8594,750.6406 4623.4531,750.0938 L4623.4531,752.6563 Z "/><text fill="#19273C" font-family="sans-serif" font-size="16" lengthAdjust="spacingAndGlyphs" textLength="100" x="4635" y="752.5391">EventEmitter</text><line style="stroke: #E3ECEC; stroke-width: 1.5;" x1="4607" x2="4737" y1="763" y2="763"/><line style="stroke: #E3ECEC; stroke-width: 1.5;" x1="4607" x2="4737" y1="771" y2="771"/><path d="M596.897,335.736 C694.563,392.521 840.023,471.312 975,522 C1123.36,577.715 1289.84,623.645 1441.49,659.518 " fill="none" style="stroke: #3C6DF0; stroke-width: 1.0;"/><polygon fill="none" points="1443.48,652.793,1461.35,664.177,1440.28,666.423,1443.48,652.793" style="stroke: #3C6DF0; stroke-width: 1.0;"/><path d="M1320.08,298.601 C1377.1,348.318 1490.28,445.387 1591,522 C1611.81,537.83 1633.59,553.936 1655.63,569.906 " fill="none" style="stroke: #3C6DF0; stroke-width: 1.0;"/><polygon fill="none" points="1659.98,564.417,1672.11,581.794,1651.79,575.771,1659.98,564.417" style="stroke: #3C6DF0; stroke-width: 1.0;"/><path d="M1925,298.777 C1925,352.458 1925,463.039 1925,561.766 " fill="none" style="stroke: #3C6DF0; stroke-width: 1.0;"/><polygon fill="none" points="1932,561.98,1925,581.98,1918,561.98,1932,561.98" style="stroke: #3C6DF0; stroke-width: 1.0;"/><path d="M2651.1,335.659 C2544.36,397.152 2383.96,489.57 2241.04,571.914 " fill="none" style="stroke: #3C6DF0; stroke-width: 1.0;"/><polygon fill="none" points="2244.52,577.984,2223.7,581.903,2237.54,565.853,2244.52,577.984" style="stroke: #3C6DF0; stroke-width: 1.0;"/><path d="M3698.39,326.666 C3597.49,385.417 3435.16,472.648 3284,522 C3000.98,614.404 2672.16,671.784 2408.85,706.36 " fill="none" style="stroke: #3C6DF0; stroke-width: 1.0;"/><polygon fill="none" points="2409.55,713.329,2388.81,708.965,2407.74,699.446,2409.55,713.329" style="stroke: #3C6DF0; stroke-width: 1.0;"/><path d="M4672,522.148 C4672,595.24 4672,666.875 4672,710.73 " fill="none" style="stroke: #3C6DF0; stroke-width: 1.0;"/><polygon fill="none" points="4679,710.992,4672,730.992,4665,710.992,4679,710.992" style="stroke: #3C6DF0; stroke-width: 1.0;"/></g></svg>