<?xml version="1.0" encoding="UTF-8" standalone="no"?><svg xmlns="http://www.w3.org/2000/svg" xmlns:xlink="http://www.w3.org/1999/xlink" contentScriptType="application/ecmascript" contentStyleType="text/css" height="626px" preserveAspectRatio="none" style="width:2212px;height:626px;" version="1.1" viewBox="0 0 2212 626" width="2212px" zoomAndPan="magnify"><defs/><g><!--class BusinessNetworkMetadata--><rect fill="#F8FAFA" height="178.375" rx="1" ry="1" style="stroke: #E3ECEC; stroke-width: 1.5;" width="266" x="144" y="8"/><ellipse cx="171.15" cy="24" fill="#FFFFFF" rx="11" ry="11" style="stroke: #E3ECEC; stroke-width: 1.0;"/><path d="M173.6031,29.6563 Q173.0563,29.9375 172.4547,30.0859 Q171.8531,30.2344 171.1813,30.2344 Q168.8219,30.2344 167.5797,28.6719 Q166.3375,27.1094 166.3375,24.1719 Q166.3375,21.2344 167.5797,19.6797 Q168.8219,18.125 171.1813,18.125 Q171.8531,18.125 172.4625,18.2656 Q173.0719,18.4063 173.6031,18.6875 L173.6031,21.25 Q173.0094,20.7031 172.4469,20.4453 Q171.8844,20.1875 171.2906,20.1875 Q170.025,20.1875 169.3844,21.1953 Q168.7438,22.2031 168.7438,24.1719 Q168.7438,26.1406 169.3844,27.1484 Q170.025,28.1563 171.2906,28.1563 Q171.8844,28.1563 172.4469,27.8984 Q173.0094,27.6406 173.6031,27.0938 L173.6031,29.6563 Z "/><text fill="#19273C" font-family="sans-serif" font-size="16" lengthAdjust="spacingAndGlyphs" textLength="207" x="187.85" y="29.5391">BusinessNetworkMetadata</text><line style="stroke: #E3ECEC; stroke-width: 1.5;" x1="145" x2="409" y1="40" y2="40"/><line style="stroke: #E3ECEC; stroke-width: 1.5;" x1="145" x2="409" y1="48" y2="48"/><ellipse cx="155" cy="62.3125" fill="#84BE84" rx="3" ry="3" style="stroke: #038048; stroke-width: 1.0;"/><text fill="#19273C" font-family="sans-serif" font-size="16" lengthAdjust="spacingAndGlyphs" textLength="240" x="164" y="66.8516">void constructor(object,String)</text><ellipse cx="155" cy="80.9375" fill="#84BE84" rx="3" ry="3" style="stroke: #038048; stroke-width: 1.0;"/><text fill="#19273C" font-family="sans-serif" font-size="16" lengthAdjust="spacingAndGlyphs" textLength="155" x="164" y="85.4766">String getREADME()</text><ellipse cx="155" cy="99.5625" fill="#84BE84" rx="3" ry="3" style="stroke: #038048; stroke-width: 1.0;"/><text fill="#19273C" font-family="sans-serif" font-size="16" lengthAdjust="spacingAndGlyphs" textLength="188" x="164" y="104.1016">object getPackageJson()</text><ellipse cx="155" cy="118.1875" fill="#84BE84" rx="3" ry="3" style="stroke: #038048; stroke-width: 1.0;"/><text fill="#19273C" font-family="sans-serif" font-size="16" lengthAdjust="spacingAndGlyphs" textLength="132" x="164" y="122.7266">string getName()</text><ellipse cx="155" cy="136.8125" fill="#84BE84" rx="3" ry="3" style="stroke: #038048; stroke-width: 1.0;"/><text fill="#19273C" font-family="sans-serif" font-size="16" lengthAdjust="spacingAndGlyphs" textLength="175" x="164" y="141.3516">string getDescription()</text><ellipse cx="155" cy="155.4375" fill="#84BE84" rx="3" ry="3" style="stroke: #038048; stroke-width: 1.0;"/><text fill="#19273C" font-family="sans-serif" font-size="16" lengthAdjust="spacingAndGlyphs" textLength="146" x="164" y="159.9766">string getVersion()</text><ellipse cx="155" cy="174.0625" fill="#84BE84" rx="3" ry="3" style="stroke: #038048; stroke-width: 1.0;"/><text fill="#19273C" font-family="sans-serif" font-size="16" lengthAdjust="spacingAndGlyphs" textLength="155" x="164" y="178.6016">string getIdentifier()</text><!--class Relationship--><rect fill="#F8FAFA" height="103.875" rx="1" ry="1" style="stroke: #E3ECEC; stroke-width: 1.5;" width="467" x="1122.5" y="329.5"/><ellipse cx="1305.25" cy="345.5" fill="#FFFFFF" rx="11" ry="11" style="stroke: #E3ECEC; stroke-width: 1.0;"/><path d="M1307.7031,351.1563 Q1307.1563,351.4375 1306.5547,351.5859 Q1305.9531,351.7344 1305.2813,351.7344 Q1302.9219,351.7344 1301.6797,350.1719 Q1300.4375,348.6094 1300.4375,345.6719 Q1300.4375,342.7344 1301.6797,341.1797 Q1302.9219,339.625 1305.2813,339.625 Q1305.9531,339.625 1306.5625,339.7656 Q1307.1719,339.9063 1307.7031,340.1875 L1307.7031,342.75 Q1307.1094,342.2031 1306.5469,341.9453 Q1305.9844,341.6875 1305.3906,341.6875 Q1304.125,341.6875 1303.4844,342.6953 Q1302.8438,343.7031 1302.8438,345.6719 Q1302.8438,347.6406 1303.4844,348.6484 Q1304.125,349.6563 1305.3906,349.6563 Q1305.9844,349.6563 1306.5469,349.3984 Q1307.1094,349.1406 1307.7031,348.5938 L1307.7031,351.1563 Z "/><text fill="#19273C" font-family="sans-serif" font-size="16" lengthAdjust="spacingAndGlyphs" textLength="93" x="1325.75" y="351.0391">Relationship</text><line style="stroke: #E3ECEC; stroke-width: 1.5;" x1="1123.5" x2="1588.5" y1="361.5" y2="361.5"/><line style="stroke: #E3ECEC; stroke-width: 1.5;" x1="1123.5" x2="1588.5" y1="369.5" y2="369.5"/><ellipse cx="1133.5" cy="383.8125" fill="#84BE84" rx="3" ry="3" style="stroke: #038048; stroke-width: 1.0;"/><text fill="#19273C" font-family="sans-serif" font-size="16" lengthAdjust="spacingAndGlyphs" textLength="125" x="1142.5" y="388.3516">String toString()</text><ellipse cx="1133.5" cy="402.4375" fill="#84BE84" rx="3" ry="3" style="stroke: #038048; stroke-width: 1.0;"/><text fill="#19273C" font-family="sans-serif" font-size="16" lengthAdjust="spacingAndGlyphs" textLength="183" x="1142.5" y="406.9766">boolean isRelationship()</text><ellipse cx="1133.5" cy="421.0625" fill="#84BE84" rx="3" ry="3" style="stroke: #038048; stroke-width: 1.0;"/><text fill="#19273C" font-family="sans-serif" font-size="16" lengthAdjust="spacingAndGlyphs" textLength="441" x="1142.5" y="425.6016">Relationship fromURI(ModelManager,String,String,String)</text><!--class Identifiable--><rect fill="#F8FAFA" height="48" rx="1" ry="1" style="stroke: #E3ECEC; stroke-width: 1.5;" width="115" x="1480.5" y="577"/><ellipse cx="1495.5" cy="593" fill="#FFFFFF" rx="11" ry="11" style="stroke: #E3ECEC; stroke-width: 1.0;"/><path d="M1497.9531,598.6563 Q1497.4063,598.9375 1496.8047,599.0859 Q1496.2031,599.2344 1495.5313,599.2344 Q1493.1719,599.2344 1491.9297,597.6719 Q1490.6875,596.1094 1490.6875,593.1719 Q1490.6875,590.2344 1491.9297,588.6797 Q1493.1719,587.125 1495.5313,587.125 Q1496.2031,587.125 1496.8125,587.2656 Q1497.4219,587.4063 1497.9531,587.6875 L1497.9531,590.25 Q1497.3594,589.7031 1496.7969,589.4453 Q1496.2344,589.1875 1495.6406,589.1875 Q1494.375,589.1875 1493.7344,590.1953 Q1493.0938,591.2031 1493.0938,593.1719 Q1493.0938,595.1406 1493.7344,596.1484 Q1494.375,597.1563 1495.6406,597.1563 Q1496.2344,597.1563 1496.7969,596.8984 Q1497.3594,596.6406 1497.9531,596.0938 L1497.9531,598.6563 Z "/><text fill="#19273C" font-family="sans-serif" font-size="16" lengthAdjust="spacingAndGlyphs" textLength="83" x="1509.5" y="598.5391">Identifiable</text><line style="stroke: #E3ECEC; stroke-width: 1.5;" x1="1481.5" x2="1594.5" y1="609" y2="609"/><line style="stroke: #E3ECEC; stroke-width: 1.5;" x1="1481.5" x2="1594.5" y1="617" y2="617"/><!--class Resource--><rect fill="#F8FAFA" height="85.25" rx="1" ry="1" style="stroke: #E3ECEC; stroke-width: 1.5;" width="190" x="1625" y="339"/><ellipse cx="1678.75" cy="355" fill="#FFFFFF" rx="11" ry="11" style="stroke: #E3ECEC; stroke-width: 1.0;"/><path d="M1681.2031,360.6563 Q1680.6563,360.9375 1680.0547,361.0859 Q1679.4531,361.2344 1678.7813,361.2344 Q1676.4219,361.2344 1675.1797,359.6719 Q1673.9375,358.1094 1673.9375,355.1719 Q1673.9375,352.2344 1675.1797,350.6797 Q1676.4219,349.125 1678.7813,349.125 Q1679.4531,349.125 1680.0625,349.2656 Q1680.6719,349.4063 1681.2031,349.6875 L1681.2031,352.25 Q1680.6094,351.7031 1680.0469,351.4453 Q1679.4844,351.1875 1678.8906,351.1875 Q1677.625,351.1875 1676.9844,352.1953 Q1676.3438,353.2031 1676.3438,355.1719 Q1676.3438,357.1406 1676.9844,358.1484 Q1677.625,359.1563 1678.8906,359.1563 Q1679.4844,359.1563 1680.0469,358.8984 Q1680.6094,358.6406 1681.2031,358.0938 L1681.2031,360.6563 Z "/><text fill="#19273C" font-family="sans-serif" font-size="16" lengthAdjust="spacingAndGlyphs" textLength="74" x="1699.25" y="360.5391">Resource</text><line style="stroke: #E3ECEC; stroke-width: 1.5;" x1="1626" x2="1814" y1="371" y2="371"/><line style="stroke: #E3ECEC; stroke-width: 1.5;" x1="1626" x2="1814" y1="379" y2="379"/><ellipse cx="1636" cy="393.3125" fill="#84BE84" rx="3" ry="3" style="stroke: #038048; stroke-width: 1.0;"/><text fill="#19273C" font-family="sans-serif" font-size="16" lengthAdjust="spacingAndGlyphs" textLength="125" x="1645" y="397.8516">String toString()</text><ellipse cx="1636" cy="411.9375" fill="#84BE84" rx="3" ry="3" style="stroke: #038048; stroke-width: 1.0;"/><text fill="#19273C" font-family="sans-serif" font-size="16" lengthAdjust="spacingAndGlyphs" textLength="164" x="1645" y="416.4766">boolean isResource()</text><!--class ValidatedResource--><rect fill="#F8FAFA" height="103.875" rx="1" ry="1" style="stroke: #E3ECEC; stroke-width: 1.5;" width="304" x="1568" y="45"/><ellipse cx="1643.75" cy="61" fill="#FFFFFF" rx="11" ry="11" style="stroke: #E3ECEC; stroke-width: 1.0;"/><path d="M1646.2031,66.6563 Q1645.6563,66.9375 1645.0547,67.0859 Q1644.4531,67.2344 1643.7813,67.2344 Q1641.4219,67.2344 1640.1797,65.6719 Q1638.9375,64.1094 1638.9375,61.1719 Q1638.9375,58.2344 1640.1797,56.6797 Q1641.4219,55.125 1643.7813,55.125 Q1644.4531,55.125 1645.0625,55.2656 Q1645.6719,55.4063 1646.2031,55.6875 L1646.2031,58.25 Q1645.6094,57.7031 1645.0469,57.4453 Q1644.4844,57.1875 1643.8906,57.1875 Q1642.625,57.1875 1641.9844,58.1953 Q1641.3438,59.2031 1641.3438,61.1719 Q1641.3438,63.1406 1641.9844,64.1484 Q1642.625,65.1563 1643.8906,65.1563 Q1644.4844,65.1563 1645.0469,64.8984 Q1645.6094,64.6406 1646.2031,64.0938 L1646.2031,66.6563 Z "/><text fill="#19273C" font-family="sans-serif" font-size="16" lengthAdjust="spacingAndGlyphs" textLength="144" x="1664.25" y="66.5391">ValidatedResource</text><line style="stroke: #E3ECEC; stroke-width: 1.5;" x1="1569" x2="1871" y1="77" y2="77"/><line style="stroke: #E3ECEC; stroke-width: 1.5;" x1="1569" x2="1871" y1="85" y2="85"/><ellipse cx="1579" cy="99.3125" fill="#84BE84" rx="3" ry="3" style="stroke: #038048; stroke-width: 1.0;"/><text fill="#19273C" font-family="sans-serif" font-size="16" lengthAdjust="spacingAndGlyphs" textLength="278" x="1588" y="103.8516">void setPropertyValue(string,string)</text><ellipse cx="1579" cy="117.9375" fill="#84BE84" rx="3" ry="3" style="stroke: #038048; stroke-width: 1.0;"/><text fill="#19273C" font-family="sans-serif" font-size="16" lengthAdjust="spacingAndGlyphs" textLength="258" x="1588" y="122.4766">void addArrayValue(string,string)</text><ellipse cx="1579" cy="136.5625" fill="#84BE84" rx="3" ry="3" style="stroke: #038048; stroke-width: 1.0;"/><text fill="#19273C" font-family="sans-serif" font-size="16" lengthAdjust="spacingAndGlyphs" textLength="107" x="1588" y="141.1016">void validate()</text><!--class Concept--><rect fill="#F8FAFA" height="66.625" rx="1" ry="1" style="stroke: #E3ECEC; stroke-width: 1.5;" width="181" x="1968.5" y="348"/><ellipse cx="2022.25" cy="364" fill="#FFFFFF" rx="11" ry="11" style="stroke: #E3ECEC; stroke-width: 1.0;"/><path d="M2024.7031,369.6563 Q2024.1563,369.9375 2023.5547,370.0859 Q2022.9531,370.2344 2022.2813,370.2344 Q2019.9219,370.2344 2018.6797,368.6719 Q2017.4375,367.1094 2017.4375,364.1719 Q2017.4375,361.2344 2018.6797,359.6797 Q2019.9219,358.125 2022.2813,358.125 Q2022.9531,358.125 2023.5625,358.2656 Q2024.1719,358.4063 2024.7031,358.6875 L2024.7031,361.25 Q2024.1094,360.7031 2023.5469,360.4453 Q2022.9844,360.1875 2022.3906,360.1875 Q2021.125,360.1875 2020.4844,361.1953 Q2019.8438,362.2031 2019.8438,364.1719 Q2019.8438,366.1406 2020.4844,367.1484 Q2021.125,368.1563 2022.3906,368.1563 Q2022.9844,368.1563 2023.5469,367.8984 Q2024.1094,367.6406 2024.7031,367.0938 L2024.7031,369.6563 Z "/><text fill="#19273C" font-family="sans-serif" font-size="16" lengthAdjust="spacingAndGlyphs" textLength="65" x="2042.75" y="369.5391">Concept</text><line style="stroke: #E3ECEC; stroke-width: 1.5;" x1="1969.5" x2="2148.5" y1="380" y2="380"/><line style="stroke: #E3ECEC; stroke-width: 1.5;" x1="1969.5" x2="2148.5" y1="388" y2="388"/><ellipse cx="1979.5" cy="402.3125" fill="#84BE84" rx="3" ry="3" style="stroke: #038048; stroke-width: 1.0;"/><text fill="#19273C" font-family="sans-serif" font-size="16" lengthAdjust="spacingAndGlyphs" textLength="155" x="1988.5" y="406.8516">boolean isConcept()</text><!--class Typed--><rect fill="#F8FAFA" height="48" rx="1" ry="1" style="stroke: #E3ECEC; stroke-width: 1.5;" width="79" x="2019.5" y="577"/><ellipse cx="2034.5" cy="593" fill="#FFFFFF" rx="11" ry="11" style="stroke: #E3ECEC; stroke-width: 1.0;"/><path d="M2036.9531,598.6563 Q2036.4063,598.9375 2035.8047,599.0859 Q2035.2031,599.2344 2034.5313,599.2344 Q2032.1719,599.2344 2030.9297,597.6719 Q2029.6875,596.1094 2029.6875,593.1719 Q2029.6875,590.2344 2030.9297,588.6797 Q2032.1719,587.125 2034.5313,587.125 Q2035.2031,587.125 2035.8125,587.2656 Q2036.4219,587.4063 2036.9531,587.6875 L2036.9531,590.25 Q2036.3594,589.7031 2035.7969,589.4453 Q2035.2344,589.1875 2034.6406,589.1875 Q2033.375,589.1875 2032.7344,590.1953 Q2032.0938,591.2031 2032.0938,593.1719 Q2032.0938,595.1406 2032.7344,596.1484 Q2033.375,597.1563 2034.6406,597.1563 Q2035.2344,597.1563 2035.7969,596.8984 Q2036.3594,596.6406 2036.9531,596.0938 L2036.9531,598.6563 Z "/><text fill="#19273C" font-family="sans-serif" font-size="16" lengthAdjust="spacingAndGlyphs" textLength="47" x="2048.5" y="598.5391">Typed</text><line style="stroke: #E3ECEC; stroke-width: 1.5;" x1="2020.5" x2="2097.5" y1="609" y2="609"/><line style="stroke: #E3ECEC; stroke-width: 1.5;" x1="2020.5" x2="2097.5" y1="617" y2="617"/><!--class ValidatedConcept--><rect fill="#F8FAFA" height="103.875" rx="1" ry="1" style="stroke: #E3ECEC; stroke-width: 1.5;" width="304" x="1907" y="45"/><ellipse cx="1987.25" cy="61" fill="#FFFFFF" rx="11" ry="11" style="stroke: #E3ECEC; stroke-width: 1.0;"/><path d="M1989.7031,66.6563 Q1989.1563,66.9375 1988.5547,67.0859 Q1987.9531,67.2344 1987.2813,67.2344 Q1984.9219,67.2344 1983.6797,65.6719 Q1982.4375,64.1094 1982.4375,61.1719 Q1982.4375,58.2344 1983.6797,56.6797 Q1984.9219,55.125 1987.2813,55.125 Q1987.9531,55.125 1988.5625,55.2656 Q1989.1719,55.4063 1989.7031,55.6875 L1989.7031,58.25 Q1989.1094,57.7031 1988.5469,57.4453 Q1987.9844,57.1875 1987.3906,57.1875 Q1986.125,57.1875 1985.4844,58.1953 Q1984.8438,59.2031 1984.8438,61.1719 Q1984.8438,63.1406 1985.4844,64.1484 Q1986.125,65.1563 1987.3906,65.1563 Q1987.9844,65.1563 1988.5469,64.8984 Q1989.1094,64.6406 1989.7031,64.0938 L1989.7031,66.6563 Z "/><text fill="#19273C" font-family="sans-serif" font-size="16" lengthAdjust="spacingAndGlyphs" textLength="135" x="2007.75" y="66.5391">ValidatedConcept</text><line style="stroke: #E3ECEC; stroke-width: 1.5;" x1="1908" x2="2210" y1="77" y2="77"/><line style="stroke: #E3ECEC; stroke-width: 1.5;" x1="1908" x2="2210" y1="85" y2="85"/><ellipse cx="1918" cy="99.3125" fill="#84BE84" rx="3" ry="3" style="stroke: #038048; stroke-width: 1.0;"/><text fill="#19273C" font-family="sans-serif" font-size="16" lengthAdjust="spacingAndGlyphs" textLength="278" x="1927" y="103.8516">void setPropertyValue(string,string)</text><ellipse cx="1918" cy="117.9375" fill="#84BE84" rx="3" ry="3" style="stroke: #038048; stroke-width: 1.0;"/><text fill="#19273C" font-family="sans-serif" font-size="16" lengthAdjust="spacingAndGlyphs" textLength="258" x="1927" y="122.4766">void addArrayValue(string,string)</text><ellipse cx="1918" cy="136.5625" fill="#84BE84" rx="3" ry="3" style="stroke: #038048; stroke-width: 1.0;"/><text fill="#19273C" font-family="sans-serif" font-size="16" lengthAdjust="spacingAndGlyphs" textLength="107" x="1927" y="141.1016">void validate()</text><!--class Factory--><rect fill="#F8FAFA" height="159.75" rx="1" ry="1" style="stroke: #E3ECEC; stroke-width: 1.5;" width="605" x="444.5" y="17"/><ellipse cx="713.25" cy="33" fill="#FFFFFF" rx="11" ry="11" style="stroke: #E3ECEC; stroke-width: 1.0;"/><path d="M715.7031,38.6563 Q715.1563,38.9375 714.5547,39.0859 Q713.9531,39.2344 713.2813,39.2344 Q710.9219,39.2344 709.6797,37.6719 Q708.4375,36.1094 708.4375,33.1719 Q708.4375,30.2344 709.6797,28.6797 Q710.9219,27.125 713.2813,27.125 Q713.9531,27.125 714.5625,27.2656 Q715.1719,27.4063 715.7031,27.6875 L715.7031,30.25 Q715.1094,29.7031 714.5469,29.4453 Q713.9844,29.1875 713.3906,29.1875 Q712.125,29.1875 711.4844,30.1953 Q710.8438,31.2031 710.8438,33.1719 Q710.8438,35.1406 711.4844,36.1484 Q712.125,37.1563 713.3906,37.1563 Q713.9844,37.1563 714.5469,36.8984 Q715.1094,36.6406 715.7031,36.0938 L715.7031,38.6563 Z "/><text fill="#19273C" font-family="sans-serif" font-size="16" lengthAdjust="spacingAndGlyphs" textLength="59" x="733.75" y="38.5391">Factory</text><line style="stroke: #E3ECEC; stroke-width: 1.5;" x1="445.5" x2="1048.5" y1="49" y2="49"/><line style="stroke: #E3ECEC; stroke-width: 1.5;" x1="445.5" x2="1048.5" y1="57" y2="57"/><ellipse cx="455.5" cy="71.3125" fill="#84BE84" rx="3" ry="3" style="stroke: #038048; stroke-width: 1.0;"/><text fill="#19273C" font-family="sans-serif" font-size="16" lengthAdjust="spacingAndGlyphs" textLength="254" x="464.5" y="75.8516">void constructor(ModelManager)</text><ellipse cx="455.5" cy="89.9375" fill="#84BE84" rx="3" ry="3" style="stroke: #038048; stroke-width: 1.0;"/><text fill="#19273C" font-family="sans-serif" font-size="16" lengthAdjust="spacingAndGlyphs" textLength="579" x="464.5" y="94.4766">Resource newResource(string,string,string,Object,boolean,string,boolean)</text><ellipse cx="455.5" cy="108.5625" fill="#84BE84" rx="3" ry="3" style="stroke: #038048; stroke-width: 1.0;"/><text fill="#19273C" font-family="sans-serif" font-size="16" lengthAdjust="spacingAndGlyphs" textLength="520" x="464.5" y="113.1016">Resource newConcept(string,string,Object,boolean,string,boolean)</text><ellipse cx="455.5" cy="127.1875" fill="#84BE84" rx="3" ry="3" style="stroke: #038048; stroke-width: 1.0;"/><text fill="#19273C" font-family="sans-serif" font-size="16" lengthAdjust="spacingAndGlyphs" textLength="380" x="464.5" y="131.7266">Relationship newRelationship(string,string,string)</text><ellipse cx="455.5" cy="145.8125" fill="#84BE84" rx="3" ry="3" style="stroke: #038048; stroke-width: 1.0;"/><text fill="#19273C" font-family="sans-serif" font-size="16" lengthAdjust="spacingAndGlyphs" textLength="530" x="464.5" y="150.3516">Resource newTransaction(string,string,string,Object,string,boolean)</text><ellipse cx="455.5" cy="164.4375" fill="#84BE84" rx="3" ry="3" style="stroke: #038048; stroke-width: 1.0;"/><text fill="#19273C" font-family="sans-serif" font-size="16" lengthAdjust="spacingAndGlyphs" textLength="483" x="464.5" y="168.9766">Resource newEvent(string,string,string,Object,string,boolean)</text><!--class Introspector--><rect fill="#F8FAFA" height="103.875" rx="1" ry="1" style="stroke: #E3ECEC; stroke-width: 1.5;" width="370" x="1084" y="45"/><ellipse cx="1215.75" cy="61" fill="#FFFFFF" rx="11" ry="11" style="stroke: #E3ECEC; stroke-width: 1.0;"/><path d="M1218.2031,66.6563 Q1217.6563,66.9375 1217.0547,67.0859 Q1216.4531,67.2344 1215.7813,67.2344 Q1213.4219,67.2344 1212.1797,65.6719 Q1210.9375,64.1094 1210.9375,61.1719 Q1210.9375,58.2344 1212.1797,56.6797 Q1213.4219,55.125 1215.7813,55.125 Q1216.4531,55.125 1217.0625,55.2656 Q1217.6719,55.4063 1218.2031,55.6875 L1218.2031,58.25 Q1217.6094,57.7031 1217.0469,57.4453 Q1216.4844,57.1875 1215.8906,57.1875 Q1214.625,57.1875 1213.9844,58.1953 Q1213.3438,59.2031 1213.3438,61.1719 Q1213.3438,63.1406 1213.9844,64.1484 Q1214.625,65.1563 1215.8906,65.1563 Q1216.4844,65.1563 1217.0469,64.8984 Q1217.6094,64.6406 1218.2031,64.0938 L1218.2031,66.6563 Z "/><text fill="#19273C" font-family="sans-serif" font-size="16" lengthAdjust="spacingAndGlyphs" textLength="98" x="1236.25" y="66.5391">Introspector</text><line style="stroke: #E3ECEC; stroke-width: 1.5;" x1="1085" x2="1453" y1="77" y2="77"/><line style="stroke: #E3ECEC; stroke-width: 1.5;" x1="1085" x2="1453" y1="85" y2="85"/><ellipse cx="1095" cy="99.3125" fill="#84BE84" rx="3" ry="3" style="stroke: #038048; stroke-width: 1.0;"/><text fill="#19273C" font-family="sans-serif" font-size="16" lengthAdjust="spacingAndGlyphs" textLength="254" x="1104" y="103.8516">void constructor(ModelManager)</text><ellipse cx="1095" cy="117.9375" fill="#84BE84" rx="3" ry="3" style="stroke: #038048; stroke-width: 1.0;"/><text fill="#19273C" font-family="sans-serif" font-size="16" lengthAdjust="spacingAndGlyphs" textLength="319" x="1104" y="122.4766">ClassDeclaration[] getClassDeclarations()</text><ellipse cx="1095" cy="136.5625" fill="#84BE84" rx="3" ry="3" style="stroke: #038048; stroke-width: 1.0;"/><text fill="#19273C" font-family="sans-serif" font-size="16" lengthAdjust="spacingAndGlyphs" textLength="344" x="1104" y="141.1016">ClassDeclaration getClassDeclaration(String)</text><!--class Serializer--><rect fill="#F8FAFA" height="103.875" rx="1" ry="1" style="stroke: #E3ECEC; stroke-width: 1.5;" width="542" x="6" y="329.5"/><ellipse cx="238.25" cy="345.5" fill="#FFFFFF" rx="11" ry="11" style="stroke: #E3ECEC; stroke-width: 1.0;"/><path d="M240.7031,351.1563 Q240.1563,351.4375 239.5547,351.5859 Q238.9531,351.7344 238.2813,351.7344 Q235.9219,351.7344 234.6797,350.1719 Q233.4375,348.6094 233.4375,345.6719 Q233.4375,342.7344 234.6797,341.1797 Q235.9219,339.625 238.2813,339.625 Q238.9531,339.625 239.5625,339.7656 Q240.1719,339.9063 240.7031,340.1875 L240.7031,342.75 Q240.1094,342.2031 239.5469,341.9453 Q238.9844,341.6875 238.3906,341.6875 Q237.125,341.6875 236.4844,342.6953 Q235.8438,343.7031 235.8438,345.6719 Q235.8438,347.6406 236.4844,348.6484 Q237.125,349.6563 238.3906,349.6563 Q238.9844,349.6563 239.5469,349.3984 Q240.1094,349.1406 240.7031,348.5938 L240.7031,351.1563 Z "/><text fill="#19273C" font-family="sans-serif" font-size="16" lengthAdjust="spacingAndGlyphs" textLength="69" x="258.75" y="351.0391">Serializer</text><line style="stroke: #E3ECEC; stroke-width: 1.5;" x1="7" x2="547" y1="361.5" y2="361.5"/><line style="stroke: #E3ECEC; stroke-width: 1.5;" x1="7" x2="547" y1="369.5" y2="369.5"/><ellipse cx="17" cy="383.8125" fill="#84BE84" rx="3" ry="3" style="stroke: #038048; stroke-width: 1.0;"/><text fill="#19273C" font-family="sans-serif" font-size="16" lengthAdjust="spacingAndGlyphs" textLength="318" x="26" y="388.3516">void constructor(Factory,ModelManager)</text><ellipse cx="17" cy="402.4375" fill="#84BE84" rx="3" ry="3" style="stroke: #038048; stroke-width: 1.0;"/><text fill="#19273C" font-family="sans-serif" font-size="16" lengthAdjust="spacingAndGlyphs" textLength="516" x="26" y="406.9766">Object toJSON(Resource,Object,boolean,boolean,boolean,boolean)</text><ellipse cx="17" cy="421.0625" fill="#84BE84" rx="3" ry="3" style="stroke: #038048; stroke-width: 1.0;"/><text fill="#19273C" font-family="sans-serif" font-size="16" lengthAdjust="spacingAndGlyphs" textLength="406" x="26" y="425.6016">Resource fromJSON(Object,Object,boolean,boolean)</text><!--class BusinessNetworkDefinition--><rect fill="#F8FAFA" height="271.5" rx="1" ry="1" style="stroke: #E3ECEC; stroke-width: 1.5;" width="504" x="583" y="246"/><ellipse cx="726.75" cy="262" fill="#FFFFFF" rx="11" ry="11" style="stroke: #E3ECEC; stroke-width: 1.0;"/><path d="M729.2031,267.6563 Q728.6563,267.9375 728.0547,268.0859 Q727.4531,268.2344 726.7813,268.2344 Q724.4219,268.2344 723.1797,266.6719 Q721.9375,265.1094 721.9375,262.1719 Q721.9375,259.2344 723.1797,257.6797 Q724.4219,256.125 726.7813,256.125 Q727.4531,256.125 728.0625,256.2656 Q728.6719,256.4063 729.2031,256.6875 L729.2031,259.25 Q728.6094,258.7031 728.0469,258.4453 Q727.4844,258.1875 726.8906,258.1875 Q725.625,258.1875 724.9844,259.1953 Q724.3438,260.2031 724.3438,262.1719 Q724.3438,264.1406 724.9844,265.1484 Q725.625,266.1563 726.8906,266.1563 Q727.4844,266.1563 728.0469,265.8984 Q728.6094,265.6406 729.2031,265.0938 L729.2031,267.6563 Z "/><text fill="#19273C" font-family="sans-serif" font-size="16" lengthAdjust="spacingAndGlyphs" textLength="208" x="747.25" y="267.5391">BusinessNetworkDefinition</text><line style="stroke: #E3ECEC; stroke-width: 1.5;" x1="584" x2="1086" y1="278" y2="278"/><line style="stroke: #E3ECEC; stroke-width: 1.5;" x1="584" x2="1086" y1="286" y2="286"/><ellipse cx="594" cy="300.3125" fill="#84BE84" rx="3" ry="3" style="stroke: #038048; stroke-width: 1.0;"/><text fill="#19273C" font-family="sans-serif" font-size="16" lengthAdjust="spacingAndGlyphs" textLength="342" x="603" y="304.8516">void constructor(String,String,object,String)</text><ellipse cx="594" cy="318.9375" fill="#84BE84" rx="3" ry="3" style="stroke: #038048; stroke-width: 1.0;"/><text fill="#19273C" font-family="sans-serif" font-size="16" lengthAdjust="spacingAndGlyphs" textLength="156" x="603" y="323.4766">String getIdentifier()</text><ellipse cx="594" cy="337.5625" fill="#84BE84" rx="3" ry="3" style="stroke: #038048; stroke-width: 1.0;"/><text fill="#19273C" font-family="sans-serif" font-size="16" lengthAdjust="spacingAndGlyphs" textLength="320" x="603" y="342.1016">BusinessNetworkMetadata getMetadata()</text><ellipse cx="594" cy="356.1875" fill="#84BE84" rx="3" ry="3" style="stroke: #038048; stroke-width: 1.0;"/><text fill="#19273C" font-family="sans-serif" font-size="16" lengthAdjust="spacingAndGlyphs" textLength="133" x="603" y="360.7266">String getName()</text><ellipse cx="594" cy="374.8125" fill="#84BE84" rx="3" ry="3" style="stroke: #038048; stroke-width: 1.0;"/><text fill="#19273C" font-family="sans-serif" font-size="16" lengthAdjust="spacingAndGlyphs" textLength="147" x="603" y="379.3516">String getVersion()</text><ellipse cx="594" cy="393.4375" fill="#84BE84" rx="3" ry="3" style="stroke: #038048; stroke-width: 1.0;"/><text fill="#19273C" font-family="sans-serif" font-size="16" lengthAdjust="spacingAndGlyphs" textLength="176" x="603" y="397.9766">String getDescription()</text><ellipse cx="594" cy="412.0625" fill="#84BE84" rx="3" ry="3" style="stroke: #038048; stroke-width: 1.0;"/><text fill="#19273C" font-family="sans-serif" font-size="16" lengthAdjust="spacingAndGlyphs" textLength="225" x="603" y="416.6016">Promise fromArchive(Buffer)</text><ellipse cx="594" cy="430.6875" fill="#84BE84" rx="3" ry="3" style="stroke: #038048; stroke-width: 1.0;"/><text fill="#19273C" font-family="sans-serif" font-size="16" lengthAdjust="spacingAndGlyphs" textLength="190" x="603" y="435.2266">Buffer toArchive(Object)</text><ellipse cx="594" cy="449.3125" fill="#84BE84" rx="3" ry="3" style="stroke: #038048; stroke-width: 1.0;"/><text fill="#19273C" font-family="sans-serif" font-size="16" lengthAdjust="spacingAndGlyphs" textLength="478" x="603" y="453.8516">Promise fromDirectory(String,Object,Object,boolean,boolean)</text><ellipse cx="594" cy="467.9375" fill="#84BE84" rx="3" ry="3" style="stroke: #038048; stroke-width: 1.0;"/><text fill="#19273C" font-family="sans-serif" font-size="16" lengthAdjust="spacingAndGlyphs" textLength="238" x="603" y="472.4766">Introspector getIntrospector()</text><ellipse cx="594" cy="486.5625" fill="#84BE84" rx="3" ry="3" style="stroke: #038048; stroke-width: 1.0;"/><text fill="#19273C" font-family="sans-serif" font-size="16" lengthAdjust="spacingAndGlyphs" textLength="160" x="603" y="491.1016">Factory getFactory()</text><ellipse cx="594" cy="505.1875" fill="#84BE84" rx="3" ry="3" style="stroke: #038048; stroke-width: 1.0;"/><text fill="#19273C" font-family="sans-serif" font-size="16" lengthAdjust="spacingAndGlyphs" textLength="180" x="603" y="509.7266">Serializer getSerializer()</text><path d="M1398.9,433.769 C1431.65,472.909 1476.07,525.9886 1505.82,561.5374 " fill="none" style="stroke: #3C6DF0; stroke-width: 1.0;"/><polygon fill="none" points="1511.27,557.1523,1518.74,576.983,1500.54,566.1368,1511.27,557.1523" style="stroke: #3C6DF0; stroke-width: 1.0;"/><path d="M1685.12,424.179 C1651.96,463.809 1602.49,522.934 1570.23,561.4834 " fill="none" style="stroke: #3C6DF0; stroke-width: 1.0;"/><polygon fill="none" points="1575.56,566.0256,1557.35,576.8718,1564.82,557.0411,1575.56,566.0256" style="stroke: #3C6DF0; stroke-width: 1.0;"/><path d="M1720,149.159 C1720,196.846 1720,268.046 1720,318.85 " fill="none" style="stroke: #3C6DF0; stroke-width: 1.0;"/><polygon fill="none" points="1727,318.909,1720,338.909,1713,318.909,1727,318.909" style="stroke: #3C6DF0; stroke-width: 1.0;"/><path d="M2059,415.062 C2059,452.732 2059,514.911 2059,556.647 " fill="none" style="stroke: #3C6DF0; stroke-width: 1.0;"/><polygon fill="none" points="2066,556.908,2059,576.9079,2052,556.9079,2066,556.908" style="stroke: #3C6DF0; stroke-width: 1.0;"/><path d="M2059,149.159 C2059,199.661 2059,276.536 2059,327.626 " fill="none" style="stroke: #3C6DF0; stroke-width: 1.0;"/><polygon fill="none" points="2066,327.791,2059,347.791,2052,327.791,2066,327.791" style="stroke: #3C6DF0; stroke-width: 1.0;"/></g></svg>