<?xml version="1.0" encoding="UTF-8" standalone="no"?><svg xmlns="http://www.w3.org/2000/svg" xmlns:xlink="http://www.w3.org/1999/xlink" contentScriptType="application/ecmascript" contentStyleType="text/css" height="184px" preserveAspectRatio="none" style="width:640px;height:184px;" version="1.1" viewBox="0 0 640 184" width="640px" zoomAndPan="magnify"><defs/><g><!--class IdentityRegistry--><rect fill="#F8FAFA" height="66.625" rx="1" ry="1" style="stroke: #E3ECEC; stroke-width: 1.5;" width="633" x="6" y="8"/><ellipse cx="257.25" cy="24" fill="#FFFFFF" rx="11" ry="11" style="stroke: #E3ECEC; stroke-width: 1.0;"/><path d="M259.7031,29.6563 Q259.1563,29.9375 258.5547,30.0859 Q257.9531,30.2344 257.2813,30.2344 Q254.9219,30.2344 253.6797,28.6719 Q252.4375,27.1094 252.4375,24.1719 Q252.4375,21.2344 253.6797,19.6797 Q254.9219,18.125 257.2813,18.125 Q257.9531,18.125 258.5625,18.2656 Q259.1719,18.4063 259.7031,18.6875 L259.7031,21.25 Q259.1094,20.7031 258.5469,20.4453 Q257.9844,20.1875 257.3906,20.1875 Q256.125,20.1875 255.4844,21.1953 Q254.8438,22.2031 254.8438,24.1719 Q254.8438,26.1406 255.4844,27.1484 Q256.125,28.1563 257.3906,28.1563 Q257.9844,28.1563 258.5469,27.8984 Q259.1094,27.6406 259.7031,27.0938 L259.7031,29.6563 Z "/><text fill="#19273C" font-family="sans-serif" font-size="16" lengthAdjust="spacingAndGlyphs" textLength="122" x="277.75" y="29.5391">IdentityRegistry</text><line style="stroke: #E3ECEC; stroke-width: 1.5;" x1="7" x2="638" y1="40" y2="40"/><line style="stroke: #E3ECEC; stroke-width: 1.5;" x1="7" x2="638" y1="48" y2="48"/><ellipse cx="17" cy="62.3125" fill="#84BE84" rx="3" ry="3" style="stroke: #038048; stroke-width: 1.0;"/><text fill="#19273C" font-family="sans-serif" font-size="16" lengthAdjust="spacingAndGlyphs" textLength="607" x="26" y="66.8516">Promise getIdentityRegistry(SecurityContext,ModelManager,Factory,Serializer)</text><!--class Registry--><rect fill="#F8FAFA" height="48" rx="1" ry="1" style="stroke: #E3ECEC; stroke-width: 1.5;" width="96" x="274.5" y="135"/><ellipse cx="289.5" cy="151" fill="#FFFFFF" rx="11" ry="11" style="stroke: #E3ECEC; stroke-width: 1.0;"/><path d="M291.9531,156.6563 Q291.4063,156.9375 290.8047,157.0859 Q290.2031,157.2344 289.5313,157.2344 Q287.1719,157.2344 285.9297,155.6719 Q284.6875,154.1094 284.6875,151.1719 Q284.6875,148.2344 285.9297,146.6797 Q287.1719,145.125 289.5313,145.125 Q290.2031,145.125 290.8125,145.2656 Q291.4219,145.4063 291.9531,145.6875 L291.9531,148.25 Q291.3594,147.7031 290.7969,147.4453 Q290.2344,147.1875 289.6406,147.1875 Q288.375,147.1875 287.7344,148.1953 Q287.0938,149.2031 287.0938,151.1719 Q287.0938,153.1406 287.7344,154.1484 Q288.375,155.1563 289.6406,155.1563 Q290.2344,155.1563 290.7969,154.8984 Q291.3594,154.6406 291.9531,154.0938 L291.9531,156.6563 Z "/><text fill="#19273C" font-family="sans-serif" font-size="16" lengthAdjust="spacingAndGlyphs" textLength="64" x="303.5" y="156.5391">Registry</text><line style="stroke: #E3ECEC; stroke-width: 1.5;" x1="275.5" x2="369.5" y1="167" y2="167"/><line style="stroke: #E3ECEC; stroke-width: 1.5;" x1="275.5" x2="369.5" y1="175" y2="175"/><path d="M322.5,75.289 C322.5,87.4227 322.5,101.3772 322.5,114.3262 " fill="none" style="stroke: #3C6DF0; stroke-width: 1.0;"/><polygon fill="none" points="329.5,114.6703,322.5,134.6703,315.5,114.6703,329.5,114.6703" style="stroke: #3C6DF0; stroke-width: 1.0;"/></g></svg>