<?xml version="1.0" encoding="UTF-8" standalone="no"?><svg xmlns="http://www.w3.org/2000/svg" xmlns:xlink="http://www.w3.org/1999/xlink" contentScriptType="application/ecmascript" contentStyleType="text/css" height="482px" preserveAspectRatio="none" style="width:934px;height:482px;" version="1.1" viewBox="0 0 934 482" width="934px" zoomAndPan="magnify"><defs/><g><!--class Registry--><rect fill="#F8FAFA" height="346" rx="1" ry="1" style="stroke: #E3ECEC; stroke-width: 1.5;" width="927" x="6" y="135"/><ellipse cx="433.25" cy="151" fill="#FFFFFF" rx="11" ry="11" style="stroke: #E3ECEC; stroke-width: 1.0;"/><path d="M435.7031,156.6563 Q435.1563,156.9375 434.5547,157.0859 Q433.9531,157.2344 433.2813,157.2344 Q430.9219,157.2344 429.6797,155.6719 Q428.4375,154.1094 428.4375,151.1719 Q428.4375,148.2344 429.6797,146.6797 Q430.9219,145.125 433.2813,145.125 Q433.9531,145.125 434.5625,145.2656 Q435.1719,145.4063 435.7031,145.6875 L435.7031,148.25 Q435.1094,147.7031 434.5469,147.4453 Q433.9844,147.1875 433.3906,147.1875 Q432.125,147.1875 431.4844,148.1953 Q430.8438,149.2031 430.8438,151.1719 Q430.8438,153.1406 431.4844,154.1484 Q432.125,155.1563 433.3906,155.1563 Q433.9844,155.1563 434.5469,154.8984 Q435.1094,154.6406 435.7031,154.0938 L435.7031,156.6563 Z "/><text fill="#19273C" font-family="sans-serif" font-size="16" lengthAdjust="spacingAndGlyphs" textLength="64" x="453.75" y="156.5391">Registry</text><line style="stroke: #E3ECEC; stroke-width: 1.5;" x1="7" x2="932" y1="167" y2="167"/><line style="stroke: #E3ECEC; stroke-width: 1.5;" x1="7" x2="932" y1="175" y2="175"/><ellipse cx="17" cy="189.3125" fill="#84BE84" rx="3" ry="3" style="stroke: #038048; stroke-width: 1.0;"/><text fill="#19273C" font-family="sans-serif" font-size="16" lengthAdjust="spacingAndGlyphs" textLength="439" x="26" y="193.8516">Promise getAllRegistries(SecurityContext,string,boolean)</text><ellipse cx="17" cy="207.9375" fill="#84BE84" rx="3" ry="3" style="stroke: #038048; stroke-width: 1.0;"/><text fill="#19273C" font-family="sans-serif" font-size="16" lengthAdjust="spacingAndGlyphs" textLength="394" x="26" y="212.4766">Promise getRegistry(SecurityContext,string,string)</text><ellipse cx="17" cy="226.5625" fill="#84BE84" rx="3" ry="3" style="stroke: #038048; stroke-width: 1.0;"/><text fill="#19273C" font-family="sans-serif" font-size="16" lengthAdjust="spacingAndGlyphs" textLength="415" x="26" y="231.1016">Promise existsRegistry(SecurityContext,string,string)</text><ellipse cx="17" cy="245.1875" fill="#84BE84" rx="3" ry="3" style="stroke: #038048; stroke-width: 1.0;"/><text fill="#19273C" font-family="sans-serif" font-size="16" lengthAdjust="spacingAndGlyphs" textLength="448" x="26" y="249.7266">Promise addRegistry(SecurityContext,string,string,string)</text><ellipse cx="17" cy="263.8125" fill="#84BE84" rx="3" ry="3" style="stroke: #038048; stroke-width: 1.0;"/><text fill="#19273C" font-family="sans-serif" font-size="16" lengthAdjust="spacingAndGlyphs" textLength="901" x="26" y="268.3516">void constructor(string,string,string,SecurityContext,ModelManager,Factory,Serializer,BusinessNetworkConnection)</text><ellipse cx="17" cy="282.4375" fill="#84BE84" rx="3" ry="3" style="stroke: #038048; stroke-width: 1.0;"/><text fill="#19273C" font-family="sans-serif" font-size="16" lengthAdjust="spacingAndGlyphs" textLength="212" x="26" y="286.9766">Promise addAll(Resource[])</text><ellipse cx="17" cy="301.0625" fill="#84BE84" rx="3" ry="3" style="stroke: #038048; stroke-width: 1.0;"/><text fill="#19273C" font-family="sans-serif" font-size="16" lengthAdjust="spacingAndGlyphs" textLength="183" x="26" y="305.6016">Promise add(Resource)</text><ellipse cx="17" cy="319.6875" fill="#84BE84" rx="3" ry="3" style="stroke: #038048; stroke-width: 1.0;"/><text fill="#19273C" font-family="sans-serif" font-size="16" lengthAdjust="spacingAndGlyphs" textLength="237" x="26" y="324.2266">Promise updateAll(Resource[])</text><ellipse cx="17" cy="338.3125" fill="#84BE84" rx="3" ry="3" style="stroke: #038048; stroke-width: 1.0;"/><text fill="#19273C" font-family="sans-serif" font-size="16" lengthAdjust="spacingAndGlyphs" textLength="208" x="26" y="342.8516">Promise update(Resource)</text><ellipse cx="17" cy="356.9375" fill="#84BE84" rx="3" ry="3" style="stroke: #038048; stroke-width: 1.0;"/><text fill="#19273C" font-family="sans-serif" font-size="16" lengthAdjust="spacingAndGlyphs" textLength="156" x="26" y="361.4766">Promise removeAll()</text><ellipse cx="17" cy="375.5625" fill="#84BE84" rx="3" ry="3" style="stroke: #038048; stroke-width: 1.0;"/><text fill="#19273C" font-family="sans-serif" font-size="16" lengthAdjust="spacingAndGlyphs" textLength="139" x="26" y="380.1016">Promise remove()</text><ellipse cx="17" cy="394.1875" fill="#84BE84" rx="3" ry="3" style="stroke: #038048; stroke-width: 1.0;"/><text fill="#19273C" font-family="sans-serif" font-size="16" lengthAdjust="spacingAndGlyphs" textLength="122" x="26" y="398.7266">Promise getAll()</text><ellipse cx="17" cy="412.8125" fill="#84BE84" rx="3" ry="3" style="stroke: #038048; stroke-width: 1.0;"/><text fill="#19273C" font-family="sans-serif" font-size="16" lengthAdjust="spacingAndGlyphs" textLength="150" x="26" y="417.3516">Promise get(string)</text><ellipse cx="17" cy="431.4375" fill="#84BE84" rx="3" ry="3" style="stroke: #038048; stroke-width: 1.0;"/><text fill="#19273C" font-family="sans-serif" font-size="16" lengthAdjust="spacingAndGlyphs" textLength="171" x="26" y="435.9766">Promise exists(string)</text><ellipse cx="17" cy="450.0625" fill="#84BE84" rx="3" ry="3" style="stroke: #038048; stroke-width: 1.0;"/><text fill="#19273C" font-family="sans-serif" font-size="16" lengthAdjust="spacingAndGlyphs" textLength="153" x="26" y="454.6016">Promise resolveAll()</text><ellipse cx="17" cy="468.6875" fill="#84BE84" rx="3" ry="3" style="stroke: #038048; stroke-width: 1.0;"/><text fill="#19273C" font-family="sans-serif" font-size="16" lengthAdjust="spacingAndGlyphs" textLength="181" x="26" y="473.2266">Promise resolve(string)</text><!--class IdentityRegistry--><rect fill="#F8FAFA" height="66.625" rx="1" ry="1" style="stroke: #E3ECEC; stroke-width: 1.5;" width="633" x="153" y="8"/><ellipse cx="404.25" cy="24" fill="#FFFFFF" rx="11" ry="11" style="stroke: #E3ECEC; stroke-width: 1.0;"/><path d="M406.7031,29.6563 Q406.1563,29.9375 405.5547,30.0859 Q404.9531,30.2344 404.2813,30.2344 Q401.9219,30.2344 400.6797,28.6719 Q399.4375,27.1094 399.4375,24.1719 Q399.4375,21.2344 400.6797,19.6797 Q401.9219,18.125 404.2813,18.125 Q404.9531,18.125 405.5625,18.2656 Q406.1719,18.4063 406.7031,18.6875 L406.7031,21.25 Q406.1094,20.7031 405.5469,20.4453 Q404.9844,20.1875 404.3906,20.1875 Q403.125,20.1875 402.4844,21.1953 Q401.8438,22.2031 401.8438,24.1719 Q401.8438,26.1406 402.4844,27.1484 Q403.125,28.1563 404.3906,28.1563 Q404.9844,28.1563 405.5469,27.8984 Q406.1094,27.6406 406.7031,27.0938 L406.7031,29.6563 Z "/><text fill="#19273C" font-family="sans-serif" font-size="16" lengthAdjust="spacingAndGlyphs" textLength="122" x="424.75" y="29.5391">IdentityRegistry</text><line style="stroke: #E3ECEC; stroke-width: 1.5;" x1="154" x2="785" y1="40" y2="40"/><line style="stroke: #E3ECEC; stroke-width: 1.5;" x1="154" x2="785" y1="48" y2="48"/><ellipse cx="164" cy="62.3125" fill="#84BE84" rx="3" ry="3" style="stroke: #038048; stroke-width: 1.0;"/><text fill="#19273C" font-family="sans-serif" font-size="16" lengthAdjust="spacingAndGlyphs" textLength="607" x="173" y="66.8516">Promise getIdentityRegistry(SecurityContext,ModelManager,Factory,Serializer)</text><path d="M469.5,75.198 C469.5,86.442 469.5,99.965 469.5,114.759 " fill="none" style="stroke: #3C6DF0; stroke-width: 1.0;"/><polygon fill="none" points="476.5,114.855,469.5,134.855,462.5,114.855,476.5,114.855" style="stroke: #3C6DF0; stroke-width: 1.0;"/></g></svg>