<?xml version="1.0" encoding="UTF-8" standalone="no"?><svg xmlns="http://www.w3.org/2000/svg" xmlns:xlink="http://www.w3.org/1999/xlink" contentScriptType="application/ecmascript" contentStyleType="text/css" height="538px" preserveAspectRatio="none" style="width:998px;height:538px;" version="1.1" viewBox="0 0 998 538" width="998px" zoomAndPan="magnify"><defs/><g><!--class Registry--><rect fill="#F8FAFA" height="346" rx="1" ry="1" style="stroke: #E3ECEC; stroke-width: 1.5;" width="927" x="38" y="191"/><ellipse cx="465.25" cy="207" fill="#FFFFFF" rx="11" ry="11" style="stroke: #E3ECEC; stroke-width: 1.0;"/><path d="M467.7031,212.6563 Q467.1563,212.9375 466.5547,213.0859 Q465.9531,213.2344 465.2813,213.2344 Q462.9219,213.2344 461.6797,211.6719 Q460.4375,210.1094 460.4375,207.1719 Q460.4375,204.2344 461.6797,202.6797 Q462.9219,201.125 465.2813,201.125 Q465.9531,201.125 466.5625,201.2656 Q467.1719,201.4063 467.7031,201.6875 L467.7031,204.25 Q467.1094,203.7031 466.5469,203.4453 Q465.9844,203.1875 465.3906,203.1875 Q464.125,203.1875 463.4844,204.1953 Q462.8438,205.2031 462.8438,207.1719 Q462.8438,209.1406 463.4844,210.1484 Q464.125,211.1563 465.3906,211.1563 Q465.9844,211.1563 466.5469,210.8984 Q467.1094,210.6406 467.7031,210.0938 L467.7031,212.6563 Z "/><text fill="#19273C" font-family="sans-serif" font-size="16" lengthAdjust="spacingAndGlyphs" textLength="64" x="485.75" y="212.5391">Registry</text><line style="stroke: #E3ECEC; stroke-width: 1.5;" x1="39" x2="964" y1="223" y2="223"/><line style="stroke: #E3ECEC; stroke-width: 1.5;" x1="39" x2="964" y1="231" y2="231"/><ellipse cx="49" cy="245.3125" fill="#84BE84" rx="3" ry="3" style="stroke: #038048; stroke-width: 1.0;"/><text fill="#19273C" font-family="sans-serif" font-size="16" lengthAdjust="spacingAndGlyphs" textLength="439" x="58" y="249.8516">Promise getAllRegistries(SecurityContext,string,boolean)</text><ellipse cx="49" cy="263.9375" fill="#84BE84" rx="3" ry="3" style="stroke: #038048; stroke-width: 1.0;"/><text fill="#19273C" font-family="sans-serif" font-size="16" lengthAdjust="spacingAndGlyphs" textLength="394" x="58" y="268.4766">Promise getRegistry(SecurityContext,string,string)</text><ellipse cx="49" cy="282.5625" fill="#84BE84" rx="3" ry="3" style="stroke: #038048; stroke-width: 1.0;"/><text fill="#19273C" font-family="sans-serif" font-size="16" lengthAdjust="spacingAndGlyphs" textLength="415" x="58" y="287.1016">Promise existsRegistry(SecurityContext,string,string)</text><ellipse cx="49" cy="301.1875" fill="#84BE84" rx="3" ry="3" style="stroke: #038048; stroke-width: 1.0;"/><text fill="#19273C" font-family="sans-serif" font-size="16" lengthAdjust="spacingAndGlyphs" textLength="448" x="58" y="305.7266">Promise addRegistry(SecurityContext,string,string,string)</text><ellipse cx="49" cy="319.8125" fill="#84BE84" rx="3" ry="3" style="stroke: #038048; stroke-width: 1.0;"/><text fill="#19273C" font-family="sans-serif" font-size="16" lengthAdjust="spacingAndGlyphs" textLength="901" x="58" y="324.3516">void constructor(string,string,string,SecurityContext,ModelManager,Factory,Serializer,BusinessNetworkConnection)</text><ellipse cx="49" cy="338.4375" fill="#84BE84" rx="3" ry="3" style="stroke: #038048; stroke-width: 1.0;"/><text fill="#19273C" font-family="sans-serif" font-size="16" lengthAdjust="spacingAndGlyphs" textLength="212" x="58" y="342.9766">Promise addAll(Resource[])</text><ellipse cx="49" cy="357.0625" fill="#84BE84" rx="3" ry="3" style="stroke: #038048; stroke-width: 1.0;"/><text fill="#19273C" font-family="sans-serif" font-size="16" lengthAdjust="spacingAndGlyphs" textLength="183" x="58" y="361.6016">Promise add(Resource)</text><ellipse cx="49" cy="375.6875" fill="#84BE84" rx="3" ry="3" style="stroke: #038048; stroke-width: 1.0;"/><text fill="#19273C" font-family="sans-serif" font-size="16" lengthAdjust="spacingAndGlyphs" textLength="237" x="58" y="380.2266">Promise updateAll(Resource[])</text><ellipse cx="49" cy="394.3125" fill="#84BE84" rx="3" ry="3" style="stroke: #038048; stroke-width: 1.0;"/><text fill="#19273C" font-family="sans-serif" font-size="16" lengthAdjust="spacingAndGlyphs" textLength="208" x="58" y="398.8516">Promise update(Resource)</text><ellipse cx="49" cy="412.9375" fill="#84BE84" rx="3" ry="3" style="stroke: #038048; stroke-width: 1.0;"/><text fill="#19273C" font-family="sans-serif" font-size="16" lengthAdjust="spacingAndGlyphs" textLength="156" x="58" y="417.4766">Promise removeAll()</text><ellipse cx="49" cy="431.5625" fill="#84BE84" rx="3" ry="3" style="stroke: #038048; stroke-width: 1.0;"/><text fill="#19273C" font-family="sans-serif" font-size="16" lengthAdjust="spacingAndGlyphs" textLength="139" x="58" y="436.1016">Promise remove()</text><ellipse cx="49" cy="450.1875" fill="#84BE84" rx="3" ry="3" style="stroke: #038048; stroke-width: 1.0;"/><text fill="#19273C" font-family="sans-serif" font-size="16" lengthAdjust="spacingAndGlyphs" textLength="122" x="58" y="454.7266">Promise getAll()</text><ellipse cx="49" cy="468.8125" fill="#84BE84" rx="3" ry="3" style="stroke: #038048; stroke-width: 1.0;"/><text fill="#19273C" font-family="sans-serif" font-size="16" lengthAdjust="spacingAndGlyphs" textLength="150" x="58" y="473.3516">Promise get(string)</text><ellipse cx="49" cy="487.4375" fill="#84BE84" rx="3" ry="3" style="stroke: #038048; stroke-width: 1.0;"/><text fill="#19273C" font-family="sans-serif" font-size="16" lengthAdjust="spacingAndGlyphs" textLength="171" x="58" y="491.9766">Promise exists(string)</text><ellipse cx="49" cy="506.0625" fill="#84BE84" rx="3" ry="3" style="stroke: #038048; stroke-width: 1.0;"/><text fill="#19273C" font-family="sans-serif" font-size="16" lengthAdjust="spacingAndGlyphs" textLength="153" x="58" y="510.6016">Promise resolveAll()</text><ellipse cx="49" cy="524.6875" fill="#84BE84" rx="3" ry="3" style="stroke: #038048; stroke-width: 1.0;"/><text fill="#19273C" font-family="sans-serif" font-size="16" lengthAdjust="spacingAndGlyphs" textLength="181" x="58" y="529.2266">Promise resolve(string)</text><!--class TransactionRegistry--><rect fill="#F8FAFA" height="122.5" rx="1" ry="1" style="stroke: #E3ECEC; stroke-width: 1.5;" width="991" x="6" y="8"/><ellipse cx="419.75" cy="24" fill="#FFFFFF" rx="11" ry="11" style="stroke: #E3ECEC; stroke-width: 1.0;"/><path d="M422.2031,29.6563 Q421.6563,29.9375 421.0547,30.0859 Q420.4531,30.2344 419.7813,30.2344 Q417.4219,30.2344 416.1797,28.6719 Q414.9375,27.1094 414.9375,24.1719 Q414.9375,21.2344 416.1797,19.6797 Q417.4219,18.125 419.7813,18.125 Q420.4531,18.125 421.0625,18.2656 Q421.6719,18.4063 422.2031,18.6875 L422.2031,21.25 Q421.6094,20.7031 421.0469,20.4453 Q420.4844,20.1875 419.8906,20.1875 Q418.625,20.1875 417.9844,21.1953 Q417.3438,22.2031 417.3438,24.1719 Q417.3438,26.1406 417.9844,27.1484 Q418.625,28.1563 419.8906,28.1563 Q420.4844,28.1563 421.0469,27.8984 Q421.6094,27.6406 422.2031,27.0938 L422.2031,29.6563 Z "/><text fill="#19273C" font-family="sans-serif" font-size="16" lengthAdjust="spacingAndGlyphs" textLength="155" x="440.25" y="29.5391">TransactionRegistry</text><line style="stroke: #E3ECEC; stroke-width: 1.5;" x1="7" x2="996" y1="40" y2="40"/><line style="stroke: #E3ECEC; stroke-width: 1.5;" x1="7" x2="996" y1="48" y2="48"/><ellipse cx="17" cy="62.3125" fill="#84BE84" rx="3" ry="3" style="stroke: #038048; stroke-width: 1.0;"/><text fill="#19273C" font-family="sans-serif" font-size="16" lengthAdjust="spacingAndGlyphs" textLength="965" x="26" y="66.8516">Promise getAllTransactionRegistries(SecurityContext,ModelManager,Factory,Serializer,BusinessNetworkConnection,Boolean)</text><ellipse cx="17" cy="80.9375" fill="#84BE84" rx="3" ry="3" style="stroke: #038048; stroke-width: 1.0;"/><text fill="#19273C" font-family="sans-serif" font-size="16" lengthAdjust="spacingAndGlyphs" textLength="690" x="26" y="85.4766">Promise getTransactionRegistry(SecurityContext,string,ModelManager,Factory,Serializer)</text><ellipse cx="17" cy="99.5625" fill="#84BE84" rx="3" ry="3" style="stroke: #038048; stroke-width: 1.0;"/><text fill="#19273C" font-family="sans-serif" font-size="16" lengthAdjust="spacingAndGlyphs" textLength="744" x="26" y="104.1016">Promise addTransactionRegistry(SecurityContext,string,string,ModelManager,Factory,Serializer)</text><ellipse cx="17" cy="118.1875" fill="#84BE84" rx="3" ry="3" style="stroke: #038048; stroke-width: 1.0;"/><text fill="#19273C" font-family="sans-serif" font-size="16" lengthAdjust="spacingAndGlyphs" textLength="709" x="26" y="122.7266">Promise transactionRegistryExists(SecurityContext,string,ModelManager,Factory,Serializer)</text><path d="M501.5,131.106 C501.5,143.276 501.5,156.667 501.5,170.687 " fill="none" style="stroke: #3C6DF0; stroke-width: 1.0;"/><polygon fill="none" points="508.5,170.866,501.5,190.866,494.5,170.866,508.5,170.866" style="stroke: #3C6DF0; stroke-width: 1.0;"/></g></svg>