<?xml version="1.0" encoding="UTF-8" standalone="no"?><svg xmlns="http://www.w3.org/2000/svg" xmlns:xlink="http://www.w3.org/1999/xlink" contentScriptType="application/ecmascript" contentStyleType="text/css" height="202px" preserveAspectRatio="none" style="width:272px;height:202px;" version="1.1" viewBox="0 0 272 202" width="272px" zoomAndPan="magnify"><defs/><g><!--class TypeNotFoundException--><rect fill="#F8FAFA" height="85.25" rx="1" ry="1" style="stroke: #E3ECEC; stroke-width: 1.5;" width="265" x="6" y="8"/><ellipse cx="39.9" cy="24" fill="#FFFFFF" rx="11" ry="11" style="stroke: #E3ECEC; stroke-width: 1.0;"/><path d="M42.3531,29.6563 Q41.8063,29.9375 41.2047,30.0859 Q40.6031,30.2344 39.9313,30.2344 Q37.5719,30.2344 36.3297,28.6719 Q35.0875,27.1094 35.0875,24.1719 Q35.0875,21.2344 36.3297,19.6797 Q37.5719,18.125 39.9313,18.125 Q40.6031,18.125 41.2125,18.2656 Q41.8219,18.4063 42.3531,18.6875 L42.3531,21.25 Q41.7594,20.7031 41.1969,20.4453 Q40.6344,20.1875 40.0406,20.1875 Q38.775,20.1875 38.1344,21.1953 Q37.4938,22.2031 37.4938,24.1719 Q37.4938,26.1406 38.1344,27.1484 Q38.775,28.1563 40.0406,28.1563 Q40.6344,28.1563 41.1969,27.8984 Q41.7594,27.6406 42.3531,27.0938 L42.3531,29.6563 Z "/><text fill="#19273C" font-family="sans-serif" font-size="16" lengthAdjust="spacingAndGlyphs" textLength="191" x="58.1" y="29.5391">TypeNotFoundException</text><line style="stroke: #E3ECEC; stroke-width: 1.5;" x1="7" x2="270" y1="40" y2="40"/><line style="stroke: #E3ECEC; stroke-width: 1.5;" x1="7" x2="270" y1="48" y2="48"/><ellipse cx="17" cy="62.3125" fill="#84BE84" rx="3" ry="3" style="stroke: #038048; stroke-width: 1.0;"/><text fill="#19273C" font-family="sans-serif" font-size="16" lengthAdjust="spacingAndGlyphs" textLength="239" x="26" y="66.8516">void constructor(String,String)</text><ellipse cx="17" cy="80.9375" fill="#84BE84" rx="3" ry="3" style="stroke: #038048; stroke-width: 1.0;"/><text fill="#19273C" font-family="sans-serif" font-size="16" lengthAdjust="spacingAndGlyphs" textLength="169" x="26" y="85.4766">string getTypeName()</text><!--class BaseException--><rect fill="#F8FAFA" height="48" rx="1" ry="1" style="stroke: #E3ECEC; stroke-width: 1.5;" width="147" x="65" y="153"/><ellipse cx="80" cy="169" fill="#FFFFFF" rx="11" ry="11" style="stroke: #E3ECEC; stroke-width: 1.0;"/><path d="M82.4531,174.6563 Q81.9063,174.9375 81.3047,175.0859 Q80.7031,175.2344 80.0313,175.2344 Q77.6719,175.2344 76.4297,173.6719 Q75.1875,172.1094 75.1875,169.1719 Q75.1875,166.2344 76.4297,164.6797 Q77.6719,163.125 80.0313,163.125 Q80.7031,163.125 81.3125,163.2656 Q81.9219,163.4063 82.4531,163.6875 L82.4531,166.25 Q81.8594,165.7031 81.2969,165.4453 Q80.7344,165.1875 80.1406,165.1875 Q78.875,165.1875 78.2344,166.1953 Q77.5938,167.2031 77.5938,169.1719 Q77.5938,171.1406 78.2344,172.1484 Q78.875,173.1563 80.1406,173.1563 Q80.7344,173.1563 81.2969,172.8984 Q81.8594,172.6406 82.4531,172.0938 L82.4531,174.6563 Z "/><text fill="#19273C" font-family="sans-serif" font-size="16" lengthAdjust="spacingAndGlyphs" textLength="115" x="94" y="174.5391">BaseException</text><line style="stroke: #E3ECEC; stroke-width: 1.5;" x1="66" x2="211" y1="185" y2="185"/><line style="stroke: #E3ECEC; stroke-width: 1.5;" x1="66" x2="211" y1="193" y2="193"/><path d="M138.5,93.303 C138.5,106.0649 138.5,120.1166 138.5,132.959 " fill="none" style="stroke: #3C6DF0; stroke-width: 1.0;"/><polygon fill="none" points="145.5,132.9891,138.5,152.989,131.5,132.989,145.5,132.9891" style="stroke: #3C6DF0; stroke-width: 1.0;"/></g></svg>