<?xml version="1.0" encoding="UTF-8" standalone="no"?><svg xmlns="http://www.w3.org/2000/svg" xmlns:xlink="http://www.w3.org/1999/xlink" contentScriptType="application/ecmascript" contentStyleType="text/css" height="593px" preserveAspectRatio="none" style="width:730px;height:593px;" version="1.1" viewBox="0 0 730 593" width="730px" zoomAndPan="magnify"><defs/><g><!--class Registry--><rect fill="#F8FAFA" height="383.25" rx="1" ry="1" style="stroke: #E3ECEC; stroke-width: 1.5;" width="698" x="18.5" y="209"/><ellipse cx="331.25" cy="225" fill="#FFFFFF" rx="11" ry="11" style="stroke: #E3ECEC; stroke-width: 1.0;"/><path d="M333.7031,230.6563 Q333.1563,230.9375 332.5547,231.0859 Q331.9531,231.2344 331.2813,231.2344 Q328.9219,231.2344 327.6797,229.6719 Q326.4375,228.1094 326.4375,225.1719 Q326.4375,222.2344 327.6797,220.6797 Q328.9219,219.125 331.2813,219.125 Q331.9531,219.125 332.5625,219.2656 Q333.1719,219.4063 333.7031,219.6875 L333.7031,222.25 Q333.1094,221.7031 332.5469,221.4453 Q331.9844,221.1875 331.3906,221.1875 Q330.125,221.1875 329.4844,222.1953 Q328.8438,223.2031 328.8438,225.1719 Q328.8438,227.1406 329.4844,228.1484 Q330.125,229.1563 331.3906,229.1563 Q331.9844,229.1563 332.5469,228.8984 Q333.1094,228.6406 333.7031,228.0938 L333.7031,230.6563 Z "/><text fill="#19273C" font-family="sans-serif" font-size="16" lengthAdjust="spacingAndGlyphs" textLength="64" x="351.75" y="230.5391">Registry</text><line style="stroke: #E3ECEC; stroke-width: 1.5;" x1="19.5" x2="715.5" y1="241" y2="241"/><line style="stroke: #E3ECEC; stroke-width: 1.5;" x1="19.5" x2="715.5" y1="249" y2="249"/><ellipse cx="29.5" cy="263.3125" fill="#84BE84" rx="3" ry="3" style="stroke: #038048; stroke-width: 1.0;"/><text fill="#19273C" font-family="sans-serif" font-size="16" lengthAdjust="spacingAndGlyphs" textLength="373" x="38.5" y="267.8516">Promise getAllRegistries(SecurityContext,string)</text><ellipse cx="29.5" cy="281.9375" fill="#84BE84" rx="3" ry="3" style="stroke: #038048; stroke-width: 1.0;"/><text fill="#19273C" font-family="sans-serif" font-size="16" lengthAdjust="spacingAndGlyphs" textLength="394" x="38.5" y="286.4766">Promise getRegistry(SecurityContext,string,string)</text><ellipse cx="29.5" cy="300.5625" fill="#84BE84" rx="3" ry="3" style="stroke: #038048; stroke-width: 1.0;"/><text fill="#19273C" font-family="sans-serif" font-size="16" lengthAdjust="spacingAndGlyphs" textLength="415" x="38.5" y="305.1016">Promise existsRegistry(SecurityContext,string,string)</text><ellipse cx="29.5" cy="319.1875" fill="#84BE84" rx="3" ry="3" style="stroke: #038048; stroke-width: 1.0;"/><text fill="#19273C" font-family="sans-serif" font-size="16" lengthAdjust="spacingAndGlyphs" textLength="448" x="38.5" y="323.7266">Promise addRegistry(SecurityContext,string,string,string)</text><ellipse cx="29.5" cy="337.8125" fill="#84BE84" rx="3" ry="3" style="stroke: #038048; stroke-width: 1.0;"/><text fill="#19273C" font-family="sans-serif" font-size="16" lengthAdjust="spacingAndGlyphs" textLength="672" x="38.5" y="342.3516">void constructor(string,string,string,SecurityContext,ModelManager,Factory,Serializer)</text><ellipse cx="29.5" cy="356.4375" fill="#84BE84" rx="3" ry="3" style="stroke: #038048; stroke-width: 1.0;"/><text fill="#19273C" font-family="sans-serif" font-size="16" lengthAdjust="spacingAndGlyphs" textLength="212" x="38.5" y="360.9766">Promise addAll(Resource[])</text><ellipse cx="29.5" cy="375.0625" fill="#84BE84" rx="3" ry="3" style="stroke: #038048; stroke-width: 1.0;"/><text fill="#19273C" font-family="sans-serif" font-size="16" lengthAdjust="spacingAndGlyphs" textLength="183" x="38.5" y="379.6016">Promise add(Resource)</text><ellipse cx="29.5" cy="393.6875" fill="#84BE84" rx="3" ry="3" style="stroke: #038048; stroke-width: 1.0;"/><text fill="#19273C" font-family="sans-serif" font-size="16" lengthAdjust="spacingAndGlyphs" textLength="237" x="38.5" y="398.2266">Promise updateAll(Resource[])</text><ellipse cx="29.5" cy="412.3125" fill="#84BE84" rx="3" ry="3" style="stroke: #038048; stroke-width: 1.0;"/><text fill="#19273C" font-family="sans-serif" font-size="16" lengthAdjust="spacingAndGlyphs" textLength="208" x="38.5" y="416.8516">Promise update(Resource)</text><ellipse cx="29.5" cy="430.9375" fill="#84BE84" rx="3" ry="3" style="stroke: #038048; stroke-width: 1.0;"/><text fill="#19273C" font-family="sans-serif" font-size="16" lengthAdjust="spacingAndGlyphs" textLength="156" x="38.5" y="435.4766">Promise removeAll()</text><ellipse cx="29.5" cy="449.5625" fill="#84BE84" rx="3" ry="3" style="stroke: #038048; stroke-width: 1.0;"/><text fill="#19273C" font-family="sans-serif" font-size="16" lengthAdjust="spacingAndGlyphs" textLength="139" x="38.5" y="454.1016">Promise remove()</text><ellipse cx="29.5" cy="468.1875" fill="#84BE84" rx="3" ry="3" style="stroke: #038048; stroke-width: 1.0;"/><text fill="#19273C" font-family="sans-serif" font-size="16" lengthAdjust="spacingAndGlyphs" textLength="122" x="38.5" y="472.7266">Promise getAll()</text><ellipse cx="29.5" cy="486.8125" fill="#84BE84" rx="3" ry="3" style="stroke: #038048; stroke-width: 1.0;"/><text fill="#19273C" font-family="sans-serif" font-size="16" lengthAdjust="spacingAndGlyphs" textLength="150" x="38.5" y="491.3516">Promise get(string)</text><ellipse cx="29.5" cy="505.4375" fill="#84BE84" rx="3" ry="3" style="stroke: #038048; stroke-width: 1.0;"/><text fill="#19273C" font-family="sans-serif" font-size="16" lengthAdjust="spacingAndGlyphs" textLength="171" x="38.5" y="509.9766">Promise exists(string)</text><ellipse cx="29.5" cy="524.0625" fill="#84BE84" rx="3" ry="3" style="stroke: #038048; stroke-width: 1.0;"/><text fill="#19273C" font-family="sans-serif" font-size="16" lengthAdjust="spacingAndGlyphs" textLength="154" x="38.5" y="528.6016">Promise find(string)</text><ellipse cx="29.5" cy="542.6875" fill="#84BE84" rx="3" ry="3" style="stroke: #038048; stroke-width: 1.0;"/><text fill="#19273C" font-family="sans-serif" font-size="16" lengthAdjust="spacingAndGlyphs" textLength="170" x="38.5" y="547.2266">Promise query(string)</text><ellipse cx="29.5" cy="561.3125" fill="#84BE84" rx="3" ry="3" style="stroke: #038048; stroke-width: 1.0;"/><text fill="#19273C" font-family="sans-serif" font-size="16" lengthAdjust="spacingAndGlyphs" textLength="153" x="38.5" y="565.8516">Promise resolveAll()</text><ellipse cx="29.5" cy="579.9375" fill="#84BE84" rx="3" ry="3" style="stroke: #038048; stroke-width: 1.0;"/><text fill="#19273C" font-family="sans-serif" font-size="16" lengthAdjust="spacingAndGlyphs" textLength="181" x="38.5" y="584.4766">Promise resolve(string)</text><!--class AssetRegistry--><rect fill="#F8FAFA" height="141.125" rx="1" ry="1" style="stroke: #E3ECEC; stroke-width: 1.5;" width="723" x="6" y="8"/><ellipse cx="309.25" cy="24" fill="#FFFFFF" rx="11" ry="11" style="stroke: #E3ECEC; stroke-width: 1.0;"/><path d="M311.7031,29.6563 Q311.1563,29.9375 310.5547,30.0859 Q309.9531,30.2344 309.2813,30.2344 Q306.9219,30.2344 305.6797,28.6719 Q304.4375,27.1094 304.4375,24.1719 Q304.4375,21.2344 305.6797,19.6797 Q306.9219,18.125 309.2813,18.125 Q309.9531,18.125 310.5625,18.2656 Q311.1719,18.4063 311.7031,18.6875 L311.7031,21.25 Q311.1094,20.7031 310.5469,20.4453 Q309.9844,20.1875 309.3906,20.1875 Q308.125,20.1875 307.4844,21.1953 Q306.8438,22.2031 306.8438,24.1719 Q306.8438,26.1406 307.4844,27.1484 Q308.125,28.1563 309.3906,28.1563 Q309.9844,28.1563 310.5469,27.8984 Q311.1094,27.6406 311.7031,27.0938 L311.7031,29.6563 Z "/><text fill="#19273C" font-family="sans-serif" font-size="16" lengthAdjust="spacingAndGlyphs" textLength="108" x="329.75" y="29.5391">AssetRegistry</text><line style="stroke: #E3ECEC; stroke-width: 1.5;" x1="7" x2="728" y1="40" y2="40"/><line style="stroke: #E3ECEC; stroke-width: 1.5;" x1="7" x2="728" y1="48" y2="48"/><ellipse cx="17" cy="62.3125" fill="#84BE84" rx="3" ry="3" style="stroke: #038048; stroke-width: 1.0;"/><text fill="#19273C" font-family="sans-serif" font-size="16" lengthAdjust="spacingAndGlyphs" textLength="622" x="26" y="66.8516">Promise getAllAssetRegistries(SecurityContext,ModelManager,Factory,Serializer)</text><ellipse cx="17" cy="80.9375" fill="#84BE84" rx="3" ry="3" style="stroke: #038048; stroke-width: 1.0;"/><text fill="#19273C" font-family="sans-serif" font-size="16" lengthAdjust="spacingAndGlyphs" textLength="643" x="26" y="85.4766">Promise getAssetRegistry(SecurityContext,string,ModelManager,Factory,Serializer)</text><ellipse cx="17" cy="99.5625" fill="#84BE84" rx="3" ry="3" style="stroke: #038048; stroke-width: 1.0;"/><text fill="#19273C" font-family="sans-serif" font-size="16" lengthAdjust="spacingAndGlyphs" textLength="663" x="26" y="104.1016">Promise assetRegistryExists(SecurityContext,string,ModelManager,Factory,Serializer)</text><ellipse cx="17" cy="118.1875" fill="#84BE84" rx="3" ry="3" style="stroke: #038048; stroke-width: 1.0;"/><text fill="#19273C" font-family="sans-serif" font-size="16" lengthAdjust="spacingAndGlyphs" textLength="697" x="26" y="122.7266">Promise addAssetRegistry(SecurityContext,string,string,ModelManager,Factory,Serializer)</text><ellipse cx="17" cy="136.8125" fill="#84BE84" rx="3" ry="3" style="stroke: #038048; stroke-width: 1.0;"/><text fill="#19273C" font-family="sans-serif" font-size="16" lengthAdjust="spacingAndGlyphs" textLength="622" x="26" y="141.3516">void constructor(string,string,SecurityContext,ModelManager,Factory,Serializer)</text><path d="M367.5,149.33 C367.5,161.642 367.5,175.011 367.5,188.952 " fill="none" style="stroke: #3C6DF0; stroke-width: 1.0;"/><polygon fill="none" points="374.5,188.989,367.5,208.989,360.5,188.989,374.5,188.989" style="stroke: #3C6DF0; stroke-width: 1.0;"/></g></svg>