<?xml version="1.0" encoding="UTF-8" standalone="no"?><svg xmlns="http://www.w3.org/2000/svg" xmlns:xlink="http://www.w3.org/1999/xlink" contentScriptType="application/ecmascript" contentStyleType="text/css" height="519px" preserveAspectRatio="none" style="width:705px;height:519px;" version="1.1" viewBox="0 0 705 519" width="705px" zoomAndPan="magnify"><defs/><g><!--class Registry--><rect fill="#F8FAFA" height="383.25" rx="1" ry="1" style="stroke: #E3ECEC; stroke-width: 1.5;" width="698" x="6" y="135"/><ellipse cx="318.75" cy="151" fill="#FFFFFF" rx="11" ry="11" style="stroke: #E3ECEC; stroke-width: 1.0;"/><path d="M321.2031,156.6563 Q320.6563,156.9375 320.0547,157.0859 Q319.4531,157.2344 318.7813,157.2344 Q316.4219,157.2344 315.1797,155.6719 Q313.9375,154.1094 313.9375,151.1719 Q313.9375,148.2344 315.1797,146.6797 Q316.4219,145.125 318.7813,145.125 Q319.4531,145.125 320.0625,145.2656 Q320.6719,145.4063 321.2031,145.6875 L321.2031,148.25 Q320.6094,147.7031 320.0469,147.4453 Q319.4844,147.1875 318.8906,147.1875 Q317.625,147.1875 316.9844,148.1953 Q316.3438,149.2031 316.3438,151.1719 Q316.3438,153.1406 316.9844,154.1484 Q317.625,155.1563 318.8906,155.1563 Q319.4844,155.1563 320.0469,154.8984 Q320.6094,154.6406 321.2031,154.0938 L321.2031,156.6563 Z "/><text fill="#19273C" font-family="sans-serif" font-size="16" lengthAdjust="spacingAndGlyphs" textLength="64" x="339.25" y="156.5391">Registry</text><line style="stroke: #E3ECEC; stroke-width: 1.5;" x1="7" x2="703" y1="167" y2="167"/><line style="stroke: #E3ECEC; stroke-width: 1.5;" x1="7" x2="703" y1="175" y2="175"/><ellipse cx="17" cy="189.3125" fill="#84BE84" rx="3" ry="3" style="stroke: #038048; stroke-width: 1.0;"/><text fill="#19273C" font-family="sans-serif" font-size="16" lengthAdjust="spacingAndGlyphs" textLength="373" x="26" y="193.8516">Promise getAllRegistries(SecurityContext,string)</text><ellipse cx="17" cy="207.9375" fill="#84BE84" rx="3" ry="3" style="stroke: #038048; stroke-width: 1.0;"/><text fill="#19273C" font-family="sans-serif" font-size="16" lengthAdjust="spacingAndGlyphs" textLength="394" x="26" y="212.4766">Promise getRegistry(SecurityContext,string,string)</text><ellipse cx="17" cy="226.5625" fill="#84BE84" rx="3" ry="3" style="stroke: #038048; stroke-width: 1.0;"/><text fill="#19273C" font-family="sans-serif" font-size="16" lengthAdjust="spacingAndGlyphs" textLength="415" x="26" y="231.1016">Promise existsRegistry(SecurityContext,string,string)</text><ellipse cx="17" cy="245.1875" fill="#84BE84" rx="3" ry="3" style="stroke: #038048; stroke-width: 1.0;"/><text fill="#19273C" font-family="sans-serif" font-size="16" lengthAdjust="spacingAndGlyphs" textLength="448" x="26" y="249.7266">Promise addRegistry(SecurityContext,string,string,string)</text><ellipse cx="17" cy="263.8125" fill="#84BE84" rx="3" ry="3" style="stroke: #038048; stroke-width: 1.0;"/><text fill="#19273C" font-family="sans-serif" font-size="16" lengthAdjust="spacingAndGlyphs" textLength="672" x="26" y="268.3516">void constructor(string,string,string,SecurityContext,ModelManager,Factory,Serializer)</text><ellipse cx="17" cy="282.4375" fill="#84BE84" rx="3" ry="3" style="stroke: #038048; stroke-width: 1.0;"/><text fill="#19273C" font-family="sans-serif" font-size="16" lengthAdjust="spacingAndGlyphs" textLength="212" x="26" y="286.9766">Promise addAll(Resource[])</text><ellipse cx="17" cy="301.0625" fill="#84BE84" rx="3" ry="3" style="stroke: #038048; stroke-width: 1.0;"/><text fill="#19273C" font-family="sans-serif" font-size="16" lengthAdjust="spacingAndGlyphs" textLength="183" x="26" y="305.6016">Promise add(Resource)</text><ellipse cx="17" cy="319.6875" fill="#84BE84" rx="3" ry="3" style="stroke: #038048; stroke-width: 1.0;"/><text fill="#19273C" font-family="sans-serif" font-size="16" lengthAdjust="spacingAndGlyphs" textLength="237" x="26" y="324.2266">Promise updateAll(Resource[])</text><ellipse cx="17" cy="338.3125" fill="#84BE84" rx="3" ry="3" style="stroke: #038048; stroke-width: 1.0;"/><text fill="#19273C" font-family="sans-serif" font-size="16" lengthAdjust="spacingAndGlyphs" textLength="208" x="26" y="342.8516">Promise update(Resource)</text><ellipse cx="17" cy="356.9375" fill="#84BE84" rx="3" ry="3" style="stroke: #038048; stroke-width: 1.0;"/><text fill="#19273C" font-family="sans-serif" font-size="16" lengthAdjust="spacingAndGlyphs" textLength="156" x="26" y="361.4766">Promise removeAll()</text><ellipse cx="17" cy="375.5625" fill="#84BE84" rx="3" ry="3" style="stroke: #038048; stroke-width: 1.0;"/><text fill="#19273C" font-family="sans-serif" font-size="16" lengthAdjust="spacingAndGlyphs" textLength="139" x="26" y="380.1016">Promise remove()</text><ellipse cx="17" cy="394.1875" fill="#84BE84" rx="3" ry="3" style="stroke: #038048; stroke-width: 1.0;"/><text fill="#19273C" font-family="sans-serif" font-size="16" lengthAdjust="spacingAndGlyphs" textLength="122" x="26" y="398.7266">Promise getAll()</text><ellipse cx="17" cy="412.8125" fill="#84BE84" rx="3" ry="3" style="stroke: #038048; stroke-width: 1.0;"/><text fill="#19273C" font-family="sans-serif" font-size="16" lengthAdjust="spacingAndGlyphs" textLength="150" x="26" y="417.3516">Promise get(string)</text><ellipse cx="17" cy="431.4375" fill="#84BE84" rx="3" ry="3" style="stroke: #038048; stroke-width: 1.0;"/><text fill="#19273C" font-family="sans-serif" font-size="16" lengthAdjust="spacingAndGlyphs" textLength="171" x="26" y="435.9766">Promise exists(string)</text><ellipse cx="17" cy="450.0625" fill="#84BE84" rx="3" ry="3" style="stroke: #038048; stroke-width: 1.0;"/><text fill="#19273C" font-family="sans-serif" font-size="16" lengthAdjust="spacingAndGlyphs" textLength="154" x="26" y="454.6016">Promise find(string)</text><ellipse cx="17" cy="468.6875" fill="#84BE84" rx="3" ry="3" style="stroke: #038048; stroke-width: 1.0;"/><text fill="#19273C" font-family="sans-serif" font-size="16" lengthAdjust="spacingAndGlyphs" textLength="170" x="26" y="473.2266">Promise query(string)</text><ellipse cx="17" cy="487.3125" fill="#84BE84" rx="3" ry="3" style="stroke: #038048; stroke-width: 1.0;"/><text fill="#19273C" font-family="sans-serif" font-size="16" lengthAdjust="spacingAndGlyphs" textLength="153" x="26" y="491.8516">Promise resolveAll()</text><ellipse cx="17" cy="505.9375" fill="#84BE84" rx="3" ry="3" style="stroke: #038048; stroke-width: 1.0;"/><text fill="#19273C" font-family="sans-serif" font-size="16" lengthAdjust="spacingAndGlyphs" textLength="181" x="26" y="510.4766">Promise resolve(string)</text><!--class IdentityRegistry--><rect fill="#F8FAFA" height="66.625" rx="1" ry="1" style="stroke: #E3ECEC; stroke-width: 1.5;" width="633" x="38.5" y="8"/><ellipse cx="289.75" cy="24" fill="#FFFFFF" rx="11" ry="11" style="stroke: #E3ECEC; stroke-width: 1.0;"/><path d="M292.2031,29.6563 Q291.6563,29.9375 291.0547,30.0859 Q290.4531,30.2344 289.7813,30.2344 Q287.4219,30.2344 286.1797,28.6719 Q284.9375,27.1094 284.9375,24.1719 Q284.9375,21.2344 286.1797,19.6797 Q287.4219,18.125 289.7813,18.125 Q290.4531,18.125 291.0625,18.2656 Q291.6719,18.4063 292.2031,18.6875 L292.2031,21.25 Q291.6094,20.7031 291.0469,20.4453 Q290.4844,20.1875 289.8906,20.1875 Q288.625,20.1875 287.9844,21.1953 Q287.3438,22.2031 287.3438,24.1719 Q287.3438,26.1406 287.9844,27.1484 Q288.625,28.1563 289.8906,28.1563 Q290.4844,28.1563 291.0469,27.8984 Q291.6094,27.6406 292.2031,27.0938 L292.2031,29.6563 Z "/><text fill="#19273C" font-family="sans-serif" font-size="16" lengthAdjust="spacingAndGlyphs" textLength="122" x="310.25" y="29.5391">IdentityRegistry</text><line style="stroke: #E3ECEC; stroke-width: 1.5;" x1="39.5" x2="670.5" y1="40" y2="40"/><line style="stroke: #E3ECEC; stroke-width: 1.5;" x1="39.5" x2="670.5" y1="48" y2="48"/><ellipse cx="49.5" cy="62.3125" fill="#84BE84" rx="3" ry="3" style="stroke: #038048; stroke-width: 1.0;"/><text fill="#19273C" font-family="sans-serif" font-size="16" lengthAdjust="spacingAndGlyphs" textLength="607" x="58.5" y="66.8516">Promise getIdentityRegistry(SecurityContext,ModelManager,Factory,Serializer)</text><path d="M355,75.24 C355,86.419 355,99.878 355,114.682 " fill="none" style="stroke: #3C6DF0; stroke-width: 1.0;"/><polygon fill="none" points="362,114.839,355,134.839,348,114.839,362,114.839" style="stroke: #3C6DF0; stroke-width: 1.0;"/></g></svg>