<?xml version="1.0" encoding="UTF-8" standalone="no"?><svg xmlns="http://www.w3.org/2000/svg" xmlns:xlink="http://www.w3.org/1999/xlink" contentScriptType="application/ecmascript" contentStyleType="text/css" height="184px" preserveAspectRatio="none" style="width:270px;height:184px;" version="1.1" viewBox="0 0 270 184" width="270px" zoomAndPan="magnify"><defs/><g><!--class ParseException--><rect fill="#F8FAFA" height="66.625" rx="1" ry="1" style="stroke: #E3ECEC; stroke-width: 1.5;" width="263" x="6" y="8"/><ellipse cx="72.75" cy="24" fill="#FFFFFF" rx="11" ry="11" style="stroke: #E3ECEC; stroke-width: 1.0;"/><path d="M75.2031,29.6563 Q74.6563,29.9375 74.0547,30.0859 Q73.4531,30.2344 72.7813,30.2344 Q70.4219,30.2344 69.1797,28.6719 Q67.9375,27.1094 67.9375,24.1719 Q67.9375,21.2344 69.1797,19.6797 Q70.4219,18.125 72.7813,18.125 Q73.4531,18.125 74.0625,18.2656 Q74.6719,18.4063 75.2031,18.6875 L75.2031,21.25 Q74.6094,20.7031 74.0469,20.4453 Q73.4844,20.1875 72.8906,20.1875 Q71.625,20.1875 70.9844,21.1953 Q70.3438,22.2031 70.3438,24.1719 Q70.3438,26.1406 70.9844,27.1484 Q71.625,28.1563 72.8906,28.1563 Q73.4844,28.1563 74.0469,27.8984 Q74.6094,27.6406 75.2031,27.0938 L75.2031,29.6563 Z "/><text fill="#19273C" font-family="sans-serif" font-size="16" lengthAdjust="spacingAndGlyphs" textLength="121" x="93.25" y="29.5391">ParseException</text><line style="stroke: #E3ECEC; stroke-width: 1.5;" x1="7" x2="268" y1="40" y2="40"/><line style="stroke: #E3ECEC; stroke-width: 1.5;" x1="7" x2="268" y1="48" y2="48"/><ellipse cx="17" cy="62.3125" fill="#84BE84" rx="3" ry="3" style="stroke: #038048; stroke-width: 1.0;"/><text fill="#19273C" font-family="sans-serif" font-size="16" lengthAdjust="spacingAndGlyphs" textLength="237" x="26" y="66.8516">void constructor(string,string)</text><!--class BaseModelException--><rect fill="#F8FAFA" height="48" rx="1" ry="1" style="stroke: #E3ECEC; stroke-width: 1.5;" width="192" x="41.5" y="135"/><ellipse cx="56.5" cy="151" fill="#FFFFFF" rx="11" ry="11" style="stroke: #E3ECEC; stroke-width: 1.0;"/><path d="M58.9531,156.6563 Q58.4063,156.9375 57.8047,157.0859 Q57.2031,157.2344 56.5313,157.2344 Q54.1719,157.2344 52.9297,155.6719 Q51.6875,154.1094 51.6875,151.1719 Q51.6875,148.2344 52.9297,146.6797 Q54.1719,145.125 56.5313,145.125 Q57.2031,145.125 57.8125,145.2656 Q58.4219,145.4063 58.9531,145.6875 L58.9531,148.25 Q58.3594,147.7031 57.7969,147.4453 Q57.2344,147.1875 56.6406,147.1875 Q55.375,147.1875 54.7344,148.1953 Q54.0938,149.2031 54.0938,151.1719 Q54.0938,153.1406 54.7344,154.1484 Q55.375,155.1563 56.6406,155.1563 Q57.2344,155.1563 57.7969,154.8984 Q58.3594,154.6406 58.9531,154.0938 L58.9531,156.6563 Z "/><text fill="#19273C" font-family="sans-serif" font-size="16" lengthAdjust="spacingAndGlyphs" textLength="160" x="70.5" y="156.5391">BaseModelException</text><line style="stroke: #E3ECEC; stroke-width: 1.5;" x1="42.5" x2="232.5" y1="167" y2="167"/><line style="stroke: #E3ECEC; stroke-width: 1.5;" x1="42.5" x2="232.5" y1="175" y2="175"/><path d="M137.5,75.289 C137.5,87.4227 137.5,101.3772 137.5,114.3262 " fill="none" style="stroke: #3C6DF0; stroke-width: 1.0;"/><polygon fill="none" points="144.5,114.6703,137.5,134.6703,130.5,114.6703,144.5,114.6703" style="stroke: #3C6DF0; stroke-width: 1.0;"/></g></svg>