<?xml version="1.0" encoding="UTF-8" standalone="no"?><svg xmlns="http://www.w3.org/2000/svg" xmlns:xlink="http://www.w3.org/1999/xlink" contentScriptType="application/ecmascript" contentStyleType="text/css" height="184px" preserveAspectRatio="none" style="width:220px;height:184px;" version="1.1" viewBox="0 0 220 184" width="220px" zoomAndPan="magnify"><defs/><g><!--class BaseException--><rect fill="#F8FAFA" height="66.625" rx="1" ry="1" style="stroke: #E3ECEC; stroke-width: 1.5;" width="213" x="6" y="8"/><ellipse cx="50.75" cy="24" fill="#FFFFFF" rx="11" ry="11" style="stroke: #E3ECEC; stroke-width: 1.0;"/><path d="M53.2031,29.6563 Q52.6563,29.9375 52.0547,30.0859 Q51.4531,30.2344 50.7813,30.2344 Q48.4219,30.2344 47.1797,28.6719 Q45.9375,27.1094 45.9375,24.1719 Q45.9375,21.2344 47.1797,19.6797 Q48.4219,18.125 50.7813,18.125 Q51.4531,18.125 52.0625,18.2656 Q52.6719,18.4063 53.2031,18.6875 L53.2031,21.25 Q52.6094,20.7031 52.0469,20.4453 Q51.4844,20.1875 50.8906,20.1875 Q49.625,20.1875 48.9844,21.1953 Q48.3438,22.2031 48.3438,24.1719 Q48.3438,26.1406 48.9844,27.1484 Q49.625,28.1563 50.8906,28.1563 Q51.4844,28.1563 52.0469,27.8984 Q52.6094,27.6406 53.2031,27.0938 L53.2031,29.6563 Z "/><text fill="#19273C" font-family="sans-serif" font-size="16" lengthAdjust="spacingAndGlyphs" textLength="115" x="71.25" y="29.5391">BaseException</text><line style="stroke: #E3ECEC; stroke-width: 1.5;" x1="7" x2="218" y1="40" y2="40"/><line style="stroke: #E3ECEC; stroke-width: 1.5;" x1="7" x2="218" y1="48" y2="48"/><ellipse cx="17" cy="62.3125" fill="#84BE84" rx="3" ry="3" style="stroke: #038048; stroke-width: 1.0;"/><text fill="#19273C" font-family="sans-serif" font-size="16" lengthAdjust="spacingAndGlyphs" textLength="187" x="26" y="66.8516">void constructor(string)</text><!--class Error--><rect fill="#F8FAFA" height="48" rx="1" ry="1" style="stroke: #E3ECEC; stroke-width: 1.5;" width="73" x="76" y="135"/><ellipse cx="91" cy="151" fill="#FFFFFF" rx="11" ry="11" style="stroke: #E3ECEC; stroke-width: 1.0;"/><path d="M93.4531,156.6563 Q92.9063,156.9375 92.3047,157.0859 Q91.7031,157.2344 91.0313,157.2344 Q88.6719,157.2344 87.4297,155.6719 Q86.1875,154.1094 86.1875,151.1719 Q86.1875,148.2344 87.4297,146.6797 Q88.6719,145.125 91.0313,145.125 Q91.7031,145.125 92.3125,145.2656 Q92.9219,145.4063 93.4531,145.6875 L93.4531,148.25 Q92.8594,147.7031 92.2969,147.4453 Q91.7344,147.1875 91.1406,147.1875 Q89.875,147.1875 89.2344,148.1953 Q88.5938,149.2031 88.5938,151.1719 Q88.5938,153.1406 89.2344,154.1484 Q89.875,155.1563 91.1406,155.1563 Q91.7344,155.1563 92.2969,154.8984 Q92.8594,154.6406 93.4531,154.0938 L93.4531,156.6563 Z "/><text fill="#19273C" font-family="sans-serif" font-size="16" lengthAdjust="spacingAndGlyphs" textLength="41" x="105" y="156.5391">Error</text><line style="stroke: #E3ECEC; stroke-width: 1.5;" x1="77" x2="148" y1="167" y2="167"/><line style="stroke: #E3ECEC; stroke-width: 1.5;" x1="77" x2="148" y1="175" y2="175"/><path d="M112.5,75.289 C112.5,87.4227 112.5,101.3772 112.5,114.3262 " fill="none" style="stroke: #3C6DF0; stroke-width: 1.0;"/><polygon fill="none" points="119.5,114.6703,112.5,134.6703,105.5001,114.6703,119.5,114.6703" style="stroke: #3C6DF0; stroke-width: 1.0;"/></g></svg>