<?xml version="1.0" encoding="UTF-8" standalone="no"?><svg xmlns="http://www.w3.org/2000/svg" xmlns:xlink="http://www.w3.org/1999/xlink" contentScriptType="application/ecmascript" contentStyleType="text/css" height="202px" preserveAspectRatio="none" style="width:557px;height:202px;" version="1.1" viewBox="0 0 557 202" width="557px" zoomAndPan="magnify"><defs/><g><!--class InvalidQueryException--><rect fill="#F8FAFA" height="85.25" rx="1" ry="1" style="stroke: #E3ECEC; stroke-width: 1.5;" width="550" x="6" y="8"/><ellipse cx="189.75" cy="24" fill="#FFFFFF" rx="11" ry="11" style="stroke: #E3ECEC; stroke-width: 1.0;"/><path d="M192.2031,29.6563 Q191.6563,29.9375 191.0547,30.0859 Q190.4531,30.2344 189.7813,30.2344 Q187.4219,30.2344 186.1797,28.6719 Q184.9375,27.1094 184.9375,24.1719 Q184.9375,21.2344 186.1797,19.6797 Q187.4219,18.125 189.7813,18.125 Q190.4531,18.125 191.0625,18.2656 Q191.6719,18.4063 192.2031,18.6875 L192.2031,21.25 Q191.6094,20.7031 191.0469,20.4453 Q190.4844,20.1875 189.8906,20.1875 Q188.625,20.1875 187.9844,21.1953 Q187.3438,22.2031 187.3438,24.1719 Q187.3438,26.1406 187.9844,27.1484 Q188.625,28.1563 189.8906,28.1563 Q190.4844,28.1563 191.0469,27.8984 Q191.6094,27.6406 192.2031,27.0938 L192.2031,29.6563 Z "/><text fill="#19273C" font-family="sans-serif" font-size="16" lengthAdjust="spacingAndGlyphs" textLength="174" x="210.25" y="29.5391">InvalidQueryException</text><line style="stroke: #E3ECEC; stroke-width: 1.5;" x1="7" x2="555" y1="40" y2="40"/><line style="stroke: #E3ECEC; stroke-width: 1.5;" x1="7" x2="555" y1="48" y2="48"/><ellipse cx="17" cy="62.3125" fill="#84BE84" rx="3" ry="3" style="stroke: #038048; stroke-width: 1.0;"/><text fill="#19273C" font-family="sans-serif" font-size="16" lengthAdjust="spacingAndGlyphs" textLength="524" x="26" y="66.8516">void constructor(String,QueryFile,Object,String,String,String,String)</text><ellipse cx="17" cy="80.9375" fill="#84BE84" rx="3" ry="3" style="stroke: #038048; stroke-width: 1.0;"/><text fill="#19273C" font-family="sans-serif" font-size="16" lengthAdjust="spacingAndGlyphs" textLength="186" x="26" y="85.4766">QueryFile getQueryFile()</text><!--class BaseFileException--><rect fill="#F8FAFA" height="48" rx="1" ry="1" style="stroke: #E3ECEC; stroke-width: 1.5;" width="171" x="195.5" y="153"/><ellipse cx="210.5" cy="169" fill="#FFFFFF" rx="11" ry="11" style="stroke: #E3ECEC; stroke-width: 1.0;"/><path d="M212.9531,174.6563 Q212.4063,174.9375 211.8047,175.0859 Q211.2031,175.2344 210.5313,175.2344 Q208.1719,175.2344 206.9297,173.6719 Q205.6875,172.1094 205.6875,169.1719 Q205.6875,166.2344 206.9297,164.6797 Q208.1719,163.125 210.5313,163.125 Q211.2031,163.125 211.8125,163.2656 Q212.4219,163.4063 212.9531,163.6875 L212.9531,166.25 Q212.3594,165.7031 211.7969,165.4453 Q211.2344,165.1875 210.6406,165.1875 Q209.375,165.1875 208.7344,166.1953 Q208.0938,167.2031 208.0938,169.1719 Q208.0938,171.1406 208.7344,172.1484 Q209.375,173.1563 210.6406,173.1563 Q211.2344,173.1563 211.7969,172.8984 Q212.3594,172.6406 212.9531,172.0938 L212.9531,174.6563 Z "/><text fill="#19273C" font-family="sans-serif" font-size="16" lengthAdjust="spacingAndGlyphs" textLength="139" x="224.5" y="174.5391">BaseFileException</text><line style="stroke: #E3ECEC; stroke-width: 1.5;" x1="196.5" x2="365.5" y1="185" y2="185"/><line style="stroke: #E3ECEC; stroke-width: 1.5;" x1="196.5" x2="365.5" y1="193" y2="193"/><path d="M281,93.303 C281,106.0649 281,120.1166 281,132.959 " fill="none" style="stroke: #3C6DF0; stroke-width: 1.0;"/><polygon fill="none" points="288,132.9891,281,152.989,274,132.989,288,132.9891" style="stroke: #3C6DF0; stroke-width: 1.0;"/></g></svg>