<?xml version="1.0" encoding="UTF-8" standalone="no"?><svg xmlns="http://www.w3.org/2000/svg" xmlns:xlink="http://www.w3.org/1999/xlink" contentScriptType="application/ecmascript" contentStyleType="text/css" height="94px" preserveAspectRatio="none" style="width:332px;height:94px;" version="1.1" viewBox="0 0 332 94" width="332px" zoomAndPan="magnify"><defs/><g><!--class ConsoleLogger--><rect fill="#F8FAFA" height="85.25" rx="1" ry="1" style="stroke: #E3ECEC; stroke-width: 1.5;" width="325" x="6" y="8"/><ellipse cx="105.75" cy="24" fill="#FFFFFF" rx="11" ry="11" style="stroke: #E3ECEC; stroke-width: 1.0;"/><path d="M108.2031,29.6563 Q107.6563,29.9375 107.0547,30.0859 Q106.4531,30.2344 105.7813,30.2344 Q103.4219,30.2344 102.1797,28.6719 Q100.9375,27.1094 100.9375,24.1719 Q100.9375,21.2344 102.1797,19.6797 Q103.4219,18.125 105.7813,18.125 Q106.4531,18.125 107.0625,18.2656 Q107.6719,18.4063 108.2031,18.6875 L108.2031,21.25 Q107.6094,20.7031 107.0469,20.4453 Q106.4844,20.1875 105.8906,20.1875 Q104.625,20.1875 103.9844,21.1953 Q103.3438,22.2031 103.3438,24.1719 Q103.3438,26.1406 103.9844,27.1484 Q104.625,28.1563 105.8906,28.1563 Q106.4844,28.1563 107.0469,27.8984 Q107.6094,27.6406 108.2031,27.0938 L108.2031,29.6563 Z "/><text fill="#19273C" font-family="sans-serif" font-size="16" lengthAdjust="spacingAndGlyphs" textLength="117" x="126.25" y="29.5391">ConsoleLogger</text><line style="stroke: #E3ECEC; stroke-width: 1.5;" x1="7" x2="330" y1="40" y2="40"/><line style="stroke: #E3ECEC; stroke-width: 1.5;" x1="7" x2="330" y1="48" y2="48"/><ellipse cx="17" cy="62.3125" fill="#84BE84" rx="3" ry="3" style="stroke: #038048; stroke-width: 1.0;"/><text fill="#19273C" font-family="sans-serif" font-size="16" lengthAdjust="spacingAndGlyphs" textLength="292" x="26" y="66.8516">string format(string,string,undefined)</text><ellipse cx="17" cy="80.9375" fill="#84BE84" rx="3" ry="3" style="stroke: #038048; stroke-width: 1.0;"/><text fill="#19273C" font-family="sans-serif" font-size="16" lengthAdjust="spacingAndGlyphs" textLength="299" x="26" y="85.4766">void log(string,string,string,undefined)</text></g></svg>