<?xml version="1.0" encoding="UTF-8" standalone="no"?><svg xmlns="http://www.w3.org/2000/svg" xmlns:xlink="http://www.w3.org/1999/xlink" contentScriptType="application/ecmascript" contentStyleType="text/css" height="329px" preserveAspectRatio="none" style="width:272px;height:329px;" version="1.1" viewBox="0 0 272 329" width="272px" zoomAndPan="magnify"><defs/><g><!--class BaseException--><rect fill="#F8FAFA" height="66.625" rx="1" ry="1" style="stroke: #E3ECEC; stroke-width: 1.5;" width="213" x="32" y="153"/><ellipse cx="76.75" cy="169" fill="#FFFFFF" rx="11" ry="11" style="stroke: #E3ECEC; stroke-width: 1.0;"/><path d="M79.2031,174.6563 Q78.6563,174.9375 78.0547,175.0859 Q77.4531,175.2344 76.7813,175.2344 Q74.4219,175.2344 73.1797,173.6719 Q71.9375,172.1094 71.9375,169.1719 Q71.9375,166.2344 73.1797,164.6797 Q74.4219,163.125 76.7813,163.125 Q77.4531,163.125 78.0625,163.2656 Q78.6719,163.4063 79.2031,163.6875 L79.2031,166.25 Q78.6094,165.7031 78.0469,165.4453 Q77.4844,165.1875 76.8906,165.1875 Q75.625,165.1875 74.9844,166.1953 Q74.3438,167.2031 74.3438,169.1719 Q74.3438,171.1406 74.9844,172.1484 Q75.625,173.1563 76.8906,173.1563 Q77.4844,173.1563 78.0469,172.8984 Q78.6094,172.6406 79.2031,172.0938 L79.2031,174.6563 Z "/><text fill="#19273C" font-family="sans-serif" font-size="16" lengthAdjust="spacingAndGlyphs" textLength="115" x="97.25" y="174.5391">BaseException</text><line style="stroke: #E3ECEC; stroke-width: 1.5;" x1="33" x2="244" y1="185" y2="185"/><line style="stroke: #E3ECEC; stroke-width: 1.5;" x1="33" x2="244" y1="193" y2="193"/><ellipse cx="43" cy="207.3125" fill="#84BE84" rx="3" ry="3" style="stroke: #038048; stroke-width: 1.0;"/><text fill="#19273C" font-family="sans-serif" font-size="16" lengthAdjust="spacingAndGlyphs" textLength="187" x="52" y="211.8516">void constructor(string)</text><!--class Error--><rect fill="#F8FAFA" height="48" rx="1" ry="1" style="stroke: #E3ECEC; stroke-width: 1.5;" width="73" x="102" y="280"/><ellipse cx="117" cy="296" fill="#FFFFFF" rx="11" ry="11" style="stroke: #E3ECEC; stroke-width: 1.0;"/><path d="M119.4531,301.6563 Q118.9063,301.9375 118.3047,302.0859 Q117.7031,302.2344 117.0313,302.2344 Q114.6719,302.2344 113.4297,300.6719 Q112.1875,299.1094 112.1875,296.1719 Q112.1875,293.2344 113.4297,291.6797 Q114.6719,290.125 117.0313,290.125 Q117.7031,290.125 118.3125,290.2656 Q118.9219,290.4063 119.4531,290.6875 L119.4531,293.25 Q118.8594,292.7031 118.2969,292.4453 Q117.7344,292.1875 117.1406,292.1875 Q115.875,292.1875 115.2344,293.1953 Q114.5938,294.2031 114.5938,296.1719 Q114.5938,298.1406 115.2344,299.1484 Q115.875,300.1563 117.1406,300.1563 Q117.7344,300.1563 118.2969,299.8984 Q118.8594,299.6406 119.4531,299.0938 L119.4531,301.6563 Z "/><text fill="#19273C" font-family="sans-serif" font-size="16" lengthAdjust="spacingAndGlyphs" textLength="41" x="131" y="301.5391">Error</text><line style="stroke: #E3ECEC; stroke-width: 1.5;" x1="103" x2="174" y1="312" y2="312"/><line style="stroke: #E3ECEC; stroke-width: 1.5;" x1="103" x2="174" y1="320" y2="320"/><!--class TypeNotFoundException--><rect fill="#F8FAFA" height="85.25" rx="1" ry="1" style="stroke: #E3ECEC; stroke-width: 1.5;" width="265" x="6" y="8"/><ellipse cx="39.9" cy="24" fill="#FFFFFF" rx="11" ry="11" style="stroke: #E3ECEC; stroke-width: 1.0;"/><path d="M42.3531,29.6563 Q41.8063,29.9375 41.2047,30.0859 Q40.6031,30.2344 39.9313,30.2344 Q37.5719,30.2344 36.3297,28.6719 Q35.0875,27.1094 35.0875,24.1719 Q35.0875,21.2344 36.3297,19.6797 Q37.5719,18.125 39.9313,18.125 Q40.6031,18.125 41.2125,18.2656 Q41.8219,18.4063 42.3531,18.6875 L42.3531,21.25 Q41.7594,20.7031 41.1969,20.4453 Q40.6344,20.1875 40.0406,20.1875 Q38.775,20.1875 38.1344,21.1953 Q37.4938,22.2031 37.4938,24.1719 Q37.4938,26.1406 38.1344,27.1484 Q38.775,28.1563 40.0406,28.1563 Q40.6344,28.1563 41.1969,27.8984 Q41.7594,27.6406 42.3531,27.0938 L42.3531,29.6563 Z "/><text fill="#19273C" font-family="sans-serif" font-size="16" lengthAdjust="spacingAndGlyphs" textLength="191" x="58.1" y="29.5391">TypeNotFoundException</text><line style="stroke: #E3ECEC; stroke-width: 1.5;" x1="7" x2="270" y1="40" y2="40"/><line style="stroke: #E3ECEC; stroke-width: 1.5;" x1="7" x2="270" y1="48" y2="48"/><ellipse cx="17" cy="62.3125" fill="#84BE84" rx="3" ry="3" style="stroke: #038048; stroke-width: 1.0;"/><text fill="#19273C" font-family="sans-serif" font-size="16" lengthAdjust="spacingAndGlyphs" textLength="239" x="26" y="66.8516">void constructor(String,String)</text><ellipse cx="17" cy="80.9375" fill="#84BE84" rx="3" ry="3" style="stroke: #038048; stroke-width: 1.0;"/><text fill="#19273C" font-family="sans-serif" font-size="16" lengthAdjust="spacingAndGlyphs" textLength="169" x="26" y="85.4766">string getTypeName()</text><path d="M138.5,220.289 C138.5,232.4227 138.5,246.3772 138.5,259.3262 " fill="none" style="stroke: #3C6DF0; stroke-width: 1.0;"/><polygon fill="none" points="145.5,259.6703,138.5,279.6703,131.5,259.6703,145.5,259.6703" style="stroke: #3C6DF0; stroke-width: 1.0;"/><path d="M138.5,93.164 C138.5,105.618 138.5,119.443 138.5,132.521 " fill="none" style="stroke: #3C6DF0; stroke-width: 1.0;"/><polygon fill="none" points="145.5,132.798,138.5,152.798,131.5,132.798,145.5,132.798" style="stroke: #3C6DF0; stroke-width: 1.0;"/></g></svg>